<svg width="84" height="88" viewBox="0 0 84 88" fill="none" xmlns="http://www.w3.org/2000/svg">
<path d="M31.1367 27.8578L31.2969 27.8109C31.2383 27.7602 31.1836 27.807 31.1367 27.8578Z" fill="black"/>
<path d="M52.3516 27.8109L52.5117 27.8578C52.4648 27.807 52.4102 27.7602 52.3516 27.8109Z" fill="black"/>
<path d="M34.1998 7.08786L32.6607 5.56446C28.7271 9.31446 27.4693 15.0762 29.4888 20.1195C31.5083 25.1664 36.3911 28.4711 41.8248 28.4711C47.2584 28.4711 52.1408 25.1664 54.1608 20.1195C56.1764 15.0765 54.9225 9.31446 50.9889 5.56446L49.4498 7.08786C48.8287 7.68552 47.8443 7.6777 47.235 7.06833C46.6257 6.45896 46.6178 5.47453 47.2155 4.85353L48.4186 3.65043V3.64652C44.3366 1.30272 39.3131 1.30272 35.2276 3.64652L36.4346 4.85352C37.0322 5.47461 37.0244 6.45902 36.4151 7.06832C35.8057 7.67762 34.8208 7.68552 34.1998 7.08786ZM45.8208 13.4121C45.8364 12.5488 46.5435 11.8613 47.4067 11.8613C48.27 11.8613 48.9731 12.5527 48.9887 13.416V14.6855V14.6816C48.9731 15.5448 48.27 16.2363 47.4067 16.2363C46.5434 16.2363 45.8364 15.5448 45.8208 14.6816V13.4121ZM37.8286 13.4121V14.6816C37.813 15.5448 37.106 16.2363 36.2427 16.2363C35.3795 16.2363 34.6763 15.5449 34.6568 14.6816V13.4121C34.6763 12.5488 35.3795 11.8613 36.2427 11.8613C37.106 11.8613 37.813 12.5488 37.8286 13.4121Z" fill="black"/>
<path d="M64.1953 31.7392L52.5273 27.8564C54.039 29.1494 55.3007 30.708 56.25 32.4541L63.2109 34.7549C65.2656 35.3682 67.4687 34.4698 68.5078 32.5987L78.9378 15.3797C79.3871 14.6258 79.141 13.6531 78.391 13.2039C77.6371 12.7508 76.6644 12.9969 76.2113 13.7469L65.7973 30.9459C65.5238 31.5631 64.8477 31.8955 64.1953 31.7392Z" fill="black"/>
<path d="M82.9018 33.3736C82.1479 32.9282 81.1752 33.1704 80.7143 33.9126L70.2803 51.1156C70.003 51.725 69.3311 52.0531 68.6787 51.893L56.4717 47.85C51.4873 58.272 36.2607 59.92 29.1237 50.8461C28.3698 49.9203 27.7135 48.9164 27.1745 47.85L14.9835 51.893H14.9796C14.3273 52.0531 13.6476 51.7289 13.3624 51.1156L2.93239 33.9126C2.47145 33.1782 1.50269 32.9478 0.760491 33.4009C0.0183005 33.8501 -0.219979 34.815 0.221431 35.565L10.6514 52.749C11.6944 54.6318 13.9053 55.5302 15.9639 54.9052L27.7449 51.0068C19.6629 64.2448 26.5887 87.5028 41.8229 87.5028C51.4791 87.5028 59.3269 77.2298 59.3269 64.6078C59.3738 59.8539 58.1941 55.1703 55.9011 51.0058L67.7131 54.9042C69.76 55.5214 71.9592 54.6229 72.9904 52.748L83.4244 35.56V35.5639C83.8854 34.8139 83.651 33.8334 82.901 33.3725L82.9018 33.3736Z" fill="black"/>
<path d="M15.1413 32.5997C16.1882 34.4786 18.4069 35.377 20.4694 34.7559L27.3991 32.4551H27.3952C28.3444 30.7129 29.61 29.1582 31.1218 27.8731L19.4848 31.7403C18.8207 31.8966 18.141 31.5645 17.852 30.9474L7.43395 13.7484C6.97692 13.014 6.01595 12.7874 5.27375 13.2288C4.53156 13.6741 4.28156 14.6311 4.70734 15.3811L15.1413 32.5997Z" fill="black"/>
<path d="M31.5672 48.8184C33.9344 51.6973 37.407 53.4512 41.1297 53.6465C44.8563 53.8418 48.4891 52.4628 51.1457 49.8456C53.8059 47.2284 55.2395 43.6151 55.0988 39.8886C54.9621 36.162 53.2629 32.662 50.4191 30.2519C50.1809 30.0449 49.9269 29.8379 49.673 29.6504C44.7746 32.291 38.876 32.291 33.978 29.6504C33.7163 29.834 33.4702 30.0723 33.2163 30.2519C27.7397 34.9785 27.0086 43.2014 31.5672 48.8184Z" fill="black"/>
<path d="M59.8355 4.85405L62.0855 7.08845C62.3785 7.39314 62.7808 7.56501 63.2027 7.56501C63.6246 7.56501 64.027 7.39313 64.3199 7.08845C64.6168 6.79157 64.7848 6.38923 64.7848 5.97125C64.7848 5.55327 64.6168 5.15094 64.3199 4.85405L62.0855 2.61575C59.0972 -0.36475 54.4332 -0.85305 50.8945 1.44385H50.8906C51.8437 2.08057 52.7304 2.80715 53.539 3.61575C55.6952 2.70169 58.187 3.18997 59.8355 4.85405Z" fill="black"/>
<path d="M20.4367 7.563C21.3781 7.71534 22.9172 5.606 23.8156 4.8521H23.8117C25.4601 3.188 27.9523 2.6998 30.1047 3.6138C30.9172 2.80521 31.8039 2.0786 32.7531 1.4419C29.214 -0.855003 24.5461 -0.366703 21.5621 2.6138L19.3277 4.8521C18.8863 5.30913 18.7574 5.981 18.9996 6.5669C19.2379 7.15284 19.8 7.54347 20.4367 7.563Z" fill="black"/>
</svg>
