<svg width="100" height="100" viewBox="0 0 100 100" fill="none" xmlns="http://www.w3.org/2000/svg">
<path d="M25.1328 42.6211C24.1523 43.043 19.7969 45.5195 19.293 46.4219L19.3164 46.5313L19.418 46.5703L20.3633 45.9063C21.3594 45.2071 22.3594 44.5313 23.4063 43.9102C23.9336 43.5977 24.5157 43.3672 25.0274 43.0274C25.168 42.9336 25.2149 42.8828 25.25 42.7266C25.211 42.6836 25.1836 42.6406 25.1289 42.625L25.1328 42.6211Z" fill="black"/>
<path d="M61.6836 23.3086L61.3438 23.336C59.4571 23.5899 57.8047 24.6172 56.2891 25.7188C56 25.9258 55.5547 26.1875 55.3359 26.4649C55.2852 26.5313 55.2852 26.5391 55.2578 26.6055C55.2969 26.7461 55.3047 26.7383 55.4297 26.8164C55.5391 26.7696 55.4922 26.8047 55.5664 26.7149C56.8437 25.5118 58.8203 24.418 60.4609 23.8594C60.8554 23.7227 61.5312 23.7031 61.8281 23.418L61.8203 23.3984L61.7695 23.4453L61.6875 23.3047L61.6836 23.3086Z" fill="black"/>
<path d="M61.7812 23.3281L61.8125 23.3984L61.8477 23.3633L61.7812 23.3281Z" fill="black"/>
<path d="M8.24215 40.3047C8.28122 40.0156 8.42574 39.8477 8.49606 39.582C8.52731 39.4531 8.54294 39.332 8.47263 39.2148H8.37107C8.19138 39.3594 8.1406 39.5625 8.05466 39.7695C6.44916 39.2461 4.87106 39.7578 3.42576 40.5C2.39456 41.0313 1.16016 41.7656 0.410156 42.6641C2.16406 41.5391 4.24996 40.3789 6.39066 40.3672C6.8516 40.3672 7.293 40.4531 7.73836 40.5235C7.97273 40.5625 8.10945 40.5 8.24227 40.3008L8.24215 40.3047Z" fill="black"/>
<path d="M40.7343 1.56641C40.7226 1.54688 40.7187 1.51563 40.6991 1.50391C39.5702 2.13672 39.0389 3.25001 38.6952 4.46481C38.4335 5.40622 38.3515 6.43361 38.4413 7.40621C38.4882 7.9023 38.5898 8.42181 38.5429 8.91791L38.5937 8.94916L38.6718 8.90228C38.9765 8.78509 39.246 8.6679 39.5273 8.49212C38.9413 6.74212 39.1874 4.21482 39.996 2.56632C40.1913 2.16788 40.4257 1.87101 40.7421 1.55852L40.7343 1.56641Z" fill="black"/>
<path d="M46.0972 91.2227C46.0386 91.0469 45.9956 90.9844 45.8511 90.875C45.6441 91.4141 45.7183 92.582 45.6519 93.2148C45.5776 93.8632 45.4292 94.5273 45.2573 95.1601C45.1206 95.6679 44.9722 96.1953 44.7651 96.6796C44.5816 97.1132 44.2964 97.5468 44.1909 97.9999C44.148 98.1835 44.1284 98.3905 44.2144 98.5585C44.4448 99.0233 45.3824 99.4335 45.7886 99.789L45.9136 99.9374C45.9565 99.5156 45.2573 98.8124 45.0308 98.4491C45.3003 97.8476 45.5933 97.2655 45.7964 96.6366C46.2612 95.203 46.5972 92.6757 46.0972 91.2264L46.0972 91.2227Z" fill="black"/>
<path d="M30.7579 74.3945C30.7306 74.1484 30.6915 73.8164 30.5079 73.6406C30.2892 74.1875 30.2111 74.7929 30.0783 75.3633C29.9181 76.0391 29.715 76.7031 29.4611 77.3516C29.2228 77.961 28.9298 78.6289 28.5822 79.1836C28.3087 79.625 27.9181 80.0547 27.7228 80.5313C27.6407 80.7384 27.6056 80.9493 27.6954 81.1563C27.8947 81.6094 28.5431 81.8126 28.9142 82.1134C29.0236 82.1876 29.0861 82.2774 29.2189 82.2579C29.1564 81.8946 28.6525 81.4493 28.422 81.1641C29.922 79.2813 31.0158 76.8594 30.754 74.3907L30.7579 74.3945Z" fill="black"/>
<path d="M98.7148 42.9566C98.5156 42.8628 98.3437 42.8784 98.1328 42.9058C96.7695 43.3706 95.4766 43.9839 94.0273 44.1519C93.4765 44.2144 92.9257 44.1831 92.375 44.2066C91.9023 44.23 91.625 44.3628 91.2305 44.5933C92.2657 45.062 93.0703 45.2222 94.2071 45.1831C94.7539 45.1128 95.2774 45.0152 95.8087 44.8784C96.4376 44.7105 98.3868 43.9097 98.8907 43.9956C98.9688 44.0113 99.0625 44.0698 99.1172 44.1167C99.4532 44.3823 99.6993 44.7652 100.004 45.0738C99.7383 44.3745 99.4532 43.2965 98.7227 42.9566L98.7148 42.9566Z" fill="black"/>
<path d="M79.625 26.5581C80.2422 26.1714 80.7969 25.7066 81.3438 25.2339C81.918 25.5113 82.4336 25.9409 82.9493 26.3198C82.8204 26.1089 82.6719 25.9175 82.5196 25.7261C82.1289 25.2925 81.7344 24.6089 81.1876 24.3823C80.6563 24.1635 80.047 24.6596 79.6407 24.9448C78.4962 25.7534 77.3673 26.4448 76.043 26.9331C75.2188 27.2338 74.3672 27.4487 73.5469 27.769C73.8672 27.9448 74.168 28.0268 74.5313 28.0581C76.1758 28.1948 78.2501 27.4213 79.6251 26.5659L79.625 26.5581Z" fill="black"/>
<path d="M14.7581 29.6406C15.7464 29.0156 16.7542 28.3984 17.719 27.7383L17.7073 27.6875C14.0159 29.5703 10.3479 32.6133 5.93026 31.9648C5.5201 31.9062 5.0787 31.8437 4.68416 31.7187C4.18807 31.5625 3.69197 31.3437 3.22326 31.121C2.64123 30.8398 0.63346 29.6288 0.0670602 29.8788C-0.0149708 30.0429 -0.0188778 30.1328 0.0397162 30.3085C0.0631532 30.3789 0.0944032 30.4531 0.121747 30.5195C1.08269 31.8007 3.36005 32.3633 4.87175 32.582C8.74285 33.1367 11.61 31.6289 14.7623 29.6367L14.7581 29.6406Z" fill="black"/>
<path d="M35.0347 76.5078C35.0933 76.8242 35.4019 77.082 35.6206 77.3007C35.8667 77.1797 36.0855 77.0586 36.3042 76.8867C37.4331 76.0195 38.3901 75.0703 39.3081 73.9883C38.7651 73.2383 38.1753 72.4024 37.5347 71.7383C36.9644 72.582 34.8511 75.5313 35.0347 76.5117L35.0347 76.5078Z" fill="black"/>
<path d="M28.3352 12.5781C27.7766 14.2109 27.0618 15.7969 26.386 17.3867C26.1438 17.957 25.8469 18.5351 25.6438 19.1211C25.5891 19.2813 25.4719 19.5703 25.5579 19.7188L25.6555 19.4844C27.9446 14.6133 31.1125 9.38638 29.0969 3.81638C28.6321 2.53518 27.6828 0.68748 26.3508 0.10938C26.2258 0.054692 26.0969 0.027349 25.9641 0C25.9485 0.20312 25.9368 0.39453 25.9993 0.59375C26.2571 1.44922 27.5384 2.80075 28.054 3.72655C29.0852 5.57425 29.347 7.63675 29.0266 9.71875C28.8782 10.6719 28.6438 11.6641 28.3313 12.5743L28.3352 12.5781Z" fill="black"/>
<path d="M28.6953 55.5898C28.3867 56.3398 27.8789 57.0078 27.5039 57.7265C26.8047 59.0703 26.2656 60.4648 25.7617 61.8906C26.1055 61.9414 26.3945 62.0313 26.7148 62.1602C26.8398 62.0313 26.9726 61.9102 27.0937 61.7774C28.0117 60.3555 28.9414 59.0508 30.4375 58.1758C30.2071 57.4648 30.004 56.7266 29.6954 56.0469C29.3829 56.0273 29.0586 56.0508 28.8321 55.7969C28.7774 55.7344 28.7305 55.6641 28.6875 55.5937L28.6953 55.5898Z" fill="black"/>
<path d="M23.4696 29.875C23.6453 29.5391 23.2156 28.3555 23.243 27.875C23.3367 26.0938 25.3368 24.4062 26.9149 23.9023C27.3876 23.75 27.8524 23.6914 28.3133 23.4961C28.4305 23.5742 28.5399 23.6562 28.6531 23.7383L28.7586 23.707C28.825 23.4726 28.7274 23.289 28.6102 23.0859C28.3641 22.6406 26.7157 20.1757 26.3211 20.0703C26.2234 20.043 26.1336 20.0391 26.032 20.0352C25.8445 20.1602 25.7078 20.2891 25.657 20.5234C25.6023 20.7695 25.7429 21.0195 25.8836 21.2109C26.3875 21.8984 27.4891 22.8281 28.1648 23.3906C26.8757 22.8984 25.4773 22.5664 24.1609 23.168C23.3757 23.5234 22.7898 24.1094 22.4851 24.9219C22.0319 26.1328 22.1765 27.5977 22.7116 28.7578C22.8562 29.0625 23.0163 29.3554 23.1843 29.6523C23.2819 29.7734 23.3132 29.8476 23.4694 29.8789L23.4696 29.875Z" fill="black"/>
<path d="M23.1836 29.6484L23.1797 29.6445L23.1719 29.6641C23.1719 29.6641 23.2109 29.7031 23.2227 29.7188C23.207 29.6953 23.1953 29.6719 23.1836 29.6484Z" fill="black"/>
<path d="M19.3666 27.6992C19.7104 27.9648 20.1557 28.1718 20.5346 28.3867C21.2417 28.7929 21.9448 29.2187 22.6596 29.6094C22.8042 29.6875 22.9565 29.7656 23.1206 29.8008L23.1674 29.6602C22.5659 29.0039 20.4799 26.6758 19.851 26.6602C19.6635 26.6602 19.4839 26.7227 19.3042 26.7852C19.1831 26.9453 19.0581 27.0977 19.0971 27.3125C19.1284 27.4727 19.2455 27.6015 19.3666 27.6992Z" fill="black"/>
<path d="M27.4847 65.6289C27.2074 64.8906 26.9808 64.1289 26.7386 63.375C26.6371 63.0625 26.555 62.7031 26.4183 62.4101C26.266 62.0937 25.9769 62.1054 25.6839 62.0117C25.5667 61.8476 25.6019 61.7148 25.6019 61.5156C25.973 59.8398 26.6644 58.0508 27.5667 56.582C27.7503 56.2851 28.3167 55.6093 28.1839 55.25C27.8479 55.332 27.6058 55.7969 27.43 56.0781C26.7815 57.1367 25.0238 60.6328 25.3206 61.8242C25.3323 61.8789 25.3401 61.8906 25.3635 61.9336C25.3635 61.9336 25.3713 61.9336 25.3713 61.9414C25.6292 62.1914 25.5706 62.9219 25.594 63.2773C25.7776 66.2617 26.8752 69 28.2034 71.6445C28.6604 72.5586 29.1448 73.5976 29.9143 74.2812L30.0354 74.0195C30.1604 73.75 30.2581 73.5507 30.512 73.3789C31.2034 72.8828 32.4847 73.1914 33.2581 73.3281C32.6292 72.7265 31.9495 72.1758 31.3167 71.5703C29.5589 69.875 28.344 67.918 27.4847 65.6367L27.4847 65.6289Z" fill="black"/>
<path d="M74.2696 26.7152C73.9141 26.516 73.5508 26.3207 73.1837 26.141C72.8165 25.9574 72.4454 25.7816 72.0704 25.6175C71.6954 25.4496 71.3165 25.2972 70.9337 25.1488C70.5509 25.0003 70.1642 24.8636 69.7735 24.7347C69.3828 24.6058 68.9922 24.4886 68.5977 24.3793C68.2032 24.2699 67.8047 24.1722 67.4063 24.0824C67.0078 23.9925 66.6055 23.9105 66.1993 23.8441C65.7969 23.7738 65.3907 23.7113 64.9805 23.6605C63.9649 23.5316 62.8828 23.4339 61.8672 23.6332C61.9414 23.8832 62.0273 24.1722 62.1836 24.3793C62.5156 24.8089 63.1328 24.8285 63.6289 24.9066C63.8164 24.9417 64.0039 24.9808 64.1914 25.0199C64.375 25.0589 64.5664 25.1058 64.75 25.1488C64.9336 25.1957 65.1211 25.2425 65.3047 25.2972C65.4883 25.348 65.6719 25.4027 65.8555 25.4613C66.039 25.5199 66.2187 25.5785 66.4023 25.6449C66.5859 25.7074 66.7617 25.7738 66.9453 25.8402C67.125 25.9105 67.3008 25.9808 67.4805 26.0511C67.6602 26.1253 67.832 26.2035 68.0078 26.2777C68.1836 26.3558 68.3555 26.4417 68.5273 26.5199C68.6992 26.6058 68.8711 26.6918 69.0391 26.7777C69.2109 26.8675 69.375 26.9613 69.543 27.0511C69.7109 27.1449 69.875 27.2425 70.0391 27.3402C70.2031 27.4417 70.3633 27.5394 70.5273 27.6449C70.6875 27.7503 70.8437 27.8558 71.0039 27.9652C71.1641 28.0746 71.3164 28.1839 71.4726 28.3011C71.6289 28.4183 71.7773 28.5316 71.9297 28.6488C72.7187 29.2738 73.4258 30.0004 74.2188 30.6332C73.9727 29.8597 73.5157 28.7152 73.4805 27.9223C73.4766 27.809 73.4844 27.8285 73.5547 27.7504C73.8477 27.3754 74.125 27.1801 74.2813 26.6996L74.2696 26.7152Z" fill="black"/>
<path d="M25.0899 43.4453C24.3243 44 23.4688 44.457 22.668 44.957C21.7071 45.5546 20.6875 46.3828 19.6172 46.7578C17.8867 46.1914 16.4961 44.9805 15.0195 43.9531C13.7187 43.0429 12.4062 42.1562 11.0586 41.3203C10.2383 40.8125 9.3945 40.2383 8.4336 40.0508C8.48438 40.9063 8.21876 41.8477 8.07422 42.6914C11.1914 42.1992 13.8945 44.4766 16.3008 46.1328C16.9766 46.5976 17.6914 47.1484 18.5039 47.3281C19.2852 47.5039 24.0742 47.0312 25.0117 46.8711C24.9687 46.1211 24.9531 45.3788 24.9961 44.6288C25.0234 44.2343 25.0508 43.8398 25.1016 43.4453L25.0899 43.4453Z" fill="black"/>
<path d="M45.2851 22.3836C44.9023 22.8836 44.6484 23.3836 44.4335 23.9695C45.4765 23.907 46.4882 23.9382 47.5312 24.0007C47.6562 22.196 47.8632 20.0515 47.2265 18.3249C46.4179 16.1374 44.1249 14.6179 42.9531 12.6257C42.7031 12.1999 42.5312 11.7156 42.3477 11.2624C41.9062 10.1608 41.7227 9.52802 42.3008 8.41472C42.2305 8.31707 42.2188 8.30144 42.0977 8.278C41.9805 8.25457 41.8516 8.27019 41.7305 8.278C40.7852 8.49675 39.3164 9.2936 38.4766 9.14519L38.375 9.12957C38.3555 9.12957 38.332 9.12176 38.3125 9.11785C38.6914 9.33269 39.0742 9.53582 39.375 9.86004C40.3203 10.8834 41.0156 12.192 41.9062 13.278C43.0234 14.6374 44.3789 15.8053 45.4414 17.2116C45.7734 17.6531 46.1094 18.1452 46.2695 18.6843C46.4102 19.1531 46.3203 19.5672 46.082 19.9812C45.7578 20.5437 45.2773 21.032 44.8632 21.532C44.6132 21.8367 44.3789 22.161 44.1718 22.5008C43.9648 22.8406 43.7773 23.1883 43.621 23.5516C43.5624 23.6805 43.4218 23.9032 43.4375 24.0399C43.5664 24.0477 43.621 24.0399 43.7265 23.95C44.0898 23.6571 44.3945 22.7977 44.6796 22.3797C45.2929 21.4774 46.1366 20.7859 46.6523 19.8133C46.6953 19.1805 46.5664 18.6024 46.3398 18.0125L46.3828 18.0008C46.7305 18.6258 47.1836 19.493 46.9648 20.2274C46.7265 21.036 45.8007 21.7157 45.289 22.3836L45.2851 22.3836Z" fill="black"/>
<path d="M23.9803 37.2071C24.1404 37.1954 24.3006 37.1603 24.4607 37.1329C24.7264 37.8321 25.3748 39.8829 26.0974 40.1993C26.1131 40.2071 26.1248 40.2071 26.1404 40.2149C26.281 40.1056 26.242 39.9376 26.3318 39.8595C26.4256 39.7774 27.1678 39.6837 27.3357 39.6407C28.2068 39.4063 29.0388 39.0548 29.8396 38.6485C33.699 36.6993 36.9529 33.4024 38.5427 29.3594C38.8669 28.5313 39.1951 27.5899 39.3044 26.7071C39.3513 26.3438 39.3318 25.9298 39.4529 25.586C39.6091 25.4962 39.6951 25.4688 39.7849 25.3126C39.7576 25.1329 39.699 25.0509 39.5544 24.9415C38.7732 24.379 37.5427 24.1251 36.6169 23.9298C36.5115 23.9845 36.5076 24.0157 36.4451 24.1134C36.3747 23.9298 36.4997 23.5314 36.5154 23.3165C36.5583 22.6485 36.0857 22.0392 35.5076 21.7696C34.863 21.4688 33.9412 21.4337 33.242 21.543C32.3123 21.6876 31.4022 21.9532 30.6404 22.5274C31.6756 22.1798 32.7146 21.8282 33.8162 21.797C33.3396 22.0704 32.9881 22.3829 32.8513 22.9415C32.7224 23.461 32.8201 24.047 33.1052 24.4962C33.1365 24.5469 33.1716 24.5977 33.2107 24.6485C33.2498 24.6954 33.2888 24.7422 33.3318 24.7891C33.3748 24.8321 33.4177 24.8751 33.4646 24.9141C33.5115 24.9532 33.5584 24.9922 33.6091 25.0274C33.6599 25.0625 33.7107 25.0938 33.7654 25.1251C33.8201 25.1563 33.8748 25.1836 33.9295 25.2071C33.9841 25.2305 34.0427 25.254 34.1013 25.2735C34.1599 25.293 34.2185 25.3086 34.2771 25.3204C34.3357 25.3321 34.3982 25.3399 34.4568 25.3477C34.5193 25.3555 34.5779 25.3555 34.6404 25.3555C34.7029 25.3555 34.7615 25.3555 34.824 25.3477C34.8865 25.3399 34.9451 25.3321 35.0037 25.3204C35.0623 25.3086 35.1248 25.293 35.1795 25.2774C35.238 25.2579 35.2966 25.2383 35.3513 25.2149C35.406 25.1915 35.4646 25.1641 35.5154 25.1368C35.5701 25.1094 35.6209 25.0743 35.6716 25.043C35.9763 24.836 36.1716 24.5665 36.3396 24.2461C37.2771 24.5196 38.2224 24.836 39.1091 25.25C38.4021 30.0703 36.4607 33.6289 32.5232 36.547C30.617 37.9572 28.4412 38.9259 26.1599 39.5392C25.7107 39.0588 25.4568 38.3165 25.199 37.7189C25.1482 37.6017 25.0818 37.3752 25.0154 37.2814C24.949 37.1955 24.7771 37.1252 24.6794 37.0822L24.6404 37.0002C25.113 36.4963 25.4333 36.0119 25.4021 35.2893C25.3865 34.8752 25.2341 34.4885 24.9919 34.1565C24.5779 33.7541 24.1013 33.4377 23.4997 33.4495C23.0349 33.4573 22.5974 33.676 22.2849 34.0159C22.242 34.0588 22.2029 34.1057 22.1677 34.1565C22.1326 34.2073 22.0974 34.2541 22.0662 34.3049C22.0349 34.3557 22.0037 34.4104 21.9803 34.4651C21.9529 34.5198 21.9295 34.5745 21.9099 34.6331C21.8904 34.6917 21.8709 34.7463 21.8553 34.8049C21.8396 34.8635 21.8279 34.9221 21.8162 34.9846C21.8084 35.0432 21.8006 35.1057 21.7967 35.1643C21.7967 35.2268 21.7928 35.2854 21.7967 35.3479C21.8201 35.8713 22.0701 36.3948 22.4607 36.7424C22.8631 37.0979 23.4607 37.2658 23.9959 37.2346L23.9803 37.2071ZM34.3283 22.4961C34.2814 22.668 34.1525 22.7539 34.0197 22.8555C33.922 22.8125 33.7814 22.7618 33.7033 22.6914C33.5783 22.5821 33.5861 22.5235 33.5822 22.375C33.6798 22.1719 33.8205 22.0743 33.9962 21.9375C34.0783 21.9961 34.1877 22.0664 34.2462 22.1407C34.3244 22.2422 34.3595 22.3672 34.3283 22.4922V22.4961ZM22.6093 34.2581C22.6561 34.0941 22.828 34.0159 22.9647 33.9339C23.0937 33.9378 23.1483 33.9456 23.2577 34.0159C23.3319 34.1527 23.3671 34.1995 23.3241 34.3597C23.2772 34.5277 23.1679 34.6019 23.0429 34.6995C22.8983 34.6683 22.8124 34.6448 22.6874 34.5628C22.6171 34.4456 22.5741 34.3987 22.6171 34.262L22.6093 34.2581Z" fill="black"/>
<path d="M43.3907 86.1016C42.1719 84.8438 41.0313 83.5118 39.8321 82.2383C38.8711 81.2188 37.9454 80.1758 37.0157 79.125C36.1094 78.1055 35.2188 77.1445 34.4805 75.9922C34.8828 75.0235 35.3555 74.0274 35.9102 73.1367C36.2031 72.6641 37.168 71.4805 37.2227 71.0156C37.1445 70.9453 37.1484 70.9375 37.0391 70.9141C35.7071 72.3164 34.5977 74.4336 34.1094 76.2891C34.3516 77.1484 34.7891 77.9414 35.2696 78.6914C35.9219 79.7031 36.6641 80.668 37.3868 81.6328C38.7852 83.5 40.2227 85.3398 41.6056 87.2187C42.422 88.3281 43.1681 89.4882 43.965 90.6132C44.2931 91.078 44.6095 91.5897 44.9923 92.0038C45.2384 91.5545 45.4454 90.8202 45.9532 90.6327C46.1602 90.5545 46.5079 90.6131 46.7306 90.6248C47.2149 90.6873 47.6954 90.7655 48.1837 90.8084C46.5978 89.2303 44.9493 87.7107 43.3868 86.1053L43.3907 86.1016Z" fill="black"/>
<path d="M30.9379 22.5274C30.9301 22.8555 30.8989 23.1758 30.8559 23.5039C30.3207 23.6641 29.5707 23.7969 29.1411 24.1641C29.1411 24.2383 29.1411 24.2813 29.1684 24.3516C29.1762 24.3711 29.1841 24.3868 29.1919 24.4063C28.9223 24.5157 28.5786 24.5 28.2856 24.5469C27.6997 24.6485 27.0395 24.9141 26.5239 25.211C25.2622 25.9297 24.2778 27.2305 24.2817 28.7227C24.2817 29.1836 24.4145 29.7422 24.2895 30.1915C24.227 30.2032 24.1411 30.2149 24.0825 30.2383C23.7153 30.3829 23.9653 30.9336 23.8286 31.2344L23.7075 31.2579C23.4028 31.2032 22.8208 31.0235 22.5473 31.1641C22.1098 31.3868 21.9809 32.2539 21.9028 32.6953C21.7856 33.3438 21.7856 33.9297 21.8598 34.5781C21.977 33.7383 22.1528 32.0664 22.6411 31.4219C22.8832 31.2461 23.3754 31.3985 23.6684 31.3829L23.8363 31.4493C23.9848 31.6602 24.0199 31.9415 24.0746 32.1875C24.7269 32.6954 25.3988 33.1094 25.9965 33.6953C27.1254 30.6015 30.0629 27.582 32.9731 26.0742C32.352 25.3242 31.3286 24.5937 31.0551 23.625C30.9574 23.2852 30.9614 22.875 30.9379 22.5234L30.9379 22.5274Z" fill="black"/>
<path d="M26.0001 38.4262C26.0001 38.4262 26.004 38.4613 26.0079 38.477C26.3009 38.3949 26.5939 38.3168 26.8868 38.2191C31.418 36.3949 35.8204 32.0902 37.7418 27.6021C38.0348 26.9146 38.2653 26.2076 38.4684 25.4888C38.07 25.4928 37.6481 25.4732 37.2496 25.524C33.5035 25.8834 30.9879 27.567 28.648 30.4107C26.7496 32.7154 25.6792 35.3951 25.9996 38.4302L26.0001 38.4262Z" fill="black"/>
<path d="M55.3979 29.5981C55.5854 28.9379 55.6323 28.3364 55.2846 27.7114C54.4916 26.2895 52.2143 25.5161 50.7221 25.1255C48.8002 24.6176 46.1244 24.2856 44.1323 24.434C43.1245 24.4887 40.8003 24.7739 40.1909 25.6684C40.105 25.7934 39.6128 28.5981 39.4526 29.1489C37.9604 34.4067 33.6674 38.2544 28.5736 39.9539C27.765 40.2235 26.89 40.3797 26.1244 40.743C24.8861 43.8719 25.4994 49.5594 26.8393 52.626C27.3432 53.7783 28.0581 54.5752 29.0581 55.3252C31.0425 54.8721 33.105 54.1846 34.9136 53.2432C43.062 48.7315 52.8086 38.7082 55.3936 29.5982L55.3979 29.5981ZM45.5815 28.7856C46.2495 27.7661 47.1831 27.0668 48.3784 26.8208C48.851 26.7739 49.4253 26.9145 49.8159 27.1801C50.2299 27.4614 50.4643 27.9028 50.5581 28.391C50.7221 29.2582 50.4136 30.1801 49.9331 30.8949C49.2964 31.8402 48.3433 32.5433 47.2183 32.7621C46.6987 32.8129 46.1831 32.7621 45.7222 32.5004C45.3081 32.2621 45.0503 31.8676 44.9448 31.4027C44.7417 30.5043 45.0894 29.5355 45.5738 28.7855L45.5815 28.7856ZM33.1715 49.4736C32.5504 50.415 31.7067 50.9619 30.609 51.1884C30.066 51.2079 29.5192 51.1259 29.0582 50.8173C28.5074 50.4462 28.1949 49.829 28.0933 49.1806C27.9254 48.1494 28.2809 47.1259 28.8902 46.2939C29.527 45.4189 30.3394 44.8759 31.4136 44.708C31.8863 44.6767 32.3277 44.7587 32.7378 45.0087C33.2886 45.3486 33.6324 45.9306 33.7612 46.5595C33.9683 47.5634 33.7339 48.6142 33.1714 49.4697L33.1715 49.4736ZM34.5309 46.3486C34.8317 46.0087 35.3082 45.7275 35.6676 45.4423C36.3082 44.9501 36.9293 44.4306 37.5231 43.8798C38.7653 42.7353 39.9215 41.4892 41.07 40.2548C42.3552 38.872 43.6481 37.4814 44.7927 35.9736C45.2107 35.4228 45.9568 34.1416 46.3474 33.7548C46.4372 33.6689 46.5544 33.6103 46.6638 33.5595C46.7536 33.6376 46.781 33.7079 46.7966 33.8212C46.8474 34.2079 46.7536 34.6142 46.6716 34.9892C46.2654 36.8954 45.3083 38.5595 44.1599 40.1181C44.0427 40.2783 43.9294 40.4345 43.8044 40.5908C43.6834 40.747 43.5623 40.8994 43.4334 41.0517C43.3044 41.2041 43.1794 41.3525 43.0466 41.5009C42.9138 41.6494 42.7849 41.7939 42.6482 41.9384C42.5115 42.083 42.3747 42.2197 42.2341 42.3603C42.0935 42.5009 41.9529 42.6338 41.8044 42.7666C41.6599 42.9033 41.5154 43.0283 41.363 43.1611C41.2107 43.29 41.0622 43.415 40.9099 43.54C40.7576 43.665 40.6013 43.7822 40.4411 43.9033C40.281 44.0244 40.1247 44.1377 39.9607 44.2509C39.7966 44.3642 39.6365 44.4736 39.4685 44.583C39.3005 44.6924 39.1365 44.7939 38.9685 44.8955C38.7966 44.997 38.6286 45.0947 38.4568 45.1924C38.2849 45.29 38.113 45.3799 37.9372 45.4736C37.7615 45.5634 37.5857 45.6533 37.406 45.7353C37.2263 45.8213 37.0505 45.9033 36.8669 45.9775C36.1755 46.2822 35.4646 46.5986 34.7107 46.7119C34.6092 46.5947 34.5193 46.5166 34.5115 46.3525L34.5309 46.3486Z" fill="black"/>
<path d="M88.4259 40.632C85.7579 38.4914 83.2423 36.175 80.5782 34.0265C79.7579 33.3663 78.6837 32.3937 77.7501 31.9249C77.5743 31.835 77.4415 31.8194 77.2501 31.8546C76.1915 32.046 74.6642 33.0343 73.6837 33.5538C72.8751 33.9756 72.0665 34.3936 71.2579 34.8077C69.8556 33.9249 68.461 33.0186 67.004 32.2257C66.3126 31.8585 65.6056 31.5108 64.8907 31.1905C64.1759 30.8702 63.4493 30.5772 62.711 30.3038C61.9727 30.0342 61.2305 29.7881 60.4766 29.5694C59.7227 29.3506 58.961 29.1553 58.1954 28.9913C57.9532 28.9366 56.4415 28.6788 56.3556 28.5889C56.34 28.5733 56.297 28.3975 56.2892 28.3624C56.2775 28.292 56.2736 28.2139 56.2697 28.1475C56.6212 27.9639 57.5314 28.1749 57.9494 28.1749C58.7423 27.1983 59.7424 26.4718 60.7932 25.7921C61.2775 25.4835 61.7697 25.1905 62.2112 24.8194C62.1994 24.8038 62.1877 24.7881 62.176 24.7686C62.0119 24.5264 61.9377 24.21 61.7619 23.9874C61.6955 23.9796 61.633 23.9717 61.5705 23.9756C59.4182 24.7374 57.4846 25.8623 55.551 27.0576C56.3596 28.831 55.9378 30.3115 55.2854 32.0615C54.3909 34.4482 53.1018 36.6474 51.7346 38.792C51.0666 39.835 50.3557 40.8506 49.6448 41.874C49.0901 42.6709 48.555 43.4834 47.926 44.2256C44.7112 48.0147 38.6643 52.3545 34.125 54.4096C32.8633 54.98 31.6016 55.4838 30.25 55.7768C30.7109 57.6166 31.2656 59.4799 31.9766 61.2377C33.5508 65.1361 35.7735 68.6869 38.3243 72.0107C38.9649 72.8467 39.6055 73.7099 40.3165 74.4912C40.6876 74.9014 41.0665 75.3037 41.4532 75.6982C41.8399 76.0927 42.2305 76.4834 42.6329 76.8662C43.0313 77.2491 43.4415 77.6241 43.8517 77.9874C44.2658 78.3545 44.6837 78.7139 45.1134 79.0654C45.5392 79.417 45.9728 79.7608 46.4064 80.0966C46.8439 80.4326 47.2892 80.7607 47.7384 81.081C48.1876 81.4013 48.6447 81.7138 49.1056 82.0146C49.5665 82.3193 50.0314 82.6123 50.504 82.9013C53.8399 84.9052 58.1954 87.0927 62.125 87.3544C63.4766 87.4443 64.8867 87.2802 66.2031 86.9521C69.7695 86.0615 72.9179 84.2333 75.8047 82.0029C73.2852 85.3154 69.3281 87.3037 65.2577 87.8545L64.9335 87.8975C66.1523 88.0029 67.3983 87.9483 68.621 87.8818C74.203 87.5772 79.562 86.0224 84.254 82.9482C84.8087 82.585 85.3985 82.2256 85.9181 81.8193C85.0157 81.1826 84.2423 80.3466 83.3947 79.6357C80.8791 77.5146 78.3869 75.3701 75.9064 73.2021C71.297 69.3037 66.7228 65.3583 62.1834 61.3781C60.4178 59.8312 58.6326 58.3273 56.9022 56.7375C55.285 55.2453 53.6561 53.7687 52.1288 52.1828C51.6678 51.7102 51.2225 51.2297 50.7968 50.7297C50.3476 50.2063 49.9062 49.6047 49.3554 49.1867C48.7538 48.7258 47.9413 48.5149 47.1992 48.6399C44.9922 49.0266 43.0234 50.7883 41.1992 52.0032C40.082 52.7571 38.9336 53.4602 37.7578 54.1165C36.8476 54.6243 35.9414 55.0852 34.9922 55.5071C34.7305 55.6243 34.1211 55.8157 33.961 56.0344C33.8946 56.1203 33.8907 56.136 33.9102 56.2414C34.4297 56.7024 35.293 57.0071 35.9375 57.257C38.4102 58.2141 40.957 58.9093 43.6328 58.7492C46.5625 58.5656 48.4375 57.3937 51.0312 56.3469C51.9492 55.9719 52.9062 55.6985 53.8671 55.4563C53.2226 55.9993 52.4609 56.3626 51.7733 56.8391C51.0585 57.3391 50.3671 57.8743 49.6249 58.3313C47.328 59.7532 44.8749 60.2297 42.1952 59.9836C39.414 59.7336 36.3358 58.6867 33.953 57.2336C34.6132 60.4484 36.2538 63.4953 37.9921 66.2453C39.1444 68.0695 40.3202 69.8586 41.6562 71.5539C44.7382 75.4406 49.5898 79.8977 53.7032 82.6129C55.2384 83.6207 56.8204 84.5504 58.4571 85.3941C57.0782 84.9605 55.7696 84.2261 54.4923 83.5621C53.3204 82.9527 52.1368 82.316 51.0235 81.5973C44.8907 77.6403 39.0235 71.5313 35.6215 65.0423C34.0121 61.9759 33.0824 58.8275 32.477 55.4251C37.1801 53.6634 41.3051 50.8899 45.18 47.7376C45.93 47.1282 46.555 46.3665 47.3167 45.7767C48.18 46.2181 49.6019 47.7103 50.3753 48.429L57.7776 55.4329C60.7581 58.2493 63.8362 60.9759 66.8518 63.7571C69.6096 66.3157 72.4065 68.8352 75.2307 71.3157C76.051 72.0227 76.8479 72.7688 77.6838 73.4524C76.8986 72.4915 75.9065 71.6477 75.0041 70.7962C73.4729 69.3509 71.9299 67.9095 70.3869 66.4837L62.9221 59.5462C59.8049 56.6829 56.6565 53.8587 53.6018 50.9251C52.7112 50.0579 51.8088 49.2103 50.887 48.3743C50.1175 47.6712 49.2425 46.9837 48.5979 46.1595C48.2932 45.7689 48.1643 45.3001 48.0471 44.8314C48.4885 44.1634 49.0002 43.5423 49.469 42.8861C50.6604 41.2259 51.8596 39.5189 52.926 37.7767C54.3205 35.4095 55.3635 33.472 56.0783 30.7962C57.09 30.8665 58.0978 31.0853 59.0939 31.2884C60.8712 31.6439 62.7033 32.0853 64.3947 32.7415C65.7189 33.261 66.9924 33.9524 68.2345 34.6477C68.8712 35.0032 69.504 35.3743 70.1251 35.7571C70.7462 36.1399 71.3634 36.5384 71.9689 36.9485C72.5744 37.3587 73.172 37.7844 73.758 38.2219C74.344 38.6594 74.9221 39.1086 75.4885 39.5657C76.0549 40.0266 76.6135 40.4993 77.1604 40.9837C77.7112 41.472 78.2424 41.9642 78.7698 42.4759C79.2972 42.9876 79.8089 43.5032 80.3128 44.0345C80.8167 44.5658 81.305 45.1048 81.7894 45.6595C83.2972 47.39 84.2777 48.7923 85.4964 50.7337C85.7464 51.1321 86.1019 51.5696 86.2581 52.011C85.8753 51.7063 85.2386 50.6126 84.8831 50.1438C84.391 49.511 83.8792 48.8977 83.344 48.304C80.1135 44.6673 75.9846 40.9642 71.832 38.4212C72.3125 39.4056 72.6914 40.4329 73.0742 41.4564C74.7265 45.8705 75.7656 50.808 74.164 55.4054C73.4922 57.3429 72.3476 58.9171 71.0429 60.464C70.6875 60.8859 70.3281 61.3351 69.9257 61.7062C70.7734 60.3429 71.5819 58.9601 72.2304 57.4874C74.0546 53.3233 74.2499 48.796 73.2226 44.4014C72.9453 43.2139 72.6015 42.0381 72.2734 40.8702C72.0195 39.964 71.7812 39.0304 71.4414 38.1554C70.875 37.7335 70.2422 37.3742 69.6406 37.0031C67.625 35.7648 65.4375 34.4797 63.1875 33.7179C65.2148 37.0499 66.6445 40.0499 67 43.9909C67.1328 45.4245 67.1054 46.8698 66.7695 48.2761C66.1718 50.7644 64.3398 53.0105 62.7929 55.0027L62.8242 54.9207C63.3671 53.5379 64.1523 52.2488 64.6992 50.8543C65.1484 49.6981 65.5429 48.5145 65.7617 47.2918C66.4648 43.3973 65.4882 39.4051 63.9453 35.8228C63.6328 35.0962 63.3085 34.3775 62.9843 33.6548C61.3398 32.9751 58.2382 32.0571 56.4765 31.8736C58.5077 34.5611 60.0507 38.2252 59.5859 41.6392C59.289 43.8189 58.1562 45.7369 57.1523 47.647C56.7968 48.3227 56.4883 49.0259 56.1093 49.6861C56.1367 48.854 56.1992 48.0416 56.371 47.2291C56.664 45.8814 57.1875 44.608 57.6054 43.2994C58.3008 41.108 58.3828 38.6314 57.6836 36.4283C57.3672 35.4322 56.8711 34.4752 56.4375 33.526C55.7187 35.1041 54.5469 37.1471 53.6016 38.6119C52.3204 40.6002 49.6368 43.0064 50.6211 45.6314C50.6289 45.6509 50.6328 45.6665 50.6406 45.6861C50.789 46.0454 50.9961 46.3462 51.2539 46.6314C52.1718 47.6431 53.3008 48.5259 54.3281 49.4283C55.0312 50.0533 55.7031 50.7095 56.414 51.3345C57.8984 52.6353 59.3984 53.8814 60.8281 55.2447C61.7148 56.0923 62.6523 56.8931 63.5195 57.7525C65.289 59.5181 66.957 61.3853 68.6992 63.1744C71.8125 66.315 74.8867 69.4947 77.9258 72.7056L83.4961 78.5611C84.3633 79.4634 85.332 80.5767 86.2617 81.3736C86.3945 81.1509 86.5195 80.9204 86.6445 80.6939C86.7695 80.4673 86.8906 80.2329 87.0078 80.0025C87.1289 79.772 87.2421 79.5376 87.3554 79.3032C87.4687 79.0689 87.5781 78.8306 87.6875 78.5962C87.7968 78.3618 87.8984 78.1197 88 77.8814C88.1015 77.6431 88.1992 77.4009 88.2968 77.1587C88.3945 76.9165 88.4843 76.6704 88.5742 76.4282C88.664 76.1861 88.7539 75.9361 88.8359 75.6939C88.9218 75.4517 89.0039 75.1978 89.0781 74.9517C89.1562 74.7056 89.2343 74.4517 89.3007 74.2017C89.375 73.9517 89.4453 73.6978 89.5078 73.4478C89.5742 73.1978 89.6367 72.94 89.6953 72.69C89.7578 72.436 89.8125 72.1821 89.8672 71.9282C89.9218 71.6743 89.9726 71.4165 90.0195 71.1626C90.0664 70.9087 90.1132 70.647 90.1562 70.3931C90.1992 70.1392 90.2382 69.8775 90.2734 69.6196C90.3086 69.3618 90.3398 69.1001 90.3711 68.8423C90.3984 68.5845 90.4258 68.3228 90.4492 68.065C90.4726 67.8071 90.4922 67.5454 90.5078 67.2837C90.5234 67.0259 90.539 66.7603 90.5468 66.5025C90.5586 66.2446 90.5625 65.979 90.5664 65.7212C90.5703 65.4634 90.5703 65.1978 90.5664 64.94C90.5664 64.6821 90.5586 64.4165 90.5508 64.1587C90.5429 63.9009 90.5312 63.6353 90.5156 63.3775C90.5 63.1196 90.4804 62.8579 90.4609 62.5962C90.4375 62.3384 90.414 62.0767 90.3867 61.8189C90.3593 61.5611 90.3281 61.2993 90.2929 61.0415C90.2578 60.7837 90.2226 60.522 90.1797 60.2681C90.1406 60.0103 90.0937 59.7525 90.0468 59.4986C90 59.2446 89.9492 58.9868 89.8984 58.7329C89.8437 58.479 89.789 58.2212 89.7304 57.9712C89.6718 57.7173 89.6093 57.4634 89.5468 57.2134C89.4453 56.8423 89.3398 56.4751 89.2226 56.1118C89.4375 61.2915 88.2383 65.522 85.4335 69.8778C84.8437 70.7958 84.2421 71.7723 83.5351 72.6122C84.0976 71.495 84.7265 70.4091 85.2812 69.288C87.082 65.6474 88.2851 61.9403 88.6015 57.878C88.7031 56.6007 88.7812 55.1319 88.3671 53.9053C87.5546 51.4873 85.9531 48.7412 84.4492 46.6826C83.7148 45.6748 82.8827 44.7412 82.0585 43.8115C79.7343 41.1865 77.2147 38.5927 74.2499 36.6826C75.4491 35.9678 77.2616 34.8662 78.1601 33.8232C77.7891 33.3857 77.3867 32.9834 76.9062 32.667C76.2305 33.0498 75.5938 33.5029 74.9258 33.9092C74.0976 34.417 73.2265 34.878 72.4335 35.4365L71.8515 35.1396C72.9453 34.499 74.0663 33.9013 75.1679 33.2724C75.664 32.9912 76.1445 32.6084 76.6601 32.3857C76.6601 32.288 76.6601 32.2607 76.625 32.1748C76.7968 32.1787 76.8906 32.2724 77.0234 32.374C77.6757 32.9013 78.2656 33.5732 78.8789 34.1474C80.8477 35.9951 82.8281 37.9013 84.6758 39.8662C85.6328 40.8857 86.6016 41.9053 87.5313 42.9521C88.2618 43.7685 89.9415 45.9287 90.7305 46.4209L90.836 46.4092C91.0821 45.9599 91.0313 45.0459 91.0664 44.5264C91.4961 44.1748 91.9649 43.8662 92.3516 43.4678C91.0274 42.5303 89.6914 41.6397 88.4219 40.6201L88.4259 40.632ZM38.5819 66.659C38.4335 66.3543 38.2381 66.1199 38.0233 65.866C40.8006 66.8816 43.6717 67.5379 46.6327 67.6238C50.5975 67.7371 53.8983 66.7137 57.2347 64.6121C58.1761 64.0184 59.0941 63.4051 59.9105 62.6355C59.9066 62.7136 59.9105 62.6824 59.8753 62.7683C59.7074 63.1277 59.3246 63.4871 59.0589 63.78C57.4691 65.5261 55.5745 66.9519 53.3675 67.823C50.0902 69.1082 46.1644 69.0457 42.7775 68.1629C41.34 67.7879 39.9494 67.2488 38.5861 66.6551L38.5819 66.659ZM45.6131 75.1824C45.3943 75.1043 45.1873 74.9988 45.0233 74.8269L45.035 74.7449C45.4686 74.7019 46.4491 74.991 46.9373 75.0691C47.7849 75.2058 48.6365 75.2918 49.4959 75.3347C57.1326 75.6746 61.8909 74.0339 67.5469 68.8503L67.582 68.9089C67.3477 69.3699 66.9805 69.7761 66.6406 70.1667C65.1211 71.9128 63.25 73.4558 61.1758 74.4987C56.4024 76.8971 50.6138 76.8307 45.6098 75.1784L45.6131 75.1824ZM53.0467 81.741C52.7889 81.6004 52.5506 81.4246 52.3162 81.2527C53.4881 81.4793 54.6482 81.6511 55.8357 81.741C61.863 82.1941 67.1017 80.8894 71.9687 77.241C72.5742 76.784 73.1289 76.2762 73.7031 75.7801L73.7344 75.8113C73.5391 76.1278 73.2539 76.409 73.0078 76.6941C71.6523 78.2449 70.0312 79.659 68.2148 80.6395C63.5664 83.1511 58.0308 83.2253 53.0388 81.7371L53.0467 81.741ZM80.0037 63.882C79.1092 65.2922 77.949 66.5539 76.8279 67.7843C76.6365 67.9991 76.4451 68.2062 76.2224 68.3937C77.1404 67.0812 78.0154 65.7882 78.7888 64.382C81.5349 59.3898 81.9372 53.612 80.7849 48.101C80.5857 47.1478 80.3045 46.2143 80.0349 45.2807C80.0818 45.3119 80.0974 45.3158 80.1443 45.3627C80.8591 46.0971 81.8162 50.183 81.9998 51.3471C82.1365 52.2182 82.1951 53.1088 82.2381 53.9916C82.3982 57.3549 81.8357 60.9994 80.0076 63.8861L80.0037 63.882Z" fill="black"/>
</svg>
