<svg width="88" height="90" viewBox="0 0 88 90" fill="none" xmlns="http://www.w3.org/2000/svg">
<path d="M71.7664 51.5801C72.9226 54.5254 71.3641 59.4317 67.5516 58.1973C64.6219 57.2207 62.5204 52.709 63.5633 49.5059C65.3485 44.5371 70.6688 47.4082 71.7 51.3809L71.7625 51.5801L71.7664 51.5801ZM87.2274 45.9824C86.7196 46.2011 86.1336 45.9667 85.911 45.4628L84.8485 43.0058C83.6415 43.5996 82.3563 44.2363 81.0751 44.8691C79.7782 45.5097 78.4853 46.1503 77.2704 46.748C77.7236 47.8418 78.1181 49.0527 78.4384 50.4082C80.3837 58.6465 77.1884 66.2912 77.0478 66.6152C76.9385 66.873 76.7236 67.0762 76.458 67.166C76.3525 67.2051 76.2393 67.2207 76.1299 67.2207C75.9658 67.2207 75.8018 67.1777 75.6533 67.0996L69.5556 63.7832C68.2665 63.8262 63.4306 63.6504 60.1767 59.3223C59.5712 59.2754 59.1611 58.8848 58.9658 58.6895C58.9541 58.6778 58.9424 58.6661 58.9268 58.6543C58.9033 58.6856 58.8838 58.7168 58.8643 58.7442C58.5478 59.2012 58.1182 59.8301 57.3487 59.9278C57.3057 59.9317 57.2705 59.92 57.2315 59.9239C57.7549 60.6973 58.2002 61.5606 58.4581 62.002C59.0362 63.002 59.5753 64.1192 59.6104 65.3497C59.626 65.8419 59.5283 66.3458 59.3486 66.7872L61.337 70.463C61.4854 70.7403 61.4971 71.0724 61.3682 71.3575C61.2354 71.6427 60.9776 71.8497 60.669 71.9161C60.6377 71.9239 59.6807 72.1622 59.1885 73.1192C59.0127 73.4629 58.6611 73.6622 58.2979 73.6622C58.1416 73.6622 57.9854 73.627 57.8408 73.5489C57.3486 73.295 57.1572 72.6934 57.4111 72.2012C57.8565 71.3418 58.5009 70.795 59.0634 70.459L57.7782 68.084C57.2782 68.0684 56.79 67.7871 56.4188 67.3613C55.9891 66.8652 55.6962 66.2129 55.4462 65.5527C54.9891 64.3457 54.079 61.8457 54.2509 60.0918C54.1454 60.1153 54.0438 60.1504 53.9267 60.1504H53.9188C53.204 60.1465 52.7313 59.6114 52.3876 59.2207C52.3525 59.1778 52.3056 59.127 52.2626 59.0801C52.2158 59.1153 52.1689 59.1543 52.1298 59.1856C51.7158 59.5176 51.1455 59.9746 50.4189 59.8457C50.3525 59.834 50.3017 59.7989 50.2432 59.7793C50.7978 61.6074 51.0791 63.5137 51.0361 65.4238C51.0205 66.1348 50.958 66.8691 50.6299 67.5019C50.626 67.5097 50.6182 67.5176 50.6143 67.5254C52.7588 69.6895 54.1298 72.627 54.3251 75.6699C54.3525 76.0917 54.3252 76.5488 54.2236 76.9668C54.2431 77.0175 54.2744 77.0605 54.2861 77.1152C54.4892 78.1699 55.0791 79.1699 55.9033 79.8613C56.1259 80.0449 56.2549 80.3183 56.2627 80.6035C56.2705 80.8926 56.1533 81.1699 55.9424 81.3652L53.1455 83.9433C52.9541 84.123 52.708 84.2089 52.4658 84.2089C52.1962 84.2089 51.9267 84.0996 51.7314 83.8886C51.3564 83.4824 51.3837 82.8495 51.79 82.4745L53.8212 80.6034C53.2431 79.9277 52.8095 79.1425 52.5321 78.2987C52.2235 78.2519 51.9188 78.1269 51.6649 77.9394C51.204 77.5995 50.8836 77.1073 50.5985 76.6113C49.2196 74.1855 48.5829 71.3535 48.7665 68.5722C48.1142 68.4589 47.5751 67.9315 47.3212 67.3105C47.0439 66.6347 47.0321 65.8808 47.0282 65.1503C47.0087 63.1347 46.6884 60.8261 46.954 58.7948C46.2821 58.4862 46.0868 57.7831 45.9462 57.2675C45.9306 57.2089 45.911 57.1346 45.8876 57.0643C45.8212 57.0722 45.7509 57.0839 45.6923 57.0917C45.5165 57.119 45.3212 57.1464 45.1181 57.1581C45.2001 60.4667 42.4658 65.9862 40.7704 67.8961C40.4774 68.2672 40.1024 68.5719 39.6962 68.8023C40.1337 69.4781 40.4423 70.3179 40.6298 70.8453C41.5516 73.4273 41.8954 76.2125 41.6259 78.943C41.5556 79.6696 41.3524 80.4821 40.9227 81.0368L42.3836 84.2985C42.5633 84.7009 42.4579 85.1735 42.1258 85.4626C40.9149 86.5134 39.9774 87.861 39.411 89.361C39.2587 89.7634 38.8798 90.0095 38.4735 90.0095C38.3563 90.0095 38.2353 89.9899 38.122 89.9431C37.6064 89.7478 37.3446 89.1696 37.5399 88.654C38.1337 87.0798 39.0672 85.6423 40.2665 84.4587L38.9423 81.5017C38.6884 81.3806 38.4502 81.2126 38.2548 81.0095C37.8213 80.5446 37.5673 79.9392 37.3564 79.3376C36.3525 76.486 36.1103 73.3728 36.6259 70.3962C36.6923 70.0212 36.7744 69.4938 36.9384 69.0056C36.4267 68.7361 36.0205 68.2478 35.8329 67.49C35.3876 64.3767 38.1962 61.6502 40.0165 59.5252C40.704 59.0057 41.286 57.7361 41.9423 56.701C39.3485 57.4666 36.9618 59.0135 35.0868 61.201C33.497 62.783 32.0243 65.3221 30.4657 68.0096C27.536 73.0604 24.2196 78.7796 19.2937 79.2436C19.2625 79.2475 19.2312 79.2475 19.2 79.2475C19.1219 79.2475 19.0476 79.2397 18.9734 79.2201C11.5593 77.4935 14.5515 62.9081 14.9148 61.2511C16.5554 51.5636 25.1608 41.7861 40.6648 41.6301C40.5359 41.4583 40.4109 41.2708 40.3133 41.0559C38.3836 41.1848 35.9852 41.3372 32.9969 41.5247C30.8836 41.6575 28.8953 41.72 27.0399 41.72C6.24687 41.72 1.04386 34.0598 0.812864 33.7044C0.769895 33.6458 -0.659837 31.5442 0.375363 29.0052C1.56676 26.0794 5.45346 23.9661 11.9304 22.7161C17.2702 21.6888 23.7744 22.8997 30.0204 24.9309C29.5516 24.0715 29.1297 23.1887 28.7587 22.2786C28.7391 22.2356 28.7196 22.1926 28.704 22.1419C27.3212 18.7435 26.6024 15.0638 26.5946 11.3919C26.5946 11.345 26.5907 11.302 26.5946 11.2591C26.6024 9.05595 26.8563 6.86065 27.3875 4.73955C27.7391 3.33725 28.4031 1.37235 30.1258 0.466153C30.1337 0.462247 30.1415 0.462247 30.1493 0.458341C30.1532 0.454434 30.1571 0.450528 30.161 0.450528C30.1727 0.446622 30.1844 0.446622 30.1962 0.442715C31.3134 -0.119785 32.7274 -0.151036 34.0946 0.376308C35.2548 0.821618 36.2079 1.55991 37.0829 2.28251C46.2782 9.82551 53.2159 20.1655 56.7589 31.5205C56.9971 31.3721 57.2706 31.2666 57.5948 31.2861C58.3448 31.3213 58.7901 31.915 59.1104 32.3447C59.1299 32.3682 59.1495 32.3955 59.169 32.4229C59.212 32.3916 59.2549 32.3643 59.2901 32.3369C59.7159 32.0322 60.294 31.6221 60.9932 31.8096C61.7315 32.0088 62.0323 32.6924 62.251 33.1885C62.2666 33.2197 62.2783 33.2549 62.2979 33.29C62.3525 33.2705 62.4033 33.251 62.4502 33.2314C62.9424 33.0439 63.6104 32.7861 64.2432 33.1533C64.9073 33.5439 65.0166 34.2861 65.0909 34.8291C65.0948 34.8643 65.1026 34.9033 65.1065 34.9424C65.169 34.9385 65.2276 34.9346 65.2823 34.9268C65.8018 34.8838 66.5167 34.8252 67.0167 35.3565C67.5518 35.9229 67.4424 36.6768 67.3643 37.2276C67.3604 37.2627 67.3526 37.3018 67.3487 37.3408C67.4307 37.3604 67.5128 37.376 67.5792 37.3916C68.0714 37.4932 68.7472 37.6299 69.0636 38.251C69.4229 38.9541 69.2667 39.5205 69.0558 39.9112C70.8605 40.0714 72.4347 40.6846 73.7785 41.7628C76.2355 38.6456 79.2043 35.0714 79.3762 34.8644C79.6847 34.4933 80.216 34.3957 80.6418 34.6339C81.1261 34.9113 83.5871 36.3175 84.2707 36.8956C84.6925 37.2511 84.7472 37.8839 84.3917 38.3058C84.0363 38.7277 83.4035 38.7824 82.9815 38.4269C82.6456 38.1457 81.4112 37.3957 80.3838 36.7941C79.3682 38.0246 77.1065 40.7785 75.2197 43.1808C75.6533 43.7082 76.0479 44.3019 76.4189 44.9503C77.6259 44.3566 78.9111 43.7198 80.2041 43.0792C81.833 42.2745 83.458 41.4698 84.9268 40.7511C85.1729 40.63 85.4581 40.6144 85.712 40.7082C85.9698 40.8019 86.1768 40.9972 86.2862 41.2511L87.7667 44.673C87.9855 45.1808 87.7511 45.7668 87.2472 45.9894L87.2274 45.9824ZM30.3604 20.9044L35.1182 21.1739L33.8838 16.127L28.6533 13.1622C28.833 15.8106 29.4113 18.4317 30.3604 20.9044ZM47.1024 26.5685L41.5985 16.5958L36.7977 14.9552L35.8642 15.8106L37.2704 21.5684L47.1024 26.5685ZM32.0164 2.00945L37.2781 13.0055L41.1375 14.3258L40.5204 8.14995C39.0282 6.62655 37.4618 5.17725 35.8173 3.82965C35.0673 3.21246 34.2587 2.58355 33.3798 2.24375C32.9149 2.06406 32.4501 1.99375 32.0204 2.00937L32.0164 2.00945ZM28.6023 10.8337L34.614 14.2439L35.3406 13.5798L30.2664 2.97479C29.7898 3.63885 29.5125 4.52559 29.3367 5.22869C28.8797 7.05679 28.6414 8.94349 28.6062 10.8381L28.6023 10.8337ZM32.9734 25.9507C39.6531 28.4116 45.7434 31.5835 49.4074 33.6343C49.4504 33.603 49.4856 33.5639 49.5324 33.5405C49.5871 33.4585 49.6692 33.3061 49.7239 33.2007C49.9621 32.7514 50.2942 32.1343 50.9778 31.9702C51.6926 31.8061 52.2825 32.2241 52.7122 32.5288C52.7317 32.5444 52.7551 32.56 52.7786 32.5756C52.802 32.5405 52.8254 32.5053 52.8489 32.4741C53.1379 32.0522 53.5325 31.4702 54.2356 31.3921C54.3801 31.3764 54.5129 31.396 54.6457 31.4194C52.1613 23.7788 48.0754 16.6424 42.7787 10.5834L43.267 15.4623L50.4311 28.4463C50.6421 28.8291 50.5796 29.3096 50.2749 29.626C50.0835 29.8252 49.8217 29.9307 49.5561 29.9307C49.4038 29.9307 49.2475 29.8955 49.103 29.8213L36.15 23.2315L31.2555 22.9542C31.6422 23.7511 32.0719 24.5245 32.5446 25.2706L32.9821 25.9464L32.9734 25.9507ZM4.03944 27.6655C7.09804 27.767 12.3441 28.0014 14.4924 28.4467L17.6799 27.2319L15.6252 24.3569C14.4768 24.3803 13.3635 24.478 12.3127 24.6811C8.04324 25.5053 5.51984 26.5952 4.03944 27.6655ZM18.1564 39.1455C18.6291 38.415 19.5236 37.1143 20.5548 35.9697L14.4493 34.165C12.7501 34.2157 9.80484 35.3681 7.71494 36.3056C10.1133 37.4189 13.4966 38.5088 18.1564 39.1455ZM39.1254 34.7197C32.0238 32.1377 21.2424 29.2627 19.3054 28.7509L15.5749 30.1728V32.4111L22.5397 34.4736C25.4889 34.0204 33.5354 34.3876 39.1254 34.7197ZM5.51644 35.1259C6.91874 34.4462 10.8133 32.6454 13.5711 32.2431V30.3056C11.032 29.9072 5.16494 29.6845 2.29814 29.6103C2.27861 29.6494 2.25908 29.6884 2.24346 29.7275C1.60674 31.2509 2.44658 32.54 2.48565 32.5947C2.50908 32.6298 3.31727 33.7705 5.51644 35.1259ZM38.4734 55.9539C39.7039 55.3055 41.0046 54.8133 42.3562 54.5125C42.0398 54.3836 41.7391 54.1805 41.5437 53.825C41.1922 53.1805 41.4578 52.5086 41.6531 52.0203C41.6766 51.9617 41.7039 51.8875 41.7312 51.8172C41.6805 51.7898 41.6258 51.7625 41.5828 51.743C41.0945 51.5008 40.4266 51.1648 40.2469 50.4266C40.075 49.7312 40.4891 49.1532 40.7899 48.7274C40.825 48.6766 40.868 48.618 40.9071 48.5633C40.8641 48.532 40.825 48.4969 40.7899 48.4695C40.368 48.1375 39.7899 47.6844 39.7469 46.9422C39.7078 46.2352 40.2039 45.7391 40.5672 45.3758L40.6961 45.2469C40.6609 45.2118 40.6297 45.1766 40.6023 45.1493C40.2625 44.7977 39.825 44.3173 39.7977 43.6688C37.6532 43.7469 35.6454 44.0086 33.7977 44.4578C33.5164 46.5828 33.4812 51.6726 38.4774 55.9578L38.4734 55.9539ZM28.7351 66.9969C29.2351 66.1375 29.7234 65.2977 30.2117 64.4891C27.6648 63.743 21.0594 61.243 19.2547 55.0047C18.2508 56.7703 17.5477 58.6375 17.1141 60.5164C18.5907 62.6375 22.3016 66.8562 28.5121 67.3719C28.5864 67.2469 28.6567 67.1219 28.7309 66.9969H28.7351ZM23.489 74.7196C24.1258 74.0516 24.739 73.2899 25.3288 72.4657C23.153 72.4501 18.7077 71.8173 16.0671 67.4266C15.9656 69.0594 15.9773 70.7078 16.1843 72.1883C17.446 73.411 19.8132 74.9735 23.4851 74.7195L23.489 74.7196ZM34.766 58.6296C33.059 57.4069 26.9262 52.5749 27.5355 46.8716C26.1214 47.6607 24.8558 48.5708 23.7191 49.5708C24.1723 52.0513 26.0003 57.813 33.1918 60.2938C33.3364 60.1376 33.477 59.9774 33.6215 59.8329C33.9848 59.4071 34.3676 59.0124 34.766 58.6296ZM58.45 56.5827C58.5243 56.5671 58.5907 56.5671 58.6571 56.5593C57.411 53.3054 57.4774 49.2077 58.95 45.7933C60.2586 42.7621 62.45 40.7738 65.118 40.1917C65.6766 40.0706 66.2157 39.9924 66.7391 39.9339C66.8056 39.6839 66.9227 39.4729 67.0321 39.3128C66.5477 39.2112 65.9462 39.0471 65.579 38.5276C65.2196 38.0198 65.3095 37.4182 65.3798 36.9338C65.3798 36.9299 65.3798 36.926 65.3837 36.9182C64.8798 36.9612 64.2626 36.9924 63.7587 36.594C63.2665 36.2033 63.1767 35.5979 63.1103 35.1096C62.6337 35.2932 62.0556 35.4963 61.4619 35.2541C60.872 35.0119 60.622 34.4416 60.4228 33.9885C60.4228 33.9846 60.4189 33.9846 60.4189 33.9807C60.0165 34.2658 59.4774 34.6369 58.829 34.5393C58.1884 34.4416 57.8135 33.9416 57.5127 33.5354C57.5087 33.5276 57.5009 33.5237 57.497 33.5158C57.1572 33.883 56.6923 34.3674 56.0204 34.3947C55.372 34.4104 54.8993 33.9846 54.5282 33.6369C54.5165 33.6291 54.5087 33.6174 54.497 33.6096C54.2118 34.0276 53.8251 34.594 53.1454 34.7151C52.493 34.8284 51.9696 34.4573 51.5477 34.1565C51.5321 34.1448 51.5164 34.1331 51.5008 34.1213C51.4969 34.1292 51.493 34.1331 51.493 34.137C51.4071 34.2932 51.3055 34.469 51.1883 34.6448C52.1766 35.2229 52.8016 35.6096 52.95 35.6995C53.4188 35.9925 53.5633 36.6096 53.2703 37.0784C52.9773 37.5471 52.3602 37.6917 51.8914 37.3987C51.6727 37.262 32.5864 25.4687 18.1294 24.4107L19.8521 26.8209C22.6568 27.5592 40.2271 32.2428 45.2701 35.2076C45.2857 35.2193 45.3053 35.2271 45.3248 35.2388C45.3678 35.2623 45.3912 35.3052 45.4303 35.3326C45.4889 35.3795 45.5475 35.4224 45.5904 35.4771C45.6295 35.5279 45.6529 35.5826 45.6842 35.6412C45.7154 35.6998 45.7467 35.7545 45.7662 35.817C45.7857 35.8873 45.7857 35.9576 45.7936 36.0279C45.7975 36.0787 45.817 36.1217 45.8131 36.1724C45.8131 36.1842 45.8053 36.192 45.8053 36.2037C45.7975 36.2584 45.7779 36.3131 45.7623 36.3677C45.7428 36.442 45.7232 36.5123 45.6881 36.5748C45.6803 36.5865 45.6842 36.5982 45.6764 36.6099C45.6256 36.692 45.567 36.7623 45.5006 36.8248C45.4928 36.8326 45.4771 36.8404 45.4693 36.8482C45.3951 36.9107 45.3131 36.9615 45.2271 37.0005C45.1998 37.0123 45.1725 37.024 45.1451 37.0318C45.0396 37.067 44.9342 37.0943 44.8248 37.0943H44.8209C44.7975 37.0943 44.7701 37.0943 44.7467 37.0904C44.567 37.0748 27.3057 35.7779 22.9267 36.4302C21.9931 37.2466 21.0595 38.4614 20.4072 39.395C23.9033 39.731 28.0205 39.8208 32.8872 39.5161C45.9922 38.6919 47.8012 38.5083 47.8712 38.5005C48.4259 38.4458 48.9142 38.8404 48.9689 39.3911C49.0275 39.9419 48.629 40.4341 48.0822 40.4927C48.0353 40.4966 47.2189 40.5826 42.633 40.8912C42.8869 41.2466 43.1134 41.6646 43.0509 42.1803C42.9689 42.8717 42.422 43.3014 42.0236 43.6178C42.0041 43.6334 41.9846 43.649 41.9611 43.6686C41.9885 43.6998 42.0158 43.7272 42.0432 43.7545C42.4025 44.1256 42.8478 44.5865 42.84 45.2467C42.8322 45.9381 42.34 46.4264 41.9846 46.7858C41.9729 46.7975 41.9572 46.8131 41.9416 46.8288C41.9729 46.8522 42.0002 46.8756 42.0236 46.8952C42.426 47.2077 42.9221 47.5983 43.0119 48.2468C43.1057 48.9187 42.7268 49.4577 42.4182 49.8874C42.4104 49.8952 42.4064 49.9069 42.3986 49.9147C42.426 49.9264 42.4533 49.9421 42.4768 49.9538C42.926 50.1764 43.4807 50.4538 43.7073 51.0515C43.9416 51.6726 43.7034 52.2742 43.5158 52.7546C43.5158 52.7546 43.5158 52.7585 43.5119 52.7585C43.5276 52.7624 43.5432 52.7663 43.5588 52.7663C44.0471 52.8561 44.6486 52.9655 45.0354 53.4577C45.4339 53.9694 45.3948 54.5983 45.3674 55.1061V55.11C45.3753 55.11 45.387 55.1061 45.3948 55.1061C45.8909 55.0319 46.5042 54.9381 47.0354 55.2819C47.5784 55.6334 47.7463 56.2389 47.8791 56.7272C47.883 56.7389 47.887 56.7506 47.887 56.7584C47.8987 56.7506 47.9143 56.7467 47.926 56.7389C48.387 56.5162 48.9572 56.2389 49.5744 56.4264C50.2072 56.6139 50.5314 57.1686 50.7892 57.6139C50.8009 57.6295 50.8087 57.6491 50.8205 57.6686C50.84 57.653 50.8595 57.6373 50.8791 57.6217C51.2814 57.2975 51.7892 56.903 52.4377 56.9538C53.1095 57.0123 53.5432 57.5045 53.8908 57.8991C53.9064 57.9147 53.922 57.9342 53.9415 57.9537C53.9689 57.9264 53.9923 57.8991 54.0158 57.8717C54.3595 57.4889 54.7853 57.0123 55.4416 56.9694C56.1369 56.9342 56.6721 57.3834 57.0588 57.7155C57.0744 57.7311 57.0939 57.7428 57.1095 57.7623C57.1486 57.7077 57.1838 57.653 57.215 57.61C57.4923 57.2038 57.8406 56.7038 58.45 56.5827ZM76.493 50.8639C75.8798 48.2741 75.036 46.2662 73.9383 44.8014C73.5633 45.2936 73.2274 45.7467 72.954 46.1295C72.7587 46.4029 72.4501 46.5475 72.1376 46.5475C71.9344 46.5475 71.7352 46.485 71.5555 46.36C71.1063 46.0397 71.0008 45.4147 71.3211 44.9655C71.6532 44.5006 72.075 43.9382 72.5399 43.3327C70.7352 41.8952 68.4227 41.5202 65.5438 42.1491C63.5204 42.5905 61.8329 44.1686 60.786 46.5905C59.3055 50.0124 59.4696 54.3952 61.1806 57.2425C64.1454 62.18 69.4736 61.7894 69.6962 61.7698C69.7235 61.7659 69.7548 61.7659 69.7821 61.7659C69.9501 61.7659 70.1141 61.8088 70.2626 61.887L75.5907 64.7854C76.3524 62.4963 77.8876 56.7664 76.493 50.8639Z" fill="black"/>
</svg>
