<svg width="18" height="18" viewBox="0 0 18 18" fill="none" xmlns="http://www.w3.org/2000/svg">
<path d="M9.32788 0.0460694C8.51134 0.520441 7.68702 1.07258 6.91714 1.67138L5.50957 0.36491C5.29183 0.224931 5.14407 0.248261 4.94188 0.34158C2.8111 1.95133 1.3802 3.77883 0.633651 5.96406C-0.112901 8.1415 -0.175114 10.6533 0.338141 13.624C0.353694 13.7406 0.423683 13.8495 0.517003 13.9195L5.60289 17.4734C5.75065 17.5823 5.96062 17.5901 6.10837 17.489C6.25613 17.3879 6.33389 17.1935 6.29501 17.0224C6.25613 16.8357 6.22502 16.6569 6.19391 16.4702L6.93269 17.0301C7.07267 17.1312 7.27486 17.139 7.42262 17.0457C7.57037 16.9524 7.65591 16.7657 7.62481 16.5947C7.60148 16.3769 7.79589 15.7392 8.29359 15.0316C8.79907 14.3161 9.56118 13.5151 10.5021 12.7919C12.3841 11.3455 14.927 10.2412 17.4855 10.6456C17.7733 10.6922 18.0532 10.3967 17.991 10.1168L16.4512 2.83009C16.4046 2.6279 16.2024 2.46459 15.9846 2.48014C15.0203 2.54236 13.6361 2.83009 12.1119 3.32001L9.91112 0.170495C9.70893 -0.0239199 9.5534 -0.0316965 9.32788 0.0460694ZM9.42898 1.0337L13.1073 6.29067C11.2487 7.24719 9.52229 8.43701 8.30915 10.039C7.15821 11.5632 6.54386 13.484 6.69162 15.7781L6.03838 15.2804C5.87507 13.4607 6.1006 11.9054 6.68384 10.5289C7.44595 8.7403 8.8224 7.26275 10.7821 5.97961C11.0076 5.83185 11.031 5.45858 10.8365 5.27972L7.5937 2.28573C8.17694 1.84246 8.81462 1.40697 9.42898 1.0337ZM5.19851 1.29032L9.84891 5.56745C8.02141 6.85836 6.65273 8.35925 5.87507 10.1867C5.14407 11.9054 4.94966 13.8962 5.27628 16.1592L1.18579 13.3052C0.72697 10.5056 0.804736 8.21149 1.47352 6.25179C2.11898 4.3543 3.33991 2.7601 5.19851 1.29032ZM5.34627 3.96547L5.09741 4.39318C4.78635 4.28431 4.46751 4.22988 4.15645 4.26098C3.66652 4.30764 3.19215 4.60315 2.91219 5.09308C2.67889 5.55967 2.78777 6.00294 3.05995 6.39177C3.46433 6.99834 4.10979 7.34829 4.54528 7.93931C4.81746 8.30481 4.38197 8.6392 4.09423 8.67031C3.85316 8.69364 3.53432 8.6081 3.19215 8.41368C2.91997 8.25815 2.69445 7.94709 2.63224 7.68268C2.57002 7.41828 2.58558 7.2783 2.83443 7.1461C3.02106 7.05278 3.11438 6.8117 3.05217 6.61729C2.91997 6.32956 2.68667 6.26734 2.41449 6.36066C1.83125 6.6795 1.63683 7.34051 1.76126 7.8771C1.86235 8.30481 2.10343 8.69364 2.45337 8.98137L2.22008 9.39353L2.98218 9.84457L3.23103 9.41686C3.5421 9.53351 3.86094 9.58795 4.172 9.55684C4.66193 9.51018 5.1363 9.21467 5.41625 8.72474C5.64178 8.25815 5.54846 7.80711 5.27628 7.42605C4.84856 6.82726 4.18755 6.39954 3.78317 5.87074C3.47988 5.50524 3.92315 5.17862 4.23421 5.14751C4.47529 5.12418 4.79413 5.20973 5.1363 5.40414C5.40848 5.5519 5.634 5.87074 5.69621 6.13514C5.75843 6.39954 5.74287 6.53952 5.49402 6.67173C5.27628 6.77282 5.17518 7.06833 5.29183 7.28608C5.40848 7.49604 5.71177 7.58159 5.91396 7.44938C6.4972 7.13832 6.69162 6.46953 6.56719 5.93295C6.46609 5.51301 6.22502 5.12418 5.87507 4.83645L6.11615 4.41651L5.34627 3.96547Z" fill="black"/>
</svg>
