<svg id="Layer_1" data-name="Layer 1" xmlns="http://www.w3.org/2000/svg" viewBox="0 0 1080 1080"><path d="M424.35,716.27c-11.35,16.1-20.83,29.23-30,42.58-12,17.56-22.77,36.12-36,52.75-19.74,24.88-47.19,37.33-78.18,41.42-20.92,2.77-32.54-4.35-41.68-23.44-12.49-26.09-9.61-53.13-4.24-80.17,7.22-36.38,22.14-69.75,40.73-101.6,7.45-12.76,15.17-25.37,23.5-39.28-14.55-2.82-26.24,1.09-36.07,9.88-22.54,20.13-44.88,40.49-66.76,61.33-5.15,4.91-8.16,12.06-12.15,18.17-13.21-9.56-14.42-16.15-2.14-22.9,27.68-15.22,48.24-37.89,67.67-61.76C261,598.67,274.58,590,293.94,593.34c10.78,1.88,17-3.09,22.91-11.92,16.77-25,34.63-49.24,53.06-75.2-38.19-.51-51.55-27.59-63.51-58.19-3.84-9.83-15.25-17.84-24.9-24-20.82-13.34-42.56-25.28-64.31-37.08-8-4.35-17.16-6.71-26.08-10.09,2.57-14.55,9.55-18.3,20.5-8,23,21.64,50.85,34.27,79.38,45.68,17.48,7,28.91,17.49,32.71,36.74,5.5,27.83,31.19,31.4,52.55,42.41,3.88-6.3,6.85-11.93,10.55-17,10.48-14.38,19-31.36,32.45-42.11C439.52,418.35,435.79,398,435,377.87c-.23-5.45-7.19-11.45-12.32-15.68-9-7.41-13.51-16.33-10.51-27.4,8.64-32-6.09-55.68-26.3-77.72-3.78-4.13-7.38-8.42-11.06-12.64,1.19-1.55,2.37-3.1,3.56-4.64,7,4.41,15,7.72,20.68,13.44,17.48,17.73,24.54,40.38,27,64.56,1.24,12.23,4.75,22.29,14.29,31.37,6.56,6.25,9,16.81,13.29,25.44l4.09,0,5.23-45.86c-14.62-7.82-20.58-21.17-15.69-38.92,5.53-20.09,22.87-38.3,41.19-37.65,21.57.77,37.22-6,47.95-25.82,4.78,5.19,8.73,8.77,11.81,13,7.12,9.75,16.26,12.48,28.26,12.13,25.34-.74,44.62,14.57,51.16,39,4.6,17.16-1.6,30.07-16,38.31,1.8,15.65,3.5,30.48,5.2,45.31l4.54,0c7.83-24.12,28.5-41.29,30.5-69.84,1.27-18,15.1-35.64,25.22-52.27,3.51-5.77,12.82-8,19.49-11.87l3.17,4.42c-3.73,4.23-7.37,8.53-11.19,12.67-19.9,21.61-34.24,45-26.52,76.33,3,12.33-.84,22.46-11.72,29.59C640,369.87,637,379.53,638,391.44c1.41,17.4,4.55,32,19.37,45.45,16.5,14.94,27.69,35.75,42.32,55.55,22.94-9.26,47.54-16.73,54.24-48.24,2-9.43,11.63-20.17,20.6-24.69,31.35-15.77,64.45-27.8,91-52.39,10.8-10,15.88.21,18.35,6.43-35.63,20.09-70.35,39.26-104.52,59.37-5.47,3.22-10.23,10.1-12.27,16.29-10.24,31.09-25.16,56.51-62.26,56.9C724.56,534.25,743,561.66,763,587.94c3.82,5,13.9,8.37,20.54,7.6,21.23-2.44,35.8,6,48.64,22,18.6,23.25,38.81,44.91,65.5,59.74,12.73,7.08,11.92,12.49,1.47,21.39-28-26.5-55-53.66-84-78.58-8.83-7.6-23-9-34.72-13.24L778,610.94c3.07,5.42,6,10.95,9.24,16.24C812.47,667.85,834,710.1,841.76,758c3.78,23.21,5.17,46.39-4.46,68.75-9.44,21.91-22.23,29.74-45.81,26-30.27-4.86-57.13-17.36-76.25-42.11-12.68-16.42-23.37-34.38-35-51.6-6.54-9.66-13.25-19.2-21.07-30.5-5.61,14.78-8.48,28.22-15.35,39.16-12.52,19.93-24.85,41.13-41.84,56.86-35.51,32.89-83.49,31.35-120.21-.35C449.9,796.7,434.6,760.06,424.35,716.27Z"/></svg>