<svg width="84" height="95" viewBox="0 0 84 95" fill="none" xmlns="http://www.w3.org/2000/svg">
<path d="M43.9 12.39C43.47 13.39 43.24 14.46 43.24 15.54C43.67 14.84 44.21 13.99 44.84 13.44C44.57 13.07 44.22 12.72 43.9 12.39ZM43.56 17.48C43.77 16.87 45.63 13.92 45.95 14.14C47.65 14.25 52.4 17.42 51.82 20.53C48.97 20.52 45.31 20.04 43.56 17.48ZM50.75 18.57C50.54 18.57 50.38 18.73 50.38 18.94C50.38 19.14 50.54 19.31 50.75 19.31C50.95 19.31 51.12 19.14 51.12 18.94C51.12 18.73 50.95 18.57 50.75 18.57ZM50.38 17.83C50.17 17.83 50.01 17.99 50.01 18.2C50.01 18.4 50.17 18.57 50.38 18.57C50.58 18.57 50.75 18.4 50.75 18.2C50.75 17.99 50.58 17.83 50.38 17.83ZM49.84 17.16C49.64 17.16 49.47 17.33 49.47 17.53C49.47 17.74 49.64 17.9 49.84 17.9C50.04 17.9 50.21 17.74 50.21 17.53C50.21 17.33 50.04 17.16 49.84 17.16ZM49.2 16.6C49 16.6 48.83 16.76 48.83 16.97C48.83 17.17 49 17.34 49.2 17.34C49.4 17.34 49.57 17.17 49.57 16.97C49.57 16.76 49.4 16.6 49.2 16.6ZM48.57 16.1C48.36 16.1 48.2 16.26 48.2 16.47C48.2 16.67 48.36 16.84 48.57 16.84C48.77 16.84 48.94 16.67 48.94 16.47C48.94 16.26 48.77 16.1 48.57 16.1ZM47.9 15.63C47.7 15.63 47.53 15.8 47.53 16C47.53 16.2 47.7 16.37 47.9 16.37C48.11 16.37 48.27 16.2 48.27 16C48.27 15.8 48.11 15.63 47.9 15.63ZM47.16 15.26C46.96 15.26 46.79 15.42 46.79 15.63C46.79 15.83 46.96 16 47.16 16C47.37 16 47.53 15.83 47.53 15.63C47.53 15.42 47.37 15.26 47.16 15.26ZM46.42 14.89C46.22 14.89 46.05 15.05 46.05 15.26C46.05 15.46 46.22 15.63 46.42 15.63C46.63 15.63 46.79 15.46 46.79 15.26C46.79 15.05 46.63 14.89 46.42 14.89ZM45.81 15.58C45.6 15.58 45.44 15.75 45.44 15.95C45.44 16.16 45.6 16.32 45.81 16.32C46.01 16.32 46.18 16.16 46.18 15.95C46.18 15.75 46.01 15.58 45.81 15.58ZM45.33 16.32C45.12 16.32 44.96 16.49 44.96 16.69C44.96 16.9 45.12 17.06 45.33 17.06C45.53 17.06 45.7 16.9 45.7 16.69C45.7 16.49 45.53 16.32 45.33 16.32ZM45.06 17.07C44.86 17.07 44.69 17.23 44.69 17.44C44.69 17.64 44.86 17.81 45.06 17.81C45.27 17.81 45.43 17.64 45.43 17.44C45.43 17.23 45.27 17.07 45.06 17.07ZM49.47 19.25C49.26 19.25 49.1 19.42 49.1 19.62C49.1 19.82 49.26 19.99 49.47 19.99C49.67 19.99 49.84 19.82 49.84 19.62C49.84 19.42 49.67 19.25 49.47 19.25ZM48.65 19.13C48.45 19.13 48.28 19.3 48.28 19.5C48.28 19.7 48.45 19.87 48.65 19.87C48.86 19.87 49.02 19.7 49.02 19.5C49.02 19.3 48.86 19.13 48.65 19.13ZM47.89 18.86C47.68 18.86 47.52 19.02 47.52 19.23C47.52 19.43 47.68 19.6 47.89 19.6C48.09 19.6 48.26 19.43 48.26 19.23C48.26 19.02 48.09 18.86 47.89 18.86ZM47.12 18.51C46.92 18.51 46.75 18.68 46.75 18.88C46.75 19.08 46.92 19.25 47.12 19.25C47.33 19.25 47.49 19.08 47.49 18.88C47.49 18.68 47.33 18.51 47.12 18.51ZM46.38 18.09C46.18 18.09 46.01 18.25 46.01 18.45C46.01 18.66 46.18 18.82 46.38 18.82C46.59 18.82 46.75 18.66 46.75 18.45C46.75 18.25 46.59 18.09 46.38 18.09ZM50.29 19.31C50.08 19.31 49.92 19.48 49.92 19.68C49.92 19.88 50.08 20.05 50.29 20.05C50.49 20.05 50.66 19.88 50.66 19.68C50.66 19.48 50.49 19.31 50.29 19.31ZM45.7 17.61C45.49 17.61 45.33 17.78 45.33 17.98C45.33 18.18 45.49 18.35 45.7 18.35C45.9 18.35 46.07 18.18 46.07 17.98C46.07 17.78 45.9 17.61 45.7 17.61ZM49.9 18.47C49.69 18.47 49.53 18.64 49.53 18.84C49.53 19.05 49.69 19.21 49.9 19.21C50.1 19.21 50.27 19.05 50.27 18.84C50.27 18.64 50.1 18.47 49.9 18.47ZM49.31 17.76C49.1 17.76 48.94 17.93 48.94 18.13C48.94 18.34 49.1 18.5 49.31 18.5C49.51 18.5 49.68 18.34 49.68 18.13C49.68 17.93 49.51 17.76 49.31 17.76ZM48.58 17.26C48.38 17.26 48.21 17.42 48.21 17.63C48.21 17.83 48.38 18 48.58 18C48.79 18 48.95 17.83 48.95 17.63C48.95 17.42 48.79 17.26 48.58 17.26ZM47.95 16.79C47.75 16.79 47.58 16.96 47.58 17.16C47.58 17.37 47.75 17.53 47.95 17.53C48.16 17.53 48.32 17.37 48.32 17.16C48.32 16.96 48.16 16.79 47.95 16.79ZM47.29 16.33C47.08 16.33 46.92 16.49 46.92 16.7C46.92 16.9 47.08 17.07 47.29 17.07C47.49 17.07 47.66 16.9 47.66 16.7C47.66 16.49 47.49 16.33 47.29 16.33ZM46.55 15.96C46.34 15.96 46.18 16.12 46.18 16.32C46.18 16.53 46.34 16.7 46.55 16.7C46.75 16.7 46.92 16.53 46.92 16.32C46.92 16.12 46.75 15.96 46.55 15.96ZM48.27 18.2C48.07 18.2 47.9 18.37 47.9 18.57C47.9 18.77 48.07 18.94 48.27 18.94C48.48 18.94 48.64 18.77 48.64 18.57C48.64 18.37 48.48 18.2 48.27 18.2ZM47.58 17.76C47.38 17.76 47.21 17.93 47.21 18.13C47.21 18.34 47.38 18.5 47.58 18.5C47.79 18.5 47.95 18.34 47.95 18.13C47.95 17.93 47.79 17.76 47.58 17.76ZM46.84 17.3C46.64 17.3 46.47 17.46 46.47 17.67C46.47 17.87 46.64 18.04 46.84 18.04C47.05 18.04 47.21 17.87 47.21 17.67C47.21 17.46 47.05 17.3 46.84 17.3ZM46.13 16.84C45.92 16.84 45.76 17 45.76 17.21C45.76 17.41 45.92 17.58 46.13 17.58C46.33 17.58 46.5 17.41 46.5 17.21C46.5 17 46.33 16.84 46.13 16.84ZM49.05 18.47C48.84 18.47 48.68 18.64 48.68 18.84C48.68 19.05 48.84 19.21 49.05 19.21C49.25 19.21 49.42 19.05 49.42 18.84C49.42 18.64 49.25 18.47 49.05 18.47ZM52.54 28.26L58.77 23.62V11.76C63.08 8.28 67.42 4.83 71.73 1.34C72.09 1.05 72.27 0.44 72.3 0C72.65 0.23 72.88 0.62 72.95 1.01C73.32 1.09 73.69 1.29 73.92 1.63C73.47 1.66 72.95 1.93 72.57 2.25L60.01 12.35V24.24L52.68 29.71L52.69 29.82L52.54 28.26ZM28.32 76.81L30.68 80.23C27.82 84.33 24.95 88.44 22.08 92.54C21.74 93.14 21.49 93.73 21.46 94.6C21.08 94.25 20.88 93.78 20.84 93.26C20.23 93.42 19.72 93.55 19.15 93.26C20.31 92.79 20.79 92.22 21.07 91.84L29.18 80.23L27.32 77.54L27.28 77.58L28.32 76.81ZM56.44 77.54L54.58 80.23C57.28 84.1 59.99 87.97 62.69 91.84C62.94 92.17 63.65 92.99 64.61 93.26C64.08 93.46 63.43 93.45 62.91 93.26C62.88 93.71 62.68 94.19 62.29 94.6C62.22 93.86 62.05 93.13 61.67 92.54L53.08 80.23L55.44 76.81L56.44 77.54ZM52.87 35.92C54.25 36.07 55.79 36.31 57.14 35.92C60.1 38.44 63.27 40.42 66.71 42.23C71.65 42.14 76.58 42.06 81.51 41.97C82.14 41.62 82.54 41.05 82.91 40.52C83.01 41.05 82.93 41.85 82.72 42.32C83.21 42.59 83.52 43.2 83.76 43.71C83.12 43.3 82.5 43.25 81.75 43.2L66.42 43.47C63.02 41.68 59.77 39.75 56.82 37.27C55.83 37.43 54.56 37.32 53.56 37.23L52.87 35.92ZM30.2 37.23C29.19 37.32 27.93 37.43 26.94 37.27C23.99 39.75 20.74 41.68 17.34 43.47L2.01 43.2C1.14 43.19 0.65 43.48 0 43.71C0.15 43.22 0.51 42.78 1.04 42.32C0.73 41.81 0.77 41.2 0.85 40.52C1.18 41.12 1.65 41.83 2.25 41.97L17.05 42.23C20.52 40.41 23.63 38.46 26.62 35.92C27.97 36.31 29.51 36.07 30.89 35.92L30.2 37.23ZM31.07 29.8L31.08 29.71L23.75 24.24V12.35C19.57 8.98 15.38 5.62 11.19 2.25C10.76 1.95 10.1 1.72 9.54 1.63C9.88 1.19 10.42 1.04 10.82 1.01C10.84 0.56 11.2 0.17 11.41 0C11.47 0.45 11.71 1.08 12.07 1.37L24.99 11.76V23.62L31.22 28.26L31.07 29.8ZM40.2 17.48C39.99 16.87 38.13 13.92 37.81 14.14C36.11 14.25 31.36 17.42 31.94 20.53C34.79 20.52 38.45 20.04 40.2 17.48ZM33.01 18.57C33.22 18.57 33.38 18.73 33.38 18.94C33.38 19.14 33.22 19.31 33.01 19.31C32.81 19.31 32.64 19.14 32.64 18.94C32.64 18.73 32.81 18.57 33.01 18.57ZM33.38 17.83C33.59 17.83 33.75 17.99 33.75 18.2C33.75 18.4 33.59 18.57 33.38 18.57C33.18 18.57 33.01 18.4 33.01 18.2C33.01 17.99 33.18 17.83 33.38 17.83ZM33.92 17.16C34.12 17.16 34.29 17.33 34.29 17.53C34.29 17.74 34.12 17.9 33.92 17.9C33.72 17.9 33.55 17.74 33.55 17.53C33.55 17.33 33.72 17.16 33.92 17.16ZM34.56 16.6C34.76 16.6 34.93 16.76 34.93 16.97C34.93 17.17 34.76 17.34 34.56 17.34C34.36 17.34 34.19 17.17 34.19 16.97C34.19 16.76 34.36 16.6 34.56 16.6ZM35.19 16.1C35.4 16.1 35.56 16.26 35.56 16.47C35.56 16.67 35.4 16.84 35.19 16.84C34.99 16.84 34.82 16.67 34.82 16.47C34.82 16.26 34.99 16.1 35.19 16.1ZM35.86 15.63C36.06 15.63 36.23 15.8 36.23 16C36.23 16.2 36.06 16.37 35.86 16.37C35.65 16.37 35.49 16.2 35.49 16C35.49 15.8 35.65 15.63 35.86 15.63ZM36.6 15.26C36.8 15.26 36.97 15.42 36.97 15.63C36.97 15.83 36.8 16 36.6 16C36.39 16 36.23 15.83 36.23 15.63C36.23 15.42 36.39 15.26 36.6 15.26ZM37.34 14.89C37.54 14.89 37.71 15.05 37.71 15.26C37.71 15.46 37.54 15.63 37.34 15.63C37.13 15.63 36.97 15.46 36.97 15.26C36.97 15.05 37.13 14.89 37.34 14.89ZM37.95 15.58C38.16 15.58 38.32 15.75 38.32 15.95C38.32 16.16 38.16 16.32 37.95 16.32C37.75 16.32 37.58 16.16 37.58 15.95C37.58 15.75 37.75 15.58 37.95 15.58ZM38.43 16.32C38.64 16.32 38.8 16.49 38.8 16.69C38.8 16.9 38.64 17.06 38.43 17.06C38.23 17.06 38.06 16.9 38.06 16.69C38.06 16.49 38.23 16.32 38.43 16.32ZM38.7 17.07C38.9 17.07 39.07 17.23 39.07 17.44C39.07 17.64 38.9 17.81 38.7 17.81C38.49 17.81 38.33 17.64 38.33 17.44C38.33 17.23 38.49 17.07 38.7 17.07ZM34.29 19.25C34.5 19.25 34.66 19.42 34.66 19.62C34.66 19.82 34.5 19.99 34.29 19.99C34.09 19.99 33.92 19.82 33.92 19.62C33.92 19.42 34.09 19.25 34.29 19.25ZM35.11 19.13C35.31 19.13 35.48 19.3 35.48 19.5C35.48 19.7 35.31 19.87 35.11 19.87C34.9 19.87 34.74 19.7 34.74 19.5C34.74 19.3 34.9 19.13 35.11 19.13ZM35.87 18.86C36.08 18.86 36.24 19.02 36.24 19.23C36.24 19.43 36.08 19.6 35.87 19.6C35.67 19.6 35.5 19.43 35.5 19.23C35.5 19.02 35.67 18.86 35.87 18.86ZM36.64 18.51C36.84 18.51 37.01 18.68 37.01 18.88C37.01 19.08 36.84 19.25 36.64 19.25C36.43 19.25 36.27 19.08 36.27 18.88C36.27 18.68 36.43 18.51 36.64 18.51ZM37.38 18.09C37.58 18.09 37.75 18.25 37.75 18.45C37.75 18.66 37.58 18.82 37.38 18.82C37.17 18.82 37.01 18.66 37.01 18.45C37.01 18.25 37.17 18.09 37.38 18.09ZM33.47 19.31C33.68 19.31 33.84 19.48 33.84 19.68C33.84 19.88 33.68 20.05 33.47 20.05C33.27 20.05 33.1 19.88 33.1 19.68C33.1 19.48 33.27 19.31 33.47 19.31ZM38.06 17.61C38.27 17.61 38.43 17.78 38.43 17.98C38.43 18.18 38.27 18.35 38.06 18.35C37.86 18.35 37.69 18.18 37.69 17.98C37.69 17.78 37.86 17.61 38.06 17.61ZM33.86 18.47C34.07 18.47 34.23 18.64 34.23 18.84C34.23 19.05 34.07 19.21 33.86 19.21C33.66 19.21 33.49 19.05 33.49 18.84C33.49 18.64 33.66 18.47 33.86 18.47ZM34.45 17.76C34.66 17.76 34.82 17.93 34.82 18.13C34.82 18.34 34.66 18.5 34.45 18.5C34.25 18.5 34.08 18.34 34.08 18.13C34.08 17.93 34.25 17.76 34.45 17.76ZM35.18 17.26C35.38 17.26 35.55 17.42 35.55 17.63C35.55 17.83 35.38 18 35.18 18C34.97 18 34.81 17.83 34.81 17.63C34.81 17.42 34.97 17.26 35.18 17.26ZM35.81 16.79C36.01 16.79 36.18 16.96 36.18 17.16C36.18 17.37 36.01 17.53 35.81 17.53C35.6 17.53 35.44 17.37 35.44 17.16C35.44 16.96 35.6 16.79 35.81 16.79ZM36.47 16.33C36.68 16.33 36.84 16.49 36.84 16.7C36.84 16.9 36.68 17.07 36.47 17.07C36.27 17.07 36.1 16.9 36.1 16.7C36.1 16.49 36.27 16.33 36.47 16.33ZM37.21 15.96C37.42 15.96 37.58 16.12 37.58 16.32C37.58 16.53 37.42 16.7 37.21 16.7C37.01 16.7 36.84 16.53 36.84 16.32C36.84 16.12 37.01 15.96 37.21 15.96ZM35.49 18.2C35.69 18.2 35.86 18.37 35.86 18.57C35.86 18.77 35.69 18.94 35.49 18.94C35.28 18.94 35.12 18.77 35.12 18.57C35.12 18.37 35.28 18.2 35.49 18.2ZM36.18 17.76C36.38 17.76 36.55 17.93 36.55 18.13C36.55 18.34 36.38 18.5 36.18 18.5C35.97 18.5 35.81 18.34 35.81 18.13C35.81 17.93 35.97 17.76 36.18 17.76ZM36.92 17.3C37.12 17.3 37.29 17.46 37.29 17.67C37.29 17.87 37.12 18.04 36.92 18.04C36.71 18.04 36.55 17.87 36.55 17.67C36.55 17.46 36.71 17.3 36.92 17.3ZM37.63 16.84C37.84 16.84 38 17 38 17.21C38 17.41 37.84 17.58 37.63 17.58C37.43 17.58 37.26 17.41 37.26 17.21C37.26 17 37.43 16.84 37.63 16.84ZM34.71 18.47C34.92 18.47 35.08 18.64 35.08 18.84C35.08 19.05 34.92 19.21 34.71 19.21C34.51 19.21 34.34 19.05 34.34 18.84C34.34 18.64 34.51 18.47 34.71 18.47ZM17.87 57.29C14.67 62.33 12.22 66.66 10.53 70.26C14 66.17 17.28 61.89 20.95 58C17.16 63.15 13.37 68.31 9.58 73.46C9.28 74.48 9.03 76.53 9.2 77.66C14.71 73.97 19.54 63.7 21.46 59.64C17.84 71.66 12.22 77.92 9.24 78.96C9.29 79.55 9.36 80.15 9.5 80.73C11.24 79.38 14.4 77.17 16.71 77.89C21.55 76.44 24.48 62.52 25.7 58C25.12 62.54 22.87 77.64 16.65 79.18C14.54 78.35 11.48 80.73 9.9 81.99C10.29 82.91 10.84 83.61 11.56 84.08C16 83.61 21.41 80.2 25.08 77.63C24.78 70.76 27.48 61.05 28.88 54C27.74 61.14 26.38 69.55 26.29 76.76C34.64 70.71 44.42 62.68 37.62 51.8C39.14 51.23 40.09 50.82 39.54 48.89C36.63 45.29 33.98 41.46 31.49 37.57C30.75 38.58 30.15 39.4 29.44 40.37C31.68 45.84 25.52 49.45 21.54 51.69C20.72 52.9 19.94 54.08 19.2 55.22C22.48 53.46 27.63 50.92 29.38 47.56C28.22 51.89 21.96 55.27 17.87 57.29ZM25.42 56.5C24.62 54.91 26.06 53.26 27.28 52.91C26.75 53.34 25.25 55.74 25.42 56.5ZM32.14 44.58C31.62 46.52 32.29 48.65 31.52 50.54C31.27 48.17 29.94 44.58 32.14 44.58ZM35.1 64.54C32.1 61.55 31.9 57.65 35.1 54.73C33.02 57.64 33.5 61.54 35.1 64.54ZM37.05 43.58C37.22 43.41 37.38 43.26 37.57 43.11C34.39 36.48 34.08 29.56 36.04 22.53C35.51 22.52 34.96 22.49 34.42 22.43C32.06 24.46 32.1 33.4 32.14 36.29C33.71 38.77 35.35 41.19 37.05 43.58ZM38.63 42.47C38.89 42.35 39.15 42.26 39.42 42.18C38.94 36.25 38.2 28.05 39.07 22.18C38.5 22.32 37.93 22.41 37.34 22.47C35.36 29.28 35.57 36 38.63 42.47ZM40.65 41.98C41.32 41.94 42.44 41.94 43.11 41.98C43.57 36.35 44.41 27.3 43.37 21.81C42.87 21.63 42.37 21.43 41.88 21.2C41.39 21.43 40.89 21.63 40.39 21.81C39.35 27.3 40.19 36.35 40.65 41.98ZM37.79 44.6C38.71 45.85 39.67 47.11 40.65 48.31C41.15 49.95 41.04 51.46 39.42 52.38C43.19 58.98 40.55 65.12 35.85 70.26C37.21 72.91 39.15 75.68 41.88 77.05C44.62 75.69 46.55 72.91 47.91 70.26C43.21 65.12 40.57 58.98 44.34 52.38C42.72 51.46 42.61 49.95 43.11 48.31C44.09 47.11 45.04 45.85 45.97 44.6C44.33 42.77 39.43 42.77 37.79 44.6ZM41.88 19.81C43.39 20.71 45.81 21.4 47.45 21.29C44.92 20.66 43.62 19.77 42.24 17.65C41.76 15.52 42.02 13.45 42.95 11.49C42.63 11.2 42.27 10.88 41.88 10.54C41.49 10.88 41.13 11.2 40.81 11.49C41.74 13.45 42 15.52 41.52 17.65C40.13 19.77 38.84 20.66 36.31 21.29C37.98 21.37 40.39 20.71 41.88 19.81ZM39.86 12.39C39.54 12.72 39.19 13.07 38.92 13.44C39.55 14.01 40.09 14.83 40.52 15.54C40.52 14.38 40.27 13.46 39.86 12.39ZM64.56 55.22C63.91 54.21 63.23 53.18 62.52 52.13C58.43 49.85 52.09 45.94 54.31 40.37C53.61 39.4 53.01 38.58 52.27 37.57C49.78 41.46 47.12 45.29 44.22 48.89C43.67 50.82 44.62 51.23 46.14 51.8C39.3 62.75 49.32 70.85 57.46 76.76C57.21 69.14 55.97 61.44 54.88 54C56.32 61.39 58.93 71.85 58.68 77.63C62.35 80.2 67.76 83.61 72.2 84.08C72.92 83.61 73.47 82.91 73.86 81.99C72.28 80.73 69.22 78.35 67.11 79.18C60.88 77.64 58.54 62.49 58.06 58C59.27 62.46 62.2 76.44 67.04 77.89C69.36 77.17 72.52 79.38 74.26 80.73C74.4 80.15 74.47 79.55 74.52 78.96C71.15 77.53 66.91 71.7 62.29 59.64C64.16 63.09 70.55 75.44 74.56 77.66C74.59 76.46 74.54 74.74 74.18 73.46C70.39 68.31 66.6 63.15 62.8 58C66.57 61.94 69.76 66.17 73.23 70.26C71.54 66.66 69.08 62.33 65.89 57.29C61.84 55.29 55.51 51.78 54.37 47.56C56.14 50.93 61.29 53.47 64.56 55.22ZM58.33 56.5C58.5 55.9 56.93 53.25 56.48 52.91C57.71 53.27 59.08 54.94 58.33 56.5ZM52.24 50.54C51.4 48.68 52.31 46.55 51.62 44.58C53.82 44.58 52.48 48.17 52.24 50.54ZM48.65 64.54C50.26 61.53 50.76 57.66 48.65 54.73C51.68 57.63 51.71 61.59 48.65 64.54ZM55.21 41.62C54.24 45.12 58.37 48.11 60.9 49.73C59.15 47.17 57.26 44.46 55.21 41.62ZM46.71 43.58C48.41 41.19 50.05 38.77 51.62 36.29C51.66 33.4 51.7 24.46 49.34 22.43C48.8 22.49 48.25 22.52 47.72 22.53C49.68 29.56 49.37 36.48 46.19 43.11C46.19 43.11 46.57 43.45 46.71 43.58ZM45.13 42.47C48.19 36 48.4 29.28 46.42 22.47C45.83 22.41 45.26 22.32 44.68 22.18C45.56 28.05 44.82 36.25 44.34 42.18C44.61 42.26 44.87 42.35 45.13 42.47Z" fill="black"/>
</svg>
