<svg width="97" height="92" viewBox="0 0 97 92" fill="none" xmlns="http://www.w3.org/2000/svg">
<path d="M93.7866 42.2467C89.146 39.5475 76.1416 36.1139 70.6886 35.4225C67.4269 35.0084 62.3839 34.9108 59.0836 34.9303L59.1422 34.8795C61.2281 33.0123 63.8336 31.2037 66.0367 29.3678C68.9312 26.9537 68.0328 27.3678 71.8844 26.7389C76.318 26.0124 76.9977 26.7546 80.0992 23.6998L83.3922 20.4771C84.0758 19.8053 85.9899 18.2349 86.0641 17.274C86.1383 16.3443 85.0094 15.649 84.193 16.0631C83.1461 16.5944 79.5368 20.4811 78.5328 21.4498C76.6656 23.2545 76.9508 23.2232 74.3922 23.6412L70.1227 24.3444C66.9586 24.8639 67.2399 24.9186 64.9625 26.8405C63.9508 27.6959 62.9039 28.5163 61.8648 29.3327L58.0601 32.3522C57.1461 33.067 56.2359 33.6608 55.4898 34.5592C55.2594 33.6803 54.9742 32.8717 54.5992 32.0436C57.064 30.3248 59.3726 28.1842 61.6461 26.2272C62.7711 25.2584 64.4859 24.3639 64.7516 22.8014C65.1696 20.3678 65.9977 14.9381 65.9977 12.6414C65.4665 11.4461 63.8493 11.2664 63.4079 12.6726C62.9704 14.0632 62.2985 20.7624 62.2126 22.1999C61.486 22.9694 60.5954 23.6374 59.7829 24.321L55.7321 27.6921C54.9235 28.3562 54.0837 28.9968 53.3063 29.6921C53.0602 29.3718 52.8376 29.0554 52.6344 28.7038C55.9039 25.7038 55.4742 21.4147 52.3141 18.5748C53.1501 12.8014 56.4 7.26583 61.0993 3.76283C61.8845 3.17689 63.3884 2.52453 63.5524 1.50113C63.7087 0.512852 62.861 -0.080868 61.9391 0.00893202C60.986 0.395652 60.1383 1.05973 59.3336 1.69643C53.9859 5.95033 51.2555 10.7159 49.7867 17.2004C48.6187 17.1965 47.4039 17.2825 46.2437 17.2004C44.9234 11.0598 41.8179 6.02043 36.9078 2.08743C35.943 1.31399 33.6578 -1.09617 32.6031 0.747632C31.7828 2.18513 34.0211 3.23593 34.9078 3.89603C39.5797 7.37653 42.8687 12.8374 43.7867 18.572C40.3687 21.0837 40.3844 25.99 43.443 28.701C43.2477 29.0331 43.0641 29.3768 42.8414 29.6893C41.6539 28.5526 40.3219 27.5799 39.0797 26.5057L35.8844 23.744C35.2672 23.2167 34.6539 22.6424 33.9742 22.1971L33.1109 15.8338C32.9742 14.8494 32.9351 13.7166 32.6578 12.7674C32.3336 11.658 30.9469 11.0994 30.2398 12.2596C29.7984 12.9784 30.2281 14.4666 30.3335 15.2401L30.9078 19.2362C31.5757 23.9081 30.6382 22.7362 34.2125 25.8143C36.6617 27.9237 39.2203 29.9159 41.6461 32.0409C41.2945 32.869 41.0133 33.7011 40.7437 34.5565C38.9664 33.0253 37.0328 31.6307 35.1929 30.1659L31.9507 27.6034C28.9624 25.1972 29.4898 25.1776 25.6304 24.455L21.5249 23.6581C19.2788 23.2324 19.4976 23.2831 17.8452 21.7089L14.0249 18.037C13.189 17.2245 11.4351 14.8417 10.1499 16.3065C9.05613 17.5526 11.1499 19.037 11.939 19.8026L14.9078 22.6424C15.8492 23.537 16.7945 24.6112 17.8219 25.3924L17.9235 25.4706C18.7985 26.1385 23.8454 26.8261 25.2477 27.0839C27.9586 27.5839 27.693 27.6151 29.8571 29.3339L33.7633 32.455C34.8141 33.3065 35.8492 34.2089 36.9899 34.9355C33.5055 35.1034 30.0602 34.8261 26.5639 35.2128C20.6108 35.873 14.9429 37.623 9.25889 39.4394C4.58699 40.9316 -0.323114 41.5878 0.0166861 47.83C0.438556 55.58 12.8647 58.322 18.9937 55.4042C20.0796 54.8886 21.0757 54.1894 22.0796 53.537L40.7356 41.279C40.8723 41.8845 41.0286 42.4626 41.2981 43.0251C40.3371 44.1071 39.4661 45.2673 38.552 46.3884L29.9153 57.0834C27.5637 59.9662 27.9075 59.1459 27.6106 62.7357L26.4973 75.8997C26.2395 78.7786 26.3137 78.4661 24.9661 81.0403L22.4114 85.9661C21.9504 86.8411 20.6302 88.6888 20.6887 89.6966C20.7668 91.0872 22.4192 91.3607 23.134 90.3099C23.9113 89.1654 24.7785 87.1497 25.4465 85.8607L27.6926 81.5873C29.177 78.7514 28.8684 78.9975 29.1653 75.8334C29.3411 73.9701 30.095 61.6884 30.5169 60.6384C30.802 59.9235 41.3289 47.1584 42.5869 45.6344C42.8564 45.9273 43.1416 46.1852 43.4424 46.4391C43.3408 46.607 43.2392 46.7984 43.122 46.9586C41.0009 53.1422 42.4033 63.6426 45.1376 69.2396C46.5399 72.1029 47.6688 74.9466 50.0243 71.0873C54.1766 64.2865 54.3681 55.8993 53.5946 48.1853C53.5517 47.7556 53.2196 45.9158 53.5165 45.6345C53.7196 45.7204 58.8368 52.4939 59.5282 53.3298C60.411 54.3923 65.1454 59.7829 65.4227 60.5095C65.7391 61.3337 65.6883 62.7907 65.7782 63.7087L66.8212 74.7827C67.2352 79.0561 66.8837 78.5366 68.8368 82.3374L71.2548 87.0991C71.6845 87.9311 72.8603 90.6303 73.6181 90.9741C74.2509 91.2593 75.1884 90.9272 75.4033 90.2436C75.7548 89.1147 74.3681 87.4194 73.8799 86.4897C72.6729 84.2045 70.9502 81.0522 69.9619 78.7436C69.3877 77.4077 68.3681 63.4236 68.1807 61.0636C67.9971 58.7941 67.7705 59.0324 66.3213 57.3058L63.6416 54.0792C60.6611 50.548 57.5596 46.919 55.0518 43.0242C55.1416 42.575 55.2901 42.1805 55.4893 41.7703C57.5049 42.993 59.6143 44.0594 61.5909 45.3484L71.6179 51.9851C76.9031 55.4226 79.9968 57.8718 86.6529 56.2429C89.6607 55.5085 93.5474 53.7507 95.2037 50.9773C96.7818 48.3406 96.7124 43.9499 93.7866 42.2467ZM40.0636 38.5436C34.3839 42.2545 28.7706 46.0748 23.0366 49.6996C18.9819 52.2621 16.2671 54.723 11.1106 53.8363C8.80983 53.4496 5.19653 51.9613 3.66533 50.1605C2.42703 48.7074 2.25513 45.6253 3.86455 44.3363C4.92705 43.4847 7.24345 42.9222 8.58725 42.4691C14.974 40.3324 25.2243 37.0316 32.0213 37.6449H40.0643C40.0721 37.9457 40.0636 38.2467 40.0636 38.5436ZM47.2589 19.8446C51.5558 19.4071 53.9425 23.7743 50.673 26.7587C50.0676 26.4657 49.4816 26.2196 48.8292 26.0595C47.5323 25.8368 46.5558 26.1806 45.4073 26.7587C42.4151 24.2235 43.8135 20.7431 47.2589 19.8446ZM49.0323 67.4266C48.7433 68.0008 48.462 68.575 48.2198 69.1727C46.8721 67.4422 45.8448 64.0711 45.5362 61.8993C47.3018 62.4579 48.837 62.5516 50.669 62.4579C50.1495 64.1415 49.7003 65.7898 49.0323 67.4266ZM51.1456 59.5633C48.9229 60.0789 47.2003 59.8406 45.1612 58.8641C44.7394 58.2821 44.8175 55.8211 44.8175 55.0203C47.173 55.9968 48.9113 55.7898 51.2745 55.0203C51.5206 55.2976 51.1535 58.8836 51.1456 59.5633ZM44.8175 51.9266C44.8683 50.8758 45.0597 49.8836 45.4035 48.8875C48.009 51.2664 48.3605 51.0672 50.8879 48.8875C51.1027 49.8094 51.1808 50.7703 51.2746 51.7117L51.2551 51.9031C49.7551 53.4304 46.5441 52.9579 44.8175 51.9266ZM53.1183 40.2626C52.5597 42.7509 50.3995 46.2587 48.2199 47.6298C45.8644 47.0165 43.2746 41.4267 42.9855 39.1571C42.6223 36.286 44.505 29.1141 47.9425 28.7001C51.6652 28.6728 53.8331 37.1029 53.1183 40.2626ZM93.5403 48.0634C93.2903 49.6025 92.2512 50.5517 91.0481 51.4267C87.7083 53.622 83.2278 54.8251 79.3411 53.5009C77.5403 52.8876 75.9661 51.6103 74.3763 50.5829L65.1693 44.5243C62.1654 42.536 59.0912 40.7196 55.9623 38.9384C55.9545 38.5087 55.9623 38.0751 55.9623 37.6454C62.2631 37.5517 68.7433 37.536 74.9233 38.8837C79.9975 39.9892 85.2043 41.454 90.0093 43.4345C92.4038 44.4228 94.0286 45.0361 93.5403 48.0634Z" fill="black"/>
</svg>
