<svg width="29" height="12" viewBox="0 0 29 12" fill="none" xmlns="http://www.w3.org/2000/svg">
<path fill-rule="evenodd" clip-rule="evenodd" d="M13.5482 9.04521V5.65547H15.2977C16.0146 5.65547 16.6197 5.41525 17.113 4.94149L17.2314 4.82138C18.1324 3.84049 18.0732 2.31243 17.113 1.40494C16.6328 0.924504 15.9751 0.664268 15.2977 0.677613H12.4893V9.04521H13.5482ZM13.5481 4.62785V1.70519H15.3242C15.7058 1.70519 16.0676 1.85199 16.3373 2.1189C16.9096 2.67941 16.9227 3.61359 16.3702 4.19412C16.1004 4.48105 15.7189 4.64119 15.3242 4.62785H13.5481ZM22.171 3.76706C21.7171 3.34667 21.0989 3.13315 20.3162 3.13315C19.3099 3.13315 18.5535 3.50682 18.0537 4.24749L18.9876 4.84136C19.3296 4.33424 19.7966 4.08067 20.3886 4.08067C20.7634 4.08067 21.1252 4.2208 21.408 4.47436C21.6842 4.71458 21.8421 5.06156 21.8421 5.42856V5.67546C21.4343 5.44858 20.9213 5.32847 20.2899 5.32847C19.5533 5.32847 18.9613 5.50196 18.5206 5.85562C18.08 6.20927 17.8564 6.67636 17.8564 7.27024C17.8432 7.81073 18.0734 8.32453 18.4812 8.67151C18.8955 9.04518 19.4217 9.23202 20.04 9.23202C20.77 9.23202 21.3488 8.90506 21.7895 8.25113H21.8355V9.04518H22.8484V5.51531C22.8484 4.77464 22.6248 4.18744 22.171 3.76706ZM19.2968 7.99077C19.0798 7.83063 18.9482 7.57039 18.9482 7.29013C18.9482 6.97652 19.0929 6.71628 19.3758 6.50943C19.6652 6.30257 20.027 6.19581 20.4546 6.19581C21.0466 6.18913 21.5071 6.32259 21.836 6.5895C21.836 7.04324 21.6584 7.43693 21.3098 7.77057C20.994 8.09086 20.5664 8.27103 20.1191 8.27103C19.8231 8.2777 19.5337 8.17761 19.2968 7.99077ZM25.124 11.5609L28.6625 3.32011H27.5115L25.8738 7.43051H25.8541L24.1769 3.32011H23.0259L25.3476 8.67831L24.0322 11.5609H25.124Z" fill="#3C4043"/>
<path d="M9.89245 4.92161C9.89245 4.59464 9.86614 4.26768 9.81352 3.94739H5.34766V5.79573H7.90616C7.80092 6.38961 7.45891 6.92343 6.95905 7.25706V8.45815H8.48494C9.37943 7.62406 9.89245 6.38961 9.89245 4.92161Z" fill="#4285F4"/>
<path d="M5.34774 9.619C6.62371 9.619 7.70236 9.19195 8.48503 8.45795L6.95914 7.25686C6.53163 7.55046 5.98573 7.71727 5.34774 7.71727C4.11124 7.71727 3.06548 6.86984 2.69059 5.73547H1.11865V6.9766C1.92106 8.59807 3.55877 9.619 5.34774 9.619Z" fill="#34A853"/>
<path d="M2.69119 5.73555C2.49384 5.14168 2.49384 4.49442 2.69119 3.89388V2.65942H1.119C0.441452 4.01399 0.441452 5.61544 1.119 6.97001L2.69119 5.73555Z" fill="#FBBC04"/>
<path d="M5.34774 1.91215C6.02519 1.89881 6.67632 2.15904 7.16303 2.63281L8.51792 1.25822C7.65631 0.44415 6.52505 -0.00292322 5.34774 0.0104222C3.55877 0.0104222 1.92106 1.03802 1.11865 2.6595L2.69059 3.90062C3.06548 2.75959 4.11124 1.91215 5.34774 1.91215Z" fill="#EA4335"/>
</svg>
