<svg width="22" height="21" viewBox="0 0 22 21" fill="none" xmlns="http://www.w3.org/2000/svg">
<path d="M10.5095 2.45034C10.4994 2.48355 10.4928 2.51677 10.4928 2.55341C10.4928 2.59005 10.4994 2.61984 10.5095 2.64984C10.5196 2.67983 10.5363 2.70641 10.5597 2.73298C10.583 2.75633 10.6167 2.77948 10.6535 2.80283C10.6936 2.82276 10.7439 2.84612 10.8041 2.86926C10.8978 2.90912 10.985 2.94576 11.0619 2.98561C11.1389 3.02547 11.2059 3.07197 11.2629 3.12533C11.3199 3.17847 11.3634 3.23825 11.3934 3.30811C11.4236 3.37454 11.4403 3.45768 11.4403 3.55089C11.4403 3.63724 11.4271 3.71374 11.3968 3.7836C11.3701 3.85003 11.33 3.91003 11.2796 3.95974C11.2295 4.00967 11.1659 4.04952 11.0956 4.07952C11.0219 4.10952 10.9415 4.12945 10.8545 4.13931V4.42859H10.6201V4.13931C10.5397 4.12924 10.4594 4.11274 10.3857 4.08274C10.3087 4.05274 10.2417 4.00967 10.1814 3.95631C10.1244 3.89974 10.0743 3.82988 10.0409 3.74674C10.004 3.6636 9.9873 3.56396 9.9873 3.44761H10.4124C10.4124 3.51746 10.4225 3.57403 10.4392 3.62053C10.4594 3.66703 10.4827 3.70367 10.5129 3.73024C10.5432 3.76024 10.5766 3.77674 10.6166 3.79003C10.6567 3.79989 10.6936 3.80674 10.7339 3.80674C10.7808 3.80674 10.8209 3.8001 10.8577 3.78681C10.8911 3.77353 10.9214 3.75681 10.9447 3.73367C10.9681 3.71374 10.9848 3.68717 10.9983 3.65396C11.0084 3.62396 11.015 3.59075 11.015 3.55432C11.015 3.51446 11.0084 3.47782 10.9983 3.44782C10.9882 3.41461 10.9715 3.38804 10.9447 3.36146C10.9214 3.33811 10.8877 3.31497 10.8509 3.29161C10.8108 3.27168 10.7639 3.24832 10.7069 3.2284C10.6132 3.19175 10.526 3.15533 10.4457 3.11526C10.3687 3.0754 10.3017 3.03211 10.2447 2.97897C10.1877 2.92904 10.1442 2.86583 10.1142 2.7994C10.0839 2.72955 10.0672 2.64641 10.0672 2.54998C10.0672 2.46684 10.0805 2.39377 10.1107 2.32391C10.1375 2.25749 10.1778 2.19749 10.2279 2.14777C10.2781 2.09463 10.3385 2.05478 10.4088 2.02135C10.4825 1.99135 10.5629 1.97142 10.6499 1.96156V1.64893H10.8843V1.96799C10.9681 1.97806 11.045 2.0012 11.1153 2.03785C11.1824 2.07449 11.2426 2.12099 11.2893 2.17756C11.3362 2.23734 11.3731 2.30398 11.3998 2.3837C11.4266 2.4602 11.4399 2.54998 11.4399 2.64641H11.0148C11.0148 2.53005 10.9914 2.44027 10.9411 2.3837C10.8941 2.32713 10.8273 2.29734 10.7469 2.29734C10.7034 2.29734 10.6631 2.30398 10.6331 2.31727C10.5997 2.33056 10.5729 2.34727 10.5528 2.37041C10.5327 2.39355 10.5196 2.42034 10.5095 2.45034Z" fill="black"/>
<path d="M10.7139 0L1.71411 5.61225H19.7138L10.7139 0ZM10.7139 4.86762C9.6961 4.86762 8.8724 4.04971 8.8724 3.03894C8.8724 2.02818 9.6961 1.21026 10.7139 1.21026C11.7318 1.21026 12.5555 2.02818 12.5555 3.03894C12.5555 4.04971 11.7318 4.86762 10.7139 4.86762Z" fill="black"/>
<path d="M20.0885 5.92773H1.33887V6.96207H1.69457C1.68236 7.00429 1.67358 7.04821 1.67358 7.09428C1.67358 7.35999 1.89257 7.57749 2.16021 7.57749H2.51077V15.9518H2.16021C1.89257 15.9518 1.67358 16.1693 1.67358 16.435C1.67358 16.488 1.68429 16.5379 1.70036 16.5857H1.67379V17.5832H19.7538V16.5857H19.727C19.7431 16.5379 19.7538 16.488 19.7538 16.435C19.7538 16.1693 19.5348 15.9518 19.2672 15.9518H18.9166V7.57749H19.2672C19.5348 7.57749 19.7538 7.35999 19.7538 7.09428C19.7538 7.04821 19.745 7.0045 19.7328 6.96207H20.0885V5.92773ZM4.53531 15.9518H4.18474V7.57749H4.53531C4.80294 7.57749 5.02194 7.35999 5.02194 7.09428C5.02194 7.04821 5.01315 7.0045 5.00094 6.96207H9.06072C9.04851 7.00429 9.03972 7.04821 9.03972 7.09428C9.03972 7.35999 9.25872 7.57749 9.52635 7.57749H9.87692V15.9518H9.52635C9.25872 15.9518 9.03972 16.1693 9.03972 16.435C9.03972 16.488 9.05044 16.5379 9.06651 16.5857H4.99516C5.01123 16.5379 5.02194 16.488 5.02194 16.435C5.02194 16.1693 4.80294 15.9518 4.53531 15.9518ZM16.8921 7.57749H17.2426V15.9518H16.8921C16.6244 15.9518 16.4054 16.1693 16.4054 16.435C16.4054 16.488 16.4162 16.5379 16.4322 16.5857H12.3609C12.3769 16.5379 12.3877 16.488 12.3877 16.435C12.3877 16.1693 12.1687 15.9518 11.901 15.9518H11.5505V7.57749H11.901C12.1687 7.57749 12.3877 7.35999 12.3877 7.09428C12.3877 7.04821 12.3789 7.0045 12.3667 6.96207H16.4264C16.4142 7.00429 16.4054 7.04821 16.4054 7.09428C16.4057 7.35999 16.6244 7.57749 16.8921 7.57749Z" fill="black"/>
<path d="M20.4234 18.2109H1.00415V19.2823H20.4234V18.2109Z" fill="black"/>
<path d="M21.4279 19.8179H-0.000244141V21.0001H21.4279V19.8179Z" fill="black"/>
<path d="M11.3934 3.30811C11.4236 3.37454 11.4403 3.45768 11.4403 3.55089C11.4403 3.63724 11.4271 3.71374 11.3968 3.7836C11.3701 3.85003 11.33 3.91003 11.2796 3.95974C11.2295 4.00967 11.1659 4.04952 11.0956 4.07952C11.0219 4.10952 10.9415 4.12945 10.8545 4.13931V4.42859H10.6201V4.13931C10.5397 4.12924 10.4594 4.11274 10.3857 4.08274C10.3087 4.05274 10.2417 4.00967 10.1814 3.95631C10.1244 3.89974 10.0743 3.82988 10.0409 3.74674C10.004 3.6636 9.9873 3.56396 9.9873 3.44761H10.4124C10.4124 3.51746 10.4225 3.57403 10.4392 3.62053C10.4594 3.66703 10.4827 3.70367 10.5129 3.73024C10.5432 3.76024 10.5766 3.77674 10.6166 3.79003C10.6567 3.79989 10.6936 3.80674 10.7339 3.80674C10.7808 3.80674 10.8209 3.8001 10.8577 3.78681C10.8911 3.77353 10.9214 3.75681 10.9447 3.73367C10.9681 3.71374 10.9848 3.68717 10.9983 3.65396C11.0084 3.62396 11.015 3.59075 11.015 3.55432C11.015 3.51446 11.0084 3.47782 10.9983 3.44782C10.9882 3.41461 10.9715 3.38804 10.9447 3.36146C10.9214 3.33811 10.8877 3.31497 10.8509 3.29161C10.8108 3.27168 10.7639 3.24832 10.7069 3.2284C10.6132 3.19175 10.526 3.15533 10.4457 3.11526C10.3687 3.0754 10.3017 3.03211 10.2447 2.97897C10.1877 2.92904 10.1442 2.86583 10.1142 2.7994C10.0839 2.72955 10.0672 2.64641 10.0672 2.54998C10.0672 2.46684 10.0805 2.39377 10.1107 2.32391C10.1375 2.25749 10.1778 2.19749 10.2279 2.14777C10.2781 2.09463 10.3385 2.05478 10.4088 2.02135C10.4825 1.99135 10.5629 1.97142 10.6499 1.96156V1.64893H10.8843V1.96799C10.9681 1.97806 11.045 2.0012 11.1153 2.03785C11.1824 2.07449 11.2426 2.12099 11.2893 2.17756C11.3362 2.23734 11.3731 2.30398 11.3998 2.3837C11.4266 2.4602 11.4399 2.54998 11.4399 2.64641H11.0148C11.0148 2.53005 10.9914 2.44027 10.9411 2.3837C10.8941 2.32713 10.8273 2.29734 10.7469 2.29734C10.7034 2.29734 10.6631 2.30398 10.6331 2.31727C10.5997 2.33056 10.5729 2.34727 10.5528 2.37041C10.5327 2.39355 10.5194 2.42034 10.5093 2.45012C10.4992 2.48334 10.4926 2.51655 10.4926 2.55319C10.4926 2.58984 10.4992 2.61962 10.5093 2.64962C10.5194 2.67962 10.5361 2.70619 10.5594 2.73276C10.5828 2.75612 10.6164 2.77926 10.6533 2.80262C10.6934 2.82255 10.7437 2.8459 10.8039 2.86905C10.8976 2.9089 10.9848 2.94554 11.0617 2.9854C11.1386 3.02526 11.2057 3.07176 11.2627 3.12511C11.3197 3.17847 11.3632 3.23825 11.3934 3.30811Z" fill="black"/>
<path d="M11.2627 3.12511C11.2057 3.07197 11.1389 3.02526 11.0617 2.9854C10.9848 2.94554 10.8976 2.9089 10.8039 2.86905C10.7437 2.84569 10.6934 2.82255 10.6533 2.80262C10.6164 2.77926 10.583 2.75612 10.5594 2.73276C10.5361 2.70619 10.5194 2.67962 10.5093 2.64962C10.4992 2.61962 10.4926 2.58984 10.4926 2.55319C10.4926 2.51655 10.4992 2.48334 10.5093 2.45012C10.5194 2.42013 10.5327 2.39355 10.5528 2.37041C10.5729 2.34727 10.5997 2.33056 10.6331 2.31727C10.6634 2.30398 10.7034 2.29734 10.7469 2.29734C10.8273 2.29734 10.8944 2.32734 10.9411 2.3837C10.9912 2.44027 11.0148 2.53005 11.0148 2.64641H11.4399C11.4399 2.54998 11.4266 2.4602 11.3998 2.3837C11.3731 2.30398 11.3362 2.23734 11.2893 2.17756C11.2424 2.12099 11.1821 2.07449 11.1153 2.03785C11.045 2.0012 10.9679 1.97806 10.8843 1.96799V1.64893H10.6499V1.96156C10.5629 1.97142 10.4825 1.99156 10.4088 2.02135C10.3385 2.05456 10.2783 2.09442 10.2279 2.14777C10.1778 2.1977 10.1375 2.25749 10.1107 2.32391C10.0805 2.39377 10.0672 2.46684 10.0672 2.54998C10.0672 2.64641 10.0839 2.72955 10.1142 2.7994C10.1444 2.86583 10.1879 2.92904 10.2447 2.97897C10.3017 3.03211 10.3685 3.0754 10.4457 3.11526C10.526 3.15511 10.613 3.19175 10.7069 3.2284C10.7639 3.24832 10.8106 3.27168 10.8509 3.29161C10.8877 3.31497 10.9211 3.33811 10.9447 3.36146C10.9715 3.38804 10.9882 3.41461 10.9983 3.44782C11.0084 3.47782 11.015 3.51425 11.015 3.55432C11.015 3.59096 11.0084 3.62417 10.9983 3.65396C10.985 3.68717 10.9681 3.71374 10.9447 3.73367C10.9214 3.75703 10.8911 3.77353 10.8577 3.78681C10.8209 3.8001 10.7808 3.80674 10.7339 3.80674C10.6938 3.80674 10.6569 3.8001 10.6166 3.79003C10.5766 3.77674 10.5429 3.76003 10.5129 3.73024C10.4827 3.70367 10.4594 3.66703 10.4392 3.62053C10.4225 3.57403 10.4124 3.51746 10.4124 3.44761H9.9873C9.9873 3.56396 10.004 3.66382 10.0409 3.74674C10.0743 3.82988 10.1247 3.89974 10.1814 3.95631C10.2417 4.00945 10.3087 4.05274 10.3857 4.08274C10.4594 4.11274 10.5397 4.12924 10.6201 4.13931V4.42859H10.8545V4.13931C10.9415 4.12924 11.0219 4.10931 11.0956 4.07952C11.1659 4.04952 11.2295 4.00967 11.2796 3.95974C11.3298 3.90981 11.3701 3.85003 11.3968 3.7836C11.4271 3.71374 11.4403 3.63724 11.4403 3.55089C11.4403 3.45789 11.4236 3.37475 11.3934 3.30811C11.363 3.23825 11.3195 3.17847 11.2627 3.12511Z" fill="black"/>
</svg>
