<svg width="8" height="11" viewBox="0 0 8 11" fill="none" xmlns="http://www.w3.org/2000/svg">
<path d="M4 0C2.93913 0 1.92172 0.441464 1.17157 1.22727C0.421427 2.01308 0 3.07887 0 4.19017C0 6.45883 2.22637 9.36799 3.35589 10.6979C3.43689 10.7929 3.53614 10.869 3.64714 10.921C3.75814 10.9731 3.87838 11 4 11C4.12162 11 4.24186 10.9731 4.35286 10.921C4.46386 10.869 4.56311 10.7929 4.64411 10.6979C5.77363 9.36799 8 6.45883 8 4.19017C8 3.07887 7.57857 2.01308 6.82843 1.22727C6.07828 0.441464 5.06087 0 4 0ZM4 6.49061C3.56557 6.49109 3.14076 6.35659 2.77931 6.10411C2.41787 5.85162 2.13604 5.49251 1.96947 5.07221C1.8029 4.6519 1.75908 4.18928 1.84355 3.74288C1.92802 3.29648 2.13698 2.88635 2.44401 2.56438C2.75104 2.24242 3.14233 2.02308 3.56838 1.93412C3.99444 1.84515 4.4361 1.89057 4.83751 2.06461C5.23892 2.23865 5.58203 2.5335 5.82344 2.91186C6.06484 3.29022 6.1937 3.73508 6.1937 4.19017C6.19401 4.49215 6.13749 4.79124 6.02738 5.07033C5.91728 5.34941 5.75574 5.60303 5.55201 5.81668C5.34827 6.03033 5.10634 6.19981 4.84003 6.31545C4.57373 6.43109 4.28828 6.49061 4 6.49061Z" fill="#777777"/>
</svg>
