<svg width="88" height="86" viewBox="0 0 88 86" fill="none" xmlns="http://www.w3.org/2000/svg">
<path d="M86.1203 26.598C85.2141 23.7386 76.8859 -1.27699 64.5263 0.0510141C57.6513 0.754134 53.2143 9.39481 50.9483 15.363C42.1045 12.9099 29.9643 18.8318 21.7143 30.301H21.7104C20.3979 32.1526 19.1909 34.0783 18.101 36.0666C19.2377 36.4143 20.308 36.9416 21.2729 37.6291C26.0581 41.0783 27.1479 47.7461 23.7104 52.5391C22.8042 53.7461 21.1948 55.8633 19.726 54.2579C19.183 53.5899 19.2729 52.6095 19.9291 52.0548C22.2338 50.0782 23.1361 46.9181 22.226 44.0236C21.312 41.1252 18.7612 39.0548 15.7416 38.7541C17.4018 39.9338 18.6244 41.633 19.2104 43.5861C20.2026 47.1369 18.5464 51.5002 16.7573 51.4611C16.1831 51.4533 15.6596 51.1408 15.3862 50.6369C15.1128 50.133 15.1362 49.5197 15.4448 49.0392C17.8237 45.7306 15.5933 40.7423 10.8042 40.008C8.42533 41.6408 7.17533 44.4768 7.57763 47.3322C7.97997 50.1916 9.96043 52.5744 12.6948 53.4924C11.1557 53.0197 10.5932 54.6838 10.2573 55.8674C9.03463 59.6643 8.80813 58.5705 12.2573 59.9768C13.8432 60.6995 15.2846 61.6995 16.5229 62.9299C16.9604 63.3791 17.0854 64.0432 16.8432 64.6213C16.605 65.2033 16.0385 65.5783 15.4135 65.5861C13.9877 65.4338 13.3158 63.7931 11.4604 63.0392C8.35884 61.5939 8.36664 61.5392 7.81984 64.9923C9.98394 65.4181 16.2534 68.2189 14.1636 70.6485C13.8707 70.9454 13.4722 71.1134 13.0581 71.1173C12.6402 71.1212 12.2417 70.9571 11.9448 70.6642C10.6714 69.4064 9.08544 68.5158 7.35104 68.0861C6.75729 73.1486 7.38229 77.5549 10.3822 79.7111C14.0931 82.1173 18.1869 80.7033 22.3822 78.8517C21.4252 77.3751 20.0931 76.1798 18.5228 75.3829C17.7572 74.9923 17.4486 74.0548 17.8353 73.2891C19.2259 71.1602 21.5111 73.5547 23.1947 74.9297C25.5228 77.2656 24.4799 78.125 27.7885 75.8516C26.6635 73.9258 25.0033 72.375 23.0073 71.3828C22.2495 70.9921 21.9448 70.0625 22.3237 69.2969C22.7066 68.5351 23.6285 68.2149 24.398 68.5859C25.9292 69.3515 27.3199 70.3711 28.5074 71.6015C30.7965 74.2773 29.9018 74.6288 33.0229 72.2109C34.0307 71.5 35.4683 70.4921 34.5074 69.1484C37.9527 74.2187 46.5153 72.664 47.9133 66.6953C45.7414 62.3164 40.2376 61.8633 37.8664 65.1484C37.3312 65.8047 36.3663 65.914 35.6983 65.3906C35.0304 64.8672 34.9015 63.9023 35.4132 63.2265C36.9718 61.2304 39.3077 59.996 41.8351 59.8359C43.8781 59.7656 45.8859 60.3945 47.5226 61.6171C47.1749 60.7812 46.6671 60.0194 46.0226 59.3827C44.2296 57.5819 41.6515 56.8007 39.1593 57.2968C36.6671 57.7929 34.589 59.4999 33.6163 61.8515C33.2804 62.6327 32.3819 63.0077 31.589 62.6874C30.7999 62.3671 30.4093 61.4765 30.7101 60.6796C32.1984 57.1015 35.4992 54.6015 39.3468 54.1405C43.1945 53.6757 46.9952 55.3202 49.2882 58.4452C59.257 48.4999 64.6862 30.7612 59.007 21.6912C63.4484 0.484234 74.632 18.9881 81.116 29.2224C83.5066 33.0662 84.5066 34.6599 85.6472 34.6599C87.8816 34.117 88.1594 33.391 86.1203 26.598ZM19.3353 60.008C19.097 60.3479 18.7298 60.5822 18.3158 60.6565C17.9057 60.7268 17.4799 60.633 17.14 60.3908C16.7963 60.1526 16.5619 59.7854 16.4916 59.3713C16.4213 58.9612 16.515 58.5354 16.7572 58.1955C17.2572 57.4846 18.2416 57.3127 18.9525 57.8127C19.6634 58.3127 19.8353 59.2932 19.3353 60.008ZM28.4915 66.6018C28.2493 66.9495 27.8782 67.1878 27.4603 67.2581C27.0423 67.3284 26.6127 67.2268 26.2689 66.9729C25.9291 66.7229 25.7025 66.344 25.6439 65.9221C25.5853 65.5041 25.6986 65.0744 25.9603 64.7424C26.4838 64.0705 27.4447 63.9377 28.1283 64.4416C28.8158 64.9455 28.9759 65.9025 28.4915 66.6018Z" fill="black"/>
<path d="M28.6953 77.9141C29.1328 79.2774 29.3281 80.7032 29.2734 82.1329C29.2656 82.547 29.4218 82.9493 29.7109 83.2462C29.9961 83.547 30.3906 83.7189 30.8047 83.7267C31.2188 83.7345 31.6211 83.5782 31.918 83.2892C32.2188 83.004 32.3907 82.6095 32.3985 82.1954C32.5078 79.3634 31.8125 76.5587 30.3985 74.1016C29.5391 74.7109 28.6641 75.2891 27.7891 75.8516C28.1641 76.5039 28.4687 77.1954 28.6953 77.9141Z" fill="black"/>
<path d="M23.3047 80.711C24.1836 82.2071 23.0508 85.4922 25.4453 85.6016C28.6562 85.3242 26.1524 78.9922 25.1797 77.4141C24.2422 77.9453 23.3203 78.4297 22.3828 78.8516C22.7656 79.4297 23.0743 80.0547 23.3047 80.711Z" fill="black"/>
<path d="M6.2585 58.6967C4.5905 58.8803 -0.675101 58.9311 0.117899 61.6811C0.258519 62.0717 0.547589 62.3881 0.922589 62.5639C1.29759 62.7397 1.72728 62.7592 2.11789 62.6186C4.13739 61.849 6.32879 61.6381 8.46169 62.0092C9.30544 58.9154 9.9538 58.6576 6.2585 58.6967Z" fill="black"/>
<path d="M5.41311 64.7113C3.71781 64.8519 -0.524392 64.6878 0.0537077 67.3674C0.182618 67.762 0.459958 68.0862 0.831048 68.2737C1.19824 68.4612 1.62793 68.4964 2.02245 68.3674C3.73725 67.7815 5.58105 67.6839 7.35055 68.0862C7.47946 65.6253 8.84671 64.5863 5.41311 64.7113Z" fill="black"/>
</svg>
