<svg width="80" height="39" viewBox="0 0 80 39" fill="none" xmlns="http://www.w3.org/2000/svg">
<path d="M60.6339 4.67573C59.5441 4.01948 58.2158 3.89057 57.0244 4.32807C55.54 4.73041 54.5714 6.14837 54.7393 7.67577C54.7314 8.24218 54.3955 8.74607 53.876 8.96877C53.3603 9.18361 52.7666 9.06642 52.3682 8.67971C46.3682 2.85941 40.0362 0.00390625 33.1382 0.00390625V0C31.607 0.003906 30.0796 0.136721 28.5757 0.394531C23.6968 1.26172 19.2827 3.82033 16.1067 7.62113C12.9309 11.4219 11.1965 16.2227 11.2083 21.1761V21.4105C11.2161 21.8793 10.8723 22.2816 10.4114 22.348C4.70439 23.184 1.29419 25.0863 0.270388 28.0082C-0.335082 29.9613 0.0906982 32.0863 1.40319 33.6488C3.52039 36.3285 6.87589 38.0707 11.7042 38.9496C6.31749 36.9262 2.02449 34.1488 2.12609 30.0863C2.68078 25.3558 8.52449 25.4925 11.0206 25.5394H38.0866C37.1842 21.4535 34.2936 18.0902 30.3835 16.5902C29.9304 16.3832 29.7194 15.8519 29.9069 15.391C30.0944 14.9262 30.614 14.6918 31.0866 14.8559C35.6921 16.6567 39.0593 20.6879 40.0163 25.5399H78.9143C79.3089 25.5438 79.6721 25.3289 79.8518 24.9774C80.0432 24.6453 80.0276 24.2352 79.8167 23.9188C75.844 17.9266 70.1605 13.2628 63.5077 10.5358C62.6874 10.1803 62.1757 9.34825 62.2225 8.45765C62.3553 6.64905 61.8475 5.44985 60.6327 4.67645L60.6339 4.67573ZM65.5322 14.7777C66.6025 14.7738 67.5713 15.4183 67.9814 16.4066C68.3955 17.3949 68.1689 18.5355 67.415 19.2933C66.6572 20.0511 65.5205 20.2816 64.5283 19.8714C63.5401 19.4652 62.8916 18.5003 62.8916 17.43C62.8916 15.9691 64.0752 14.7855 65.5322 14.7816L65.5322 14.7777Z" fill="black"/>
</svg>
