<svg width="23" height="21" viewBox="0 0 23 21" fill="none" xmlns="http://www.w3.org/2000/svg">
<path fill-rule="evenodd" clip-rule="evenodd" d="M3.10852 14.3743H1.363C1.24355 14.3743 1.14196 14.4611 1.12334 14.579L0.417358 19.055C0.403327 19.1433 0.471727 19.223 0.561316 19.223H1.39464C1.51409 19.223 1.61568 19.1361 1.63431 19.018L1.82472 17.8108C1.84309 17.6926 1.94492 17.6059 2.06412 17.6059H2.6167C3.76653 17.6059 4.4301 17.0494 4.60349 15.9468C4.68156 15.4645 4.60679 15.0854 4.38084 14.8199C4.1328 14.5285 3.69271 14.3743 3.10852 14.3743ZM3.3099 16.0091C3.21447 16.6354 2.7359 16.6354 2.27316 16.6354H2.00976L2.19455 15.4656C2.20552 15.395 2.26677 15.3429 2.33824 15.3429H2.45897C2.77418 15.3429 3.07155 15.3429 3.22522 15.5226C3.31676 15.6298 3.34487 15.789 3.3099 16.0091ZM8.32632 15.989H7.49042C7.4192 15.989 7.35766 16.0411 7.34668 16.1118L7.30971 16.3456L7.25124 16.2609C7.07029 15.9982 6.66682 15.9105 6.26405 15.9105C5.34028 15.9105 4.5514 16.61 4.39773 17.5915C4.31789 18.0809 4.4314 18.549 4.70908 18.8755C4.96385 19.1756 5.32835 19.3007 5.76195 19.3007C6.50618 19.3007 6.91899 18.8221 6.91899 18.8221L6.88167 19.0544C6.86761 19.1432 6.936 19.2228 7.02506 19.2228H7.77803C7.8978 19.2228 7.99879 19.136 8.01768 19.0179L8.46947 16.157C8.48376 16.069 8.41561 15.989 8.32632 15.989ZM7.16112 17.6159C7.08045 18.0934 6.70142 18.414 6.2181 18.414C5.97538 18.414 5.78132 18.3362 5.65683 18.1886C5.53328 18.0422 5.48627 17.8336 5.5256 17.6014C5.60096 17.1279 5.98636 16.7969 6.46236 16.7969C6.69965 16.7969 6.89265 16.8757 7.01974 17.0245C7.14707 17.1749 7.19762 17.3846 7.16112 17.6159ZM11.9381 15.9889H12.7781C12.8958 15.9889 12.9644 16.1208 12.8976 16.2173L10.1038 20.25C10.0586 20.3153 9.98404 20.3541 9.90443 20.3541H9.06547C8.94736 20.3541 8.87838 20.2211 8.94677 20.1244L9.81667 18.8965L8.89149 16.1813C8.85948 16.0869 8.92917 15.9889 9.02956 15.9889H9.85494C9.96219 15.9889 10.0568 16.0593 10.0877 16.1619L10.5787 17.8018L11.7373 16.0953C11.7827 16.0287 11.858 15.9889 11.9381 15.9889Z" fill="#253B80"/>
<path fill-rule="evenodd" clip-rule="evenodd" d="M21.0455 19.0551L21.7619 14.4972C21.7729 14.4265 21.8342 14.3744 21.9054 14.3741H22.7119C22.8009 14.3741 22.8693 14.454 22.8553 14.5423L22.1488 19.0181C22.1304 19.1363 22.0288 19.2231 21.9092 19.2231H21.1889C21.0999 19.2231 21.0315 19.1435 21.0455 19.0551ZM15.5593 14.3744H13.8134C13.6943 14.3744 13.5927 14.4612 13.574 14.5791L12.868 19.0551C12.854 19.1435 12.9224 19.2231 13.0116 19.2231H13.9073C13.9906 19.2231 14.0618 19.1624 14.0748 19.0797L14.2751 17.8109C14.2936 17.6927 14.3954 17.606 14.5146 17.606H15.0669C16.2169 17.606 16.8804 17.0495 17.0539 15.9469C17.1322 15.4646 17.057 15.0855 16.8311 14.82C16.5832 14.5286 16.1435 14.3744 15.5593 14.3744ZM15.7607 16.0092C15.6655 16.6356 15.1869 16.6356 14.7239 16.6356H14.4607L14.6458 15.4658C14.6568 15.3951 14.7175 15.343 14.7892 15.343H14.9099C15.2249 15.343 15.5225 15.343 15.6761 15.5227C15.7677 15.6299 15.7956 15.7891 15.7607 16.0092ZM20.7766 15.9891H19.9413C19.8695 15.9891 19.8085 16.0412 19.7978 16.112L19.7608 16.3457L19.7021 16.261C19.5212 15.9983 19.1179 15.9106 18.7152 15.9106C17.7914 15.9106 17.0027 16.6102 16.8491 17.5916C16.7695 18.081 16.8825 18.5491 17.1602 18.8756C17.4154 19.1757 17.7795 19.3008 18.2131 19.3008C18.9573 19.3008 19.37 18.8222 19.37 18.8222L19.3328 19.0545C19.3187 19.1433 19.3871 19.2229 19.4768 19.2229H20.2294C20.3485 19.2229 20.4501 19.1361 20.4688 19.018L20.9208 16.1571C20.9346 16.0691 20.8662 15.9891 20.7766 15.9891ZM19.6115 17.616C19.5313 18.0935 19.1518 18.4141 18.6684 18.4141C18.4261 18.4141 18.2317 18.3363 18.1071 18.1887C17.9836 18.0423 17.9371 17.8337 17.976 17.6015C18.0517 17.128 18.4366 16.797 18.9126 16.797C19.15 16.797 19.3429 16.8758 19.4701 17.0246C19.5979 17.175 19.6485 17.3847 19.6115 17.616Z" fill="#179BD7"/>
<path d="M9.5684 12.7729L9.78302 11.4099L9.30501 11.3988H7.02246L8.60873 1.34068C8.61357 1.31031 8.62963 1.282 8.65302 1.2619C8.67641 1.24179 8.70641 1.23071 8.73759 1.23071H12.5863C13.8641 1.23071 14.7458 1.4966 15.2062 2.02139C15.422 2.26759 15.5595 2.52485 15.626 2.80797C15.6957 3.10505 15.697 3.45997 15.6288 3.89286L15.6239 3.92445V4.20182L15.8398 4.3241C16.0215 4.42052 16.1659 4.53089 16.2767 4.65728C16.4614 4.86777 16.5808 5.13529 16.6313 5.45247C16.6833 5.77867 16.6661 6.16683 16.5808 6.60628C16.4823 7.1118 16.3231 7.55207 16.1081 7.91233C15.9103 8.24427 15.6583 8.51954 15.3593 8.73297C15.0737 8.93565 14.7343 9.08955 14.3507 9.18806C13.9789 9.2848 13.5551 9.3337 13.0902 9.3337H12.7907C12.5765 9.3337 12.3684 9.41082 12.2052 9.54913C12.0415 9.69028 11.933 9.88304 11.8999 10.094L11.8773 10.2167L11.4981 12.619L11.4809 12.7073C11.4764 12.7353 11.4686 12.7492 11.4572 12.7586C11.4469 12.7671 11.4321 12.7729 11.4177 12.7729H9.5684Z" fill="#253B80"/>
<path d="M16.0443 3.95667C16.0328 4.03011 16.0197 4.10519 16.005 4.18233C15.4973 6.78826 13.7609 7.6885 11.5431 7.6885H10.4139C10.1427 7.6885 9.91418 7.88545 9.8719 8.15297L9.29373 11.8196L9.13003 12.8589C9.10251 13.0345 9.23798 13.1929 9.41515 13.1929H11.418C11.6552 13.1929 11.8566 13.0206 11.8939 12.7867L11.9136 12.6849L12.2908 10.2919L12.315 10.1607C12.3518 9.92602 12.5537 9.75369 12.7908 9.75369H13.0904C15.0308 9.75369 16.5498 8.96587 16.9938 6.6861C17.1792 5.73374 17.0832 4.93856 16.5925 4.37929C16.444 4.21065 16.2597 4.07073 16.0443 3.95667Z" fill="#179BD7"/>
<path d="M15.513 3.74505C15.4356 3.72247 15.3555 3.70196 15.2734 3.6835C15.191 3.66545 15.1064 3.64944 15.0195 3.63549C14.715 3.58625 14.3814 3.56287 14.024 3.56287H11.0074C10.9331 3.56287 10.8626 3.57969 10.7994 3.61005C10.6602 3.67693 10.5569 3.80865 10.5318 3.9699L9.89001 8.03451L9.87158 8.15308C9.91387 7.88556 10.1424 7.6886 10.4136 7.6886H11.5428C13.7606 7.6886 15.4971 6.78796 16.0046 4.18244C16.0198 4.1053 16.0325 4.03022 16.044 3.95678C15.9156 3.88866 15.7764 3.83039 15.6267 3.78074C15.5898 3.76843 15.5517 3.75654 15.513 3.74505Z" fill="#222D65"/>
<path d="M10.5321 3.96983C10.5572 3.80857 10.6607 3.67686 10.7997 3.61038C10.8633 3.58002 10.9335 3.5632 11.0077 3.5632H14.0244C14.3818 3.5632 14.7154 3.58658 15.0198 3.63582C15.1068 3.64977 15.1914 3.66578 15.2738 3.68383C15.3559 3.7023 15.4359 3.72282 15.5135 3.74538C15.552 3.75687 15.5901 3.76876 15.6275 3.78067C15.7772 3.83031 15.9164 3.88899 16.0447 3.95669C16.1958 2.99368 16.0436 2.33799 15.5229 1.74426C14.9489 1.09063 13.9128 0.810791 12.5871 0.810791H8.73823C8.4674 0.810791 8.23648 1.00773 8.19455 1.27568L6.59152 11.4372C6.55986 11.6382 6.71494 11.8196 6.91763 11.8196H9.29384L9.89043 8.03443L10.5321 3.96983Z" fill="#253B80"/>
</svg>
