<svg width="45" height="46" viewBox="0 0 45 46" fill="none" xmlns="http://www.w3.org/2000/svg">
<path d="M43.8209 21.4751H42.3596C41.7468 11.4815 33.7801 3.51483 23.7865 2.90201V1.44067C23.7865 0.780715 23.268 0.262177 22.608 0.262177C21.948 0.262177 21.4295 0.780715 21.4295 1.44067V2.90201C11.4358 3.51483 3.4692 11.4815 2.85639 21.4751H1.39505C0.735091 21.4751 0.216553 21.9937 0.216553 22.6536C0.216553 23.3136 0.735091 23.8321 1.39505 23.8321H2.85639C3.4692 33.7786 11.4358 41.7924 21.3824 42.3581V43.8666C21.3824 44.5265 21.9009 45.0451 22.5609 45.0451C23.2208 45.0451 23.7394 44.5265 23.7394 43.8666V42.4052C33.6859 41.7924 41.6996 33.8258 42.2653 23.8793H43.8209C44.4809 23.8793 44.9994 23.3607 44.9994 22.7008C44.9994 22.0408 44.4809 21.4751 43.8209 21.4751ZM23.7865 40.0011V38.6812C23.7865 38.0212 23.268 37.5027 22.608 37.5027C21.948 37.5027 21.4295 38.0212 21.4295 38.6812V40.0011C12.8029 39.3883 5.87334 32.5059 5.26052 23.8321H6.58044C7.24039 23.8321 7.75893 23.3136 7.75893 22.6536C7.75893 21.9937 7.24039 21.4751 6.58044 21.4751H5.26052C5.87334 12.8485 12.7558 5.91896 21.4295 5.30614V6.62606C21.4295 7.28602 21.948 7.80456 22.608 7.80456C23.268 7.80456 23.7865 7.28602 23.7865 6.62606V5.30614C32.4131 5.91896 39.3427 12.8014 39.9555 21.4751H38.6356C37.9756 21.4751 37.4571 21.9937 37.4571 22.6536C37.4571 23.3136 37.9756 23.8321 38.6356 23.8321H39.9555C39.3427 32.5059 32.4602 39.3883 23.7865 40.0011Z" fill="black"/>
<path d="M32.6018 26.2834L30.5748 25.2935L30.1506 23.0308C30.1034 22.7951 29.962 22.5594 29.7734 22.4179C29.5849 22.2765 29.302 22.2294 29.0664 22.2765L24.7295 23.2664C24.7295 23.2664 24.6823 23.2665 24.6823 23.2193C24.7295 22.9836 24.7766 22.7951 24.8238 22.5594L28.4535 20.8152C28.7364 20.6738 28.9249 20.4381 28.9721 20.1552L29.5377 16.9497L31.659 16.2426C32.1304 16.1012 32.4133 15.5827 32.2247 15.1113C32.0833 14.6399 31.5648 14.357 31.0934 14.5456L28.4535 15.3941C28.1236 15.4884 27.8879 15.7712 27.8407 16.1012L27.275 19.401L24.9652 20.5323C24.8709 19.6367 24.5409 18.8353 24.1638 18.1282C25.248 17.9396 26.0023 17.374 26.0023 16.1012C26.0023 15.6298 25.9551 15.1113 25.8137 14.5927L27.0865 13.2728C28.2178 12.0943 28.5007 10.3501 27.7936 8.84165C27.605 8.46453 27.1808 8.32311 26.8036 8.51167C26.4265 8.70023 26.2851 9.12449 26.4737 9.50161C26.8979 10.4444 26.7565 11.5286 26.0494 12.2829L25.4837 12.8957C25.4837 12.8957 24.5881 10.1616 23.4096 9.97301C23.4096 10.303 23.4096 11.1044 23.4096 11.8586C23.0796 11.8115 22.8439 11.7643 22.6082 11.7643C22.3725 11.7643 22.1368 11.8115 21.9482 11.8586C21.9482 11.1044 21.9482 10.303 21.9482 9.97301C20.7226 10.1616 19.8741 12.8957 19.8741 12.8957L19.3084 12.2829C18.6013 11.5286 18.4127 10.4444 18.8841 9.50161C19.0727 9.12449 18.8841 8.70023 18.5542 8.51167C18.177 8.32311 17.7528 8.51167 17.5642 8.84165C16.8571 10.3501 17.14 12.0472 18.2713 13.2728L19.5441 14.5927C19.4027 15.1113 19.3555 15.6298 19.3555 16.1012C19.3555 17.374 20.1098 17.8925 21.194 18.1282C20.8169 18.8353 20.4869 19.6367 20.3926 20.5323L18.0828 19.401L17.5171 16.1012C17.4699 15.7712 17.2342 15.4884 16.9043 15.3941L14.2644 14.5456C13.793 14.4042 13.2745 14.6399 13.1331 15.1113C12.9917 15.5827 13.2274 16.1012 13.6988 16.2426L15.82 16.9497L16.3857 20.1552C16.4329 20.4381 16.6214 20.6738 16.9043 20.8152L20.534 22.5594C20.5812 22.7951 20.6283 23.0308 20.6755 23.2193C20.6755 23.2193 20.6283 23.2193 20.6283 23.2664L16.2914 22.2765C16.0557 22.2294 15.82 22.2765 15.5843 22.4179C15.3958 22.5594 15.2544 22.7479 15.2072 23.0308L14.783 25.2935L12.756 26.2834C12.2846 26.5191 12.096 27.0376 12.3317 27.509C12.4731 27.839 12.8031 28.0276 13.1331 28.0276C13.2745 28.0276 13.4159 27.9804 13.5102 27.9333L15.9615 26.7548C16.1972 26.6134 16.3857 26.3777 16.48 26.0948L16.81 24.3035L19.5441 24.9163C19.4498 25.2463 19.4027 25.6234 19.4027 26.0477L16.3857 27.7447C16.1029 27.8862 15.9143 28.2161 15.9143 28.5461V32.3644L13.8873 33.2601C13.4159 33.4487 13.2274 34.0143 13.4159 34.4386C13.5573 34.7686 13.8873 35.0043 14.2644 35.0043C14.4058 35.0043 14.5001 34.9571 14.6415 34.91L17.1871 33.7786C17.5171 33.6372 17.7528 33.3072 17.7528 32.9301V29.0647L19.497 28.0747C19.8741 30.9031 21.194 34.0615 22.7025 34.0615C24.2581 34.0615 25.5309 30.9031 25.908 28.0747L27.6522 29.0647V33.0244C27.6522 33.4015 27.8879 33.7315 28.2178 33.8729L30.7634 35.0043C30.9048 35.0514 30.9991 35.0986 31.1405 35.0986C31.4705 35.0986 31.8476 34.91 31.989 34.5329C32.1776 34.0615 31.989 33.5429 31.5176 33.3544L29.4906 32.4587V28.6404C29.4906 28.3104 29.302 28.0276 29.0192 27.839L26.0023 26.142C26.0023 25.7177 25.908 25.3406 25.8608 25.0106L28.595 24.3978L28.9249 26.1891C28.9721 26.472 29.1606 26.7077 29.4435 26.8491L31.8947 28.0276C32.0362 28.0747 32.1776 28.1219 32.2719 28.1219C32.6018 28.1219 32.9318 27.9333 33.0732 27.6033C33.2618 27.0376 33.0732 26.5191 32.6018 26.2834Z" fill="black"/>
</svg>
