<svg width="48" height="47" viewBox="0 0 48 47" fill="none" xmlns="http://www.w3.org/2000/svg">
<path fill-rule="evenodd" clip-rule="evenodd" d="M2.93573 24.6676L1.33496 24.6496C0.784081 24.6436 0.342959 24.1926 0.348937 23.6417C0.354925 23.0908 0.806017 22.6497 1.35693 22.6557L2.93374 22.6736C3.43074 11.9937 12.0035 3.41117 22.6803 2.89612L22.6982 1.29541C22.7042 0.744546 23.1553 0.303439 23.7062 0.309417C24.2571 0.315405 24.6982 0.766481 24.6922 1.31738L24.6743 2.89413C30.8259 3.17954 36.281 6.14549 39.9018 10.6484C40.2471 11.0775 40.1792 11.7062 39.7501 12.0515C39.3209 12.3968 38.6922 12.3289 38.3469 11.8998C35.0894 7.84611 30.1851 5.16952 24.6544 4.89208L24.6404 6.21136C24.6344 6.76222 24.1833 7.20333 23.6324 7.19735C23.0815 7.19136 22.6404 6.74028 22.6464 6.18939L22.6603 4.89606C13.0898 5.41698 5.41503 13.1153 4.93217 22.6957L6.2515 22.7096C6.80237 22.7156 7.2435 23.1667 7.23752 23.7176C7.23153 24.2685 6.78044 24.7096 6.22952 24.7036L4.93615 24.6896C5.45709 34.2598 13.1557 41.9343 22.7364 42.4151L22.7504 41.0959C22.7563 40.545 23.2074 40.1039 23.7584 40.1099C24.3092 40.1159 24.7504 40.5669 24.7444 41.1178L24.7304 42.4112C34.3009 41.8902 41.9757 34.1919 42.4565 24.6115L41.1372 24.5976C40.5863 24.5916 40.1452 24.1405 40.1512 23.5896C40.1572 23.0388 40.6083 22.5976 41.1592 22.6036L42.4526 22.6176C42.3088 19.967 41.6143 17.4621 40.4805 15.2149C40.233 14.7239 40.4306 14.1231 40.9216 13.8756C41.4126 13.6281 42.0134 13.8257 42.2609 14.3167C43.5344 16.8396 44.3068 19.6577 44.4506 22.6397L46.0513 22.6576C46.6022 22.6636 47.0433 23.1147 47.0373 23.6656C47.0314 24.2164 46.5803 24.6576 46.0294 24.6516L44.4525 24.6336C43.9555 35.3136 35.3828 43.8961 24.706 44.4111L24.6881 46.0118C24.6821 46.5627 24.231 47.0038 23.6801 46.9978C23.1291 46.9919 22.6881 46.5408 22.694 45.9899L22.712 44.4131C12.0317 43.9161 3.44885 35.3437 2.93379 24.6673L2.93573 24.6676ZM16.3426 26.4879C15.2409 26.7134 14.0632 27.1206 13.197 27.8591C12.7778 28.2163 12.1471 28.1664 11.7898 27.7473C11.4325 27.3281 11.4824 26.6974 11.9016 26.3402C13.1132 25.3083 14.8177 24.7794 16.3087 24.5079C16.3706 23.0649 16.6241 21.7995 17.0293 20.7137C15.6102 19.9433 13.8557 18.5941 12.8357 16.3347C12.6082 15.8337 12.8318 15.2409 13.3347 15.0154C13.8357 14.7878 14.4285 15.0114 14.6541 15.5144C15.4485 17.2728 16.8098 18.3326 17.9195 18.9433C18.3766 18.2507 18.9135 17.6719 19.5123 17.2089C19.5003 17.0831 19.4943 16.9554 19.4943 16.8277C19.4943 15.3846 20.2328 14.1132 21.3506 13.3708C21.2368 13.1831 21.1031 12.9835 20.9474 12.7939C20.666 12.4506 20.3226 12.1053 19.8755 12.0434C19.3306 11.9656 18.9494 11.4607 19.0272 10.9158C19.1051 10.3709 19.61 9.98966 20.1549 10.0675C21.0991 10.2012 21.9014 10.808 22.4942 11.5325C22.8136 11.9237 23.0711 12.3448 23.2627 12.6981C23.3884 12.6861 23.5142 12.6801 23.6419 12.6801C23.8036 12.6801 23.9653 12.6901 24.1209 12.7081C24.3126 12.3508 24.57 11.9277 24.8934 11.5305C25.4862 10.8059 26.2866 10.1992 27.2327 10.0655C27.7776 9.98762 28.2826 10.3688 28.3604 10.9137C28.4382 11.4586 28.057 11.9636 27.5121 12.0414C27.063 12.1053 26.7216 12.4486 26.4402 12.7919C26.2705 12.9995 26.1248 13.217 26.0071 13.4206C27.0829 14.1691 27.7895 15.4165 27.7895 16.8257C27.7895 16.9534 27.7835 17.0812 27.7715 17.2069C28.3823 17.6779 28.9312 18.2707 29.3923 18.9833C30.516 18.3805 31.9232 17.3127 32.7356 15.5124C32.9631 15.0114 33.5539 14.7878 34.0549 15.0134C34.5559 15.2409 34.7795 15.8317 34.5539 16.3327C33.512 18.638 31.7056 19.9972 30.2705 20.7577C30.6637 21.8295 30.9092 23.0729 30.9731 24.49C32.4901 24.7535 34.2465 25.2824 35.486 26.3402C35.9052 26.6975 35.9551 27.3282 35.5978 27.7474C35.2405 28.1665 34.6098 28.2164 34.1906 27.8591C33.2984 27.0967 32.0709 26.6875 30.9411 26.466C30.8074 28.1785 30.3943 29.6255 29.7775 30.8011C31.043 31.9049 32.2505 33.6034 32.492 36.1482C32.5439 36.6971 32.1408 37.1841 31.5919 37.236C31.043 37.2879 30.556 36.8847 30.5041 36.3359C30.3324 34.5295 29.518 33.2821 28.6298 32.4458C27.3065 33.8869 25.542 34.6154 23.6399 34.6154C21.7397 34.6154 19.9732 33.8869 18.6499 32.4458C17.7617 33.2841 16.9473 34.5295 16.7757 36.3359C16.7238 36.8847 16.2367 37.2879 15.6879 37.236C15.139 37.1841 14.7358 36.6971 14.7877 36.1482C15.0292 33.6034 16.2367 31.9049 17.5022 30.8011C16.8855 29.6275 16.4743 28.1884 16.3386 26.482L16.3426 26.4879ZM25.676 16.1293C25.4904 15.5904 25.0952 15.1473 24.5882 14.8978C24.4365 14.8219 24.2729 14.7661 24.1032 14.7281C23.9535 14.6962 23.7998 14.6782 23.6421 14.6782C23.5344 14.6782 23.4266 14.6862 23.3228 14.7022C23.0992 14.7361 22.8857 14.804 22.69 14.8998C22.1851 15.1493 21.7919 15.5904 21.6062 16.1292C22.2549 15.9316 22.9396 15.8318 23.6401 15.8318C24.3427 15.8318 25.0253 15.9316 25.6741 16.1292L25.676 16.1293ZM18.8776 21.5101C18.5861 22.3085 18.3945 23.2306 18.3207 24.2685C18.2987 24.5779 18.2888 24.8972 18.2888 25.2285C18.2888 25.5778 18.3007 25.9171 18.3247 26.2425C18.4245 27.5797 18.7219 28.7214 19.177 29.6535C19.4924 30.3021 19.8836 30.849 20.3347 31.2901C21.2348 32.1703 22.3746 32.6274 23.642 32.6274C24.9095 32.6274 26.0492 32.1683 26.9494 31.2901C27.4005 30.849 27.7917 30.3021 28.1071 29.6535C28.5601 28.7214 28.8596 27.5797 28.9594 26.2405C28.9833 25.9151 28.9953 25.5758 28.9953 25.2285C28.9953 24.8972 28.9833 24.5759 28.9614 24.2665C28.8895 23.2426 28.7019 22.3324 28.4165 21.5421C28.169 20.8535 27.8456 20.2547 27.4644 19.7517C27.3246 19.5681 27.1749 19.3965 27.0193 19.2368C26.5302 18.7398 25.9694 18.3726 25.3526 18.1371C24.8197 17.9335 24.2448 17.8297 23.642 17.8297C23.0392 17.8297 22.4644 17.9335 21.9315 18.1371C21.3147 18.3726 20.7518 18.7418 20.2648 19.2368C20.1191 19.3865 19.9794 19.5462 19.8457 19.7178C19.4564 20.2208 19.1291 20.8195 18.8776 21.5121L18.8776 21.5101Z" fill="black"/>
</svg>
