<svg width="45" height="46" viewBox="0 0 45 46" fill="none" xmlns="http://www.w3.org/2000/svg">
<path d="M43.7357 21.4751H42.2744C41.6616 11.4815 33.6949 3.51483 23.7013 2.90201V1.44067C23.7013 0.780715 23.1827 0.262177 22.5228 0.262177C21.8628 0.262177 21.3443 0.780715 21.3443 1.44067V2.90201C11.3506 3.51483 3.384 11.4815 2.77118 21.4751H1.30984C0.649886 21.4751 0.131348 21.9937 0.131348 22.6536C0.131348 23.3136 0.649886 23.8321 1.30984 23.8321H2.77118C3.384 33.7786 11.3506 41.7924 21.2972 42.3581V43.8666C21.2972 44.5265 21.8157 45.0451 22.4757 45.0451C23.1356 45.0451 23.6541 44.5265 23.6541 43.8666V42.4052C33.6007 41.7924 41.6144 33.8258 42.1801 23.8793H43.7357C44.3957 23.8793 44.9142 23.3607 44.9142 22.7008C44.9142 22.0408 44.3957 21.4751 43.7357 21.4751ZM23.7013 40.0011V38.6812C23.7013 38.0212 23.1827 37.5027 22.5228 37.5027C21.8628 37.5027 21.3443 38.0212 21.3443 38.6812V40.0011C12.7177 39.3883 5.78813 32.5059 5.17531 23.8321H6.49523C7.15519 23.8321 7.67373 23.3136 7.67373 22.6536C7.67373 21.9937 7.15519 21.4751 6.49523 21.4751H5.17531C5.78813 12.8485 12.6706 5.91896 21.3443 5.30614V6.62606C21.3443 7.28602 21.8628 7.80456 22.5228 7.80456C23.1827 7.80456 23.7013 7.28602 23.7013 6.62606V5.30614C32.3279 5.91896 39.2574 12.8014 39.8703 21.4751H38.5503C37.8904 21.4751 37.3718 21.9937 37.3718 22.6536C37.3718 23.3136 37.8904 23.8321 38.5503 23.8321H39.8703C39.2574 32.5059 32.375 39.3883 23.7013 40.0011Z" fill="black"/>
<path d="M35.8161 20.0138C34.6847 16.9497 32.1863 16.8083 28.4623 17.704C28.0851 17.7982 27.708 17.8925 27.3309 17.9397L28.2737 14.4984L31.1021 12.8957C31.4792 12.7071 31.5735 12.2357 31.3849 11.8586C31.1964 11.4815 30.725 11.3872 30.3479 11.5758L27.2366 13.32C27.0481 13.4142 26.9538 13.6028 26.8595 13.7914L25.6339 18.2696C25.021 18.4111 24.5025 18.5053 23.984 18.5996C23.8897 18.1282 23.7954 17.6568 23.654 17.2797C24.5968 17.044 25.2096 16.5255 25.2096 15.3941C25.2096 14.687 24.6439 13.8856 23.984 13.2257C23.7483 12.99 23.4654 12.8014 23.1826 12.7071V11.0101C23.1826 10.5858 22.8526 10.2559 22.4284 10.2559C22.0041 10.2559 21.6741 10.5858 21.6741 11.0101V12.7071C21.3913 12.8014 21.1084 12.99 20.8727 13.2257C20.2599 13.8856 19.6471 14.687 19.6471 15.3941C19.6471 16.5255 20.3071 17.044 21.2027 17.2797C21.0613 17.6568 20.967 18.1282 20.8727 18.5996C20.4013 18.5053 19.8357 18.4111 19.2228 18.2696L17.9972 13.7914C17.9501 13.6028 17.8086 13.4142 17.6201 13.32L14.5089 11.5758C14.1317 11.3872 13.7075 11.4815 13.4718 11.8586C13.2832 12.2357 13.3775 12.66 13.7546 12.8957L16.583 14.4984L17.5258 17.9397C17.1487 17.8454 16.7716 17.7982 16.3945 17.704C12.6233 16.8083 10.172 16.9497 9.04063 20.0138C7.15504 25.1521 15.5459 23.2665 20.5899 21.4752C20.5899 21.8051 20.5899 22.1351 20.5899 22.4179L15.6874 24.5864C15.4517 24.6807 15.3102 24.9164 15.2631 25.1521L14.7917 27.9805L12.6704 29.9603C12.3876 30.2432 12.3404 30.7146 12.6233 30.9974C12.7647 31.1388 12.9532 31.2331 13.1889 31.2331C13.3775 31.2331 13.5661 31.186 13.7075 31.0445L16.0173 28.8761C16.1588 28.7818 16.2059 28.5933 16.253 28.4519L16.6773 25.7649L20.2128 24.2093C20.1185 24.5864 20.0714 25.1049 20.0714 25.7177L17.9029 27.4148C17.7615 27.5562 17.6201 27.7448 17.6201 27.9333L17.4787 31.1388L15.6874 33.8729C15.4517 34.2501 15.5459 34.7215 15.9231 34.91C16.0645 35.0043 16.2059 35.0514 16.3473 35.0514C16.583 35.0514 16.8187 34.91 16.9601 34.7215L18.8457 31.8459C18.8929 31.7516 18.94 31.6102 18.94 31.5159L19.2228 28.499L20.3071 27.6505C20.4956 29.866 21.1556 32.1288 22.5226 32.1288C23.8897 32.1288 24.5025 29.866 24.7382 27.6505L25.8224 28.499L26.1053 31.5159C26.1053 31.6574 26.1524 31.7516 26.1995 31.8459L28.0851 34.7215C28.2266 34.9572 28.4623 35.0514 28.698 35.0514C28.8394 35.0514 28.9808 35.0043 29.1222 34.91C29.4522 34.6743 29.5465 34.2029 29.3579 33.8729L27.5666 31.1388L27.2366 27.9805C27.2366 27.7919 27.0952 27.6033 26.9538 27.4619L24.7853 25.7649C24.7853 25.1521 24.7382 24.6807 24.6439 24.2564L28.1794 25.812L28.6037 28.499C28.6508 28.6404 28.698 28.829 28.8394 28.9233L31.1492 31.0917C31.2907 31.2331 31.4792 31.2802 31.6678 31.2802C31.8563 31.2802 32.092 31.186 32.2334 31.0445C32.5163 30.7617 32.5163 30.2903 32.1863 30.0075L30.065 27.9805L29.5936 25.1521C29.5465 24.9164 29.4051 24.6807 29.1694 24.5864L24.2668 22.4179C24.2668 22.088 24.2668 21.8051 24.2668 21.4752C29.3108 23.2665 37.7017 25.1521 35.8161 20.0138Z" fill="black"/>
</svg>
