<svg width="40" height="40" viewBox="0 0 40 40" fill="none" xmlns="http://www.w3.org/2000/svg">
<path d="M6.06919 10.6181C5.93562 11.2421 5.84314 11.8741 5.79233 12.5102C5.78185 12.6378 5.79796 12.7662 5.83965 12.8872C5.88134 13.0083 5.94771 13.1194 6.03454 13.2135C6.12138 13.3076 6.2268 13.3826 6.34414 13.4339C6.46148 13.4851 6.58817 13.5115 6.71621 13.5113C6.96191 13.5113 7.19755 13.6089 7.37128 13.7826C7.54502 13.9563 7.64262 14.192 7.64262 14.4377V17.7228C7.65589 18.1771 7.82759 18.6123 8.128 18.9533L8.15936 18.988C8.65016 19.5185 9.47479 19.4225 10.1274 19.3643C10.9191 19.2938 11.7012 19.141 12.4612 18.9082C14.0246 18.5125 15.4698 17.7465 16.6748 16.6748C17.7466 15.4698 18.5126 14.0245 18.9082 12.4611C19.141 11.7012 19.2939 10.919 19.3643 10.1273C19.4226 9.47477 19.5186 8.65014 18.988 8.15929L18.9533 8.12793C18.6124 7.82753 18.1771 7.65583 17.7229 7.64257H14.4377C14.192 7.64256 13.9563 7.54496 13.7826 7.37122C13.6089 7.19748 13.5113 6.96184 13.5113 6.71614C13.5115 6.5881 13.4852 6.46141 13.4339 6.34407C13.3827 6.22674 13.3076 6.12132 13.2135 6.03448C13.1194 5.94764 13.0083 5.88128 12.8873 5.83959C12.7662 5.79791 12.6378 5.7818 12.5102 5.79229C11.8741 5.84307 11.2421 5.93555 10.6181 6.06912C11.8395 3.99225 15.1343 0.269252 22.579 1.84095C22.6735 1.86036 22.7709 1.86093 22.8656 1.84263C22.9604 1.82434 23.0505 1.78753 23.131 1.73432C23.2115 1.68111 23.2807 1.61254 23.3346 1.53255C23.3885 1.45256 23.4262 1.36271 23.4453 1.26815C23.4645 1.17359 23.4648 1.07619 23.4462 0.981512C23.4277 0.886836 23.3906 0.796751 23.3372 0.716418C23.2838 0.636086 23.215 0.567084 23.1349 0.513366C23.0547 0.459648 22.9648 0.422269 22.8702 0.403372C12.5045 -1.77711 9.14783 5.53785 8.68008 6.71558C7.80598 7.10661 7.1066 7.80599 6.71557 8.68009C5.53782 9.14784 -1.77713 12.5045 0.403382 22.8702C0.422294 22.9648 0.459683 23.0547 0.513407 23.1348C0.567131 23.215 0.636134 23.2837 0.716464 23.3371C0.796794 23.3905 0.886874 23.4276 0.981541 23.4461C1.07621 23.4647 1.17361 23.4643 1.26815 23.4452C1.3627 23.426 1.45254 23.3884 1.53252 23.3345C1.61251 23.2806 1.68107 23.2114 1.73427 23.1309C1.78748 23.0504 1.82429 22.9603 1.84259 22.8656C1.86089 22.7708 1.86033 22.6734 1.84093 22.579C0.269272 15.1342 3.99227 11.8395 6.06919 10.6181Z" fill="black"/>
<path d="M39.6676 23.8222C35.9566 21.0524 33.821 16.7115 32.8514 14.2762C32.7282 13.9514 32.5354 13.6575 32.2865 13.4152C32.0376 13.1728 31.7387 12.988 31.4107 12.8736C31.0827 12.7592 30.7336 12.718 30.388 12.753C30.0424 12.788 29.7086 12.8982 29.4102 13.076L26.0157 15.0851L22.5359 11.822C22.3234 11.6208 22.1623 11.3714 22.0663 11.0949C21.9704 10.8183 21.9423 10.5228 21.9844 10.2332C22.0915 9.25707 22.1046 8.27295 22.0235 7.29435C22.0179 7.23003 22.0319 7.16551 22.0638 7.10937C22.0957 7.05322 22.1439 7.00813 22.2021 6.98008C22.259 6.94866 22.3241 6.93501 22.3889 6.94089C22.4537 6.94677 22.5152 6.97191 22.5656 7.01308C24.7348 8.72924 27.7872 10.4618 30.503 9.53116C30.6126 9.49305 30.7117 9.42962 30.7921 9.34603C30.8726 9.26244 30.9322 9.16104 30.9661 9.05007C31 8.93911 31.0072 8.82172 30.9872 8.70743C30.9672 8.59315 30.9205 8.48519 30.8509 8.39235C30.7554 8.26948 30.6239 8.17943 30.4749 8.1347C30.3258 8.08998 30.1665 8.0928 30.0191 8.14278C27.8143 8.87062 25.0721 7.11609 23.5292 5.90503C23.3404 5.74637 23.1212 5.62794 22.885 5.55701C22.6488 5.48607 22.4006 5.46412 22.1556 5.4925C21.9106 5.52089 21.674 5.599 21.4603 5.72206C21.2466 5.84513 21.0602 6.01054 20.9127 6.20817C20.6513 6.57823 20.5283 7.02837 20.5652 7.47991C20.6269 8.57504 20.5729 9.67363 20.4039 10.7574C20.2269 11.9008 19.9296 13.0224 19.5171 14.1034C19.0977 15.362 18.4283 16.5229 17.5491 17.5164C16.5588 18.4248 15.3832 19.1074 14.1034 19.5172C13.0224 19.9297 11.9008 20.227 10.7574 20.404C9.67362 20.573 8.57503 20.627 7.47989 20.5653C7.02836 20.5285 6.57823 20.6514 6.20817 20.9128C6.01054 21.0603 5.84513 21.2466 5.72206 21.4604C5.599 21.6741 5.52089 21.9107 5.4925 22.1557C5.46412 22.4007 5.48607 22.6489 5.557 22.8851C5.62794 23.1213 5.74637 23.3405 5.90503 23.5293C7.11609 25.0721 8.87062 27.8143 8.14277 30.0191C8.09279 30.1665 8.08997 30.3259 8.13469 30.4749C8.17942 30.624 8.26947 30.7555 8.39233 30.851C8.48517 30.9206 8.59313 30.9673 8.70741 30.9873C8.82169 31.0073 8.93909 31.0001 9.05005 30.9662C9.16101 30.9323 9.26241 30.8727 9.346 30.7922C9.4296 30.7118 9.49303 30.6127 9.53115 30.5031C10.4618 27.7873 8.72922 24.7349 7.01308 22.5657C6.97191 22.5153 6.94677 22.4538 6.94089 22.389C6.93501 22.3242 6.94866 22.2591 6.98008 22.2021C7.00812 22.144 7.05322 22.0958 7.10936 22.0639C7.1655 22.032 7.23002 22.0179 7.29434 22.0236C8.27294 22.1047 9.25706 22.0916 10.2332 21.9845C10.5228 21.9423 10.8183 21.9704 11.0949 22.0664C11.3714 22.1624 11.6207 22.3235 11.822 22.536L15.0851 26.0158L13.076 29.4103C12.8982 29.7087 12.788 30.0425 12.753 30.3881C12.7181 30.7337 12.7592 31.0827 12.8736 31.4107C12.988 31.7387 13.1728 32.0377 13.4151 32.2866C13.6574 32.5355 13.9513 32.7283 14.2761 32.8515C16.7114 33.8211 21.0524 35.9567 23.8222 39.6676C23.9247 39.8143 24.0752 39.9204 24.2477 39.9678C24.4203 40.0151 24.6039 40.0007 24.7669 39.927C24.8629 39.8787 24.9471 39.8099 25.0137 39.7256C25.0803 39.6413 25.1277 39.5434 25.1525 39.4389C25.1772 39.3343 25.1788 39.2256 25.1571 39.1204C25.1355 39.0151 25.091 38.9159 25.0269 38.8297C22.0307 34.7917 17.377 32.5041 14.7904 31.4771C14.6479 31.4216 14.5216 31.3311 14.4232 31.214C14.3249 31.0968 14.2575 30.9568 14.2275 30.8068C14.1835 30.5746 14.2281 30.3343 14.3526 30.1334L16.195 27.1995C21.9994 33.0039 27.1634 34.2987 30.4055 34.3911C30.9333 34.4073 31.4588 34.3153 31.9497 34.1208C32.4406 33.9262 32.8864 33.6333 33.2598 33.2599C33.6332 32.8865 33.9261 32.4407 34.1207 31.9498C34.3152 31.4589 34.4072 30.9334 34.391 30.4056C34.2986 27.1635 33.0038 21.9995 27.1994 16.1951L30.1333 14.3527C30.3343 14.2282 30.5746 14.1836 30.8068 14.2276C30.9568 14.2577 31.0968 14.325 31.2139 14.4234C31.331 14.5217 31.4215 14.648 31.477 14.7906C32.504 17.3771 34.7916 22.0308 38.8296 25.027C38.9158 25.0911 39.0151 25.1356 39.1203 25.1573C39.2255 25.1789 39.3343 25.1773 39.4388 25.1526C39.5434 25.1278 39.6412 25.0804 39.7256 25.0138C39.8099 24.9472 39.8786 24.863 39.9269 24.767C40.0007 24.604 40.0151 24.4203 39.9677 24.2478C39.9204 24.0753 39.8142 23.9247 39.6676 23.8222Z" fill="black"/>
</svg>
