<svg width="94" height="95" viewBox="0 0 94 95" fill="none" xmlns="http://www.w3.org/2000/svg">
<path d="M93.8546 91.2613L85.5265 70.4413C84.2374 67.2225 81.3077 64.8632 77.8859 64.2929L63.6049 61.914L83.8349 55.1757C86.8037 54.1874 89.163 51.8241 90.163 48.8476L93.8935 37.6366C94.245 36.5858 93.6747 35.4569 92.624 35.1054C91.5849 34.7538 90.4443 35.3242 90.0928 36.3749L86.3623 47.5859C85.7724 49.3671 84.3506 50.7851 82.5732 51.375L63.2212 57.8242L84.7722 32.6832C87.5808 29.4137 87.9714 24.7223 85.7526 21.0352L73.7216 0.97621C73.1513 0.0269901 71.9208 -0.27379 70.9833 0.2848C70.0341 0.85511 69.7333 2.0856 70.2919 3.0231L82.3229 23.0821C83.651 25.3009 83.4127 28.1133 81.7331 30.0704L68.7721 45.1914C68.9205 44.1523 69.0026 43.082 69.0026 42C69.0026 30.551 60.2018 21.109 49.0026 20.09L49.0065 2C49.0065 0.8984 48.108 0 47.0065 0C45.9049 0 45.0065 0.89844 45.0065 2V20.09C33.8075 21.1095 25.0065 30.551 25.0065 42C25.0065 43.0898 25.0846 44.1602 25.2369 45.1914L12.2759 30.0704C10.5962 28.1095 10.354 25.3009 11.6861 23.0821L23.7061 3.0311C24.2764 2.08188 23.9678 0.8514 23.0147 0.2928C22.0655 -0.27751 20.835 0.03108 20.2764 0.98421L8.24539 21.0432C6.02659 24.7424 6.42508 29.4221 9.22585 32.6912L30.7769 57.8322L11.4249 51.383C9.64366 50.7932 8.22566 49.3713 7.63576 47.5939L3.90526 36.3829C3.5537 35.3321 2.42476 34.7735 1.37406 35.1134C0.323255 35.465 -0.235345 36.5939 0.104555 37.6446L3.83506 48.8556C4.82334 51.8244 7.18666 54.1837 10.1632 55.1837L30.3932 61.922L16.1122 64.3009C12.6903 64.8712 9.76056 67.2306 8.47156 70.4493L0.143455 91.2693C-0.266705 92.3005 0.233298 93.4607 1.25286 93.8709C1.49114 93.9725 1.74114 94.0115 1.99114 94.0115C2.78019 94.0115 3.53024 93.5311 3.85054 92.7498L12.1786 71.9298C12.9482 70.0001 14.7098 68.5782 16.7567 68.2384L29.1977 66.1681L23.3071 69.1173C21.2563 70.1368 19.9868 72.1954 19.9868 74.4884V80.3595C19.9868 81.9611 20.6079 83.4689 21.7485 84.5978L30.5766 93.4259C31.3579 94.2072 32.6274 94.2072 33.4047 93.4259C34.186 92.6447 34.186 91.3751 33.4047 90.5978L24.5766 81.7697C24.2055 81.3986 23.9868 80.8791 23.9868 80.3595V74.4884C23.9868 73.7267 24.4087 73.0392 25.0962 72.6993L35.9752 67.2579C35.3463 68.7188 34.9869 70.3282 34.9869 72.0196C34.9869 75.879 36.8267 79.3087 39.6666 81.5079L35.565 85.6095C34.7838 86.3908 34.7838 87.6603 35.565 88.4376L40.565 93.4376C40.9556 93.8282 41.4635 94.0275 41.9752 94.0275C42.487 94.0275 42.9947 93.8282 43.3854 93.4376C44.1667 92.6564 44.1667 91.3868 43.3854 90.6095L39.7956 87.0197L43.3542 83.4611C44.4948 83.8205 45.7058 84.0197 46.9636 84.0197C48.2253 84.0197 49.4324 83.8205 50.573 83.4611L54.1316 87.0197L50.5418 90.6095C49.7606 91.3908 49.7606 92.6603 50.5418 93.4376C50.9324 93.8282 51.4403 94.0275 51.952 94.0275C52.4638 94.0275 52.9715 93.8282 53.3622 93.4376L58.3622 88.4376C59.1435 87.6564 59.1435 86.3868 58.3622 85.6095L54.2606 81.5079C57.1004 79.3087 58.9403 75.879 58.9403 72.0196C58.9403 70.3282 58.5809 68.7188 57.952 67.2579L68.831 72.6993C69.5107 73.0392 69.9326 73.7305 69.9326 74.4884V80.3595C69.9326 80.8908 69.7217 81.3986 69.3428 81.7697L60.5147 90.5978C59.7334 91.3791 59.7334 92.6486 60.5147 93.4259C61.2959 94.2072 62.5655 94.2072 63.3428 93.4259L72.1709 84.5978C73.2998 83.4689 73.9326 81.9572 73.9326 80.3595V74.4884C73.9326 72.1993 72.6631 70.1486 70.6123 69.1173L64.7217 66.1681L77.1627 68.2384C79.2135 68.5783 80.9713 70.0001 81.7408 71.9298L90.0689 92.7498C90.3775 93.5311 91.1275 94.0115 91.9283 94.0115C92.1783 94.0115 92.4283 93.9607 92.6666 93.8709C93.6978 93.4608 94.1861 92.3006 93.776 91.2693L93.8546 91.2613ZM46.9956 29.9993C48.0972 29.9993 48.9956 30.8977 48.9956 31.9993C48.9956 33.1009 48.0971 33.9993 46.9956 33.9993C42.5854 33.9993 38.9956 37.5891 38.9956 41.9993C38.9956 43.1009 38.0971 43.9993 36.9956 43.9993C35.894 43.9993 34.9956 43.1009 34.9956 41.9993C34.9956 35.3782 40.3745 29.9993 46.9956 29.9993Z" fill="black"/>
</svg>
