<svg width="53" height="91" viewBox="0 0 53 91" fill="none" xmlns="http://www.w3.org/2000/svg">
<path d="M23.2641 18.5118C22.3148 15.6446 22.4984 12.5196 23.7758 9.78125C21.2172 11.4921 20.6977 14.7031 21.1352 17.4101C21.2485 18.1016 21.4477 18.7734 21.7367 19.4101C22.225 19.0781 22.7368 18.7813 23.2641 18.5118Z" fill="black"/>
<path d="M12.2247 0.51172C12.2286 0.37891 12.1779 0.25 12.0841 0.15625C11.9943 0.058594 11.8693 0.00391 11.7365 0C11.4669 0.011719 11.2443 0.22266 11.2247 0.49219C11.2247 1.04297 11.0958 13.9332 19.3028 21.7032C19.5216 21.4415 19.752 21.1915 19.9825 20.9649C12.1036 13.5118 12.2247 0.65272 12.2247 0.51172Z" fill="black"/>
<path d="M16.544 56.0312C17.5674 55.4414 18.6768 55.0117 19.8331 54.7617C20.2628 54.6406 20.8331 54.4922 21.1729 54.3633C20.7862 53.918 20.5362 53.375 20.4425 52.793C17.6417 53.4922 14.0441 54.9141 13.7941 56.5118C13.6847 57.2813 13.8449 57.4219 13.8449 57.4219C13.9855 57.5118 14.5441 57.5117 16.544 56.0312Z" fill="black"/>
<path d="M0.65457 67.2617C0.39676 67.1758 0.11551 67.3125 0.0256598 67.5703C-0.0602782 67.832 0.0764407 68.1172 0.33425 68.2109C1.1155 68.4804 1.93195 68.625 2.75615 68.6328C5.13505 68.5273 7.33815 67.3555 8.75615 65.4414C8.78349 65.3984 8.80693 65.3515 8.82646 65.3008C9.5374 62.7891 12.2054 59.461 13.2484 58.2227C13.4984 57.9141 13.6585 57.7344 13.6702 57.7227H13.6663C13.7601 57.6289 13.8109 57.5039 13.8109 57.3711C13.8109 57.2383 13.7601 57.1133 13.6663 57.0234C13.5726 56.9258 13.4476 56.8711 13.3148 56.8711C13.182 56.8711 13.057 56.9258 12.9671 57.0234C12.9671 57.0234 12.889 57.1133 12.7952 57.2031C12.0335 58.082 8.79524 61.9023 7.92414 64.9023C6.27964 67.1953 3.33427 68.1523 0.65457 67.2617Z" fill="black"/>
<path d="M31.2168 19.5117C31.498 18.875 31.6972 18.2031 31.8066 17.5117C32.2558 14.8008 31.7285 11.5898 29.166 9.88281C30.416 12.5898 30.5996 15.6719 29.6855 18.5117C30.2168 18.8125 30.7247 19.1445 31.2168 19.5117Z" fill="black"/>
<path d="M13.0323 67.3125C13.0401 67.2735 13.0401 67.2305 13.0323 67.1914C13.2042 67.1914 13.3331 66.9297 13.4112 66.75C14.0714 65.2109 16.2823 63.75 19.1612 62.75H19.1651C19.4932 62.1406 19.9659 61.6211 20.544 61.2422C20.0323 60.7383 19.6846 60.0938 19.544 59.3906C17.544 60.5117 12.544 63.6601 12.1221 66.8125L12.2823 66.9531C12.0987 67.0391 11.9893 67.2305 12.0049 67.4336V68.0039V68C12.3174 71.1602 13.169 74.2422 14.5244 77.1133C13.9463 78.1133 11.4033 82.4649 8.01273 84.3047V84.3008C7.81351 84.4102 7.71195 84.6446 7.76664 84.8672C7.82523 85.086 8.02445 85.2422 8.25492 85.2422C8.33305 85.2422 8.41508 85.2227 8.48539 85.1836C12.6143 82.9531 15.4151 77.5742 15.4854 77.3438V77.3399C15.5674 77.1954 15.5674 77.0157 15.4854 76.8712C14.1612 74.1603 13.3213 71.2423 13.0049 68.2423C13.0557 67.6524 13.0323 67.3203 13.0323 67.3125Z" fill="black"/>
<path d="M11.7561 47.3515H11.846C12.1155 47.3007 12.2952 47.0429 12.2444 46.7734C12.2405 46.7343 12.2405 46.6992 12.2444 46.6601C12.928 47.5351 13.9514 48.0703 15.0569 48.1328H15.3265C15.9749 48.1524 16.6234 48.2109 17.264 48.3008C18.4202 48.4844 19.5921 48.5313 20.7562 48.4414C20.2835 47.9649 20.0296 47.3203 20.0452 46.6523V46.4023C17.6468 45.8906 13.7249 45.2734 12.514 46.0117C12.3617 46.0859 12.2328 46.207 12.1546 46.3633C12.0843 45.9726 12.0062 45.582 11.9164 45.2149C9.18586 32.8559 3.48666 31.9259 3.23666 31.8949V31.891C2.96713 31.8558 2.71713 32.0433 2.67416 32.3128C2.639 32.5824 2.8265 32.8363 3.09604 32.8831C3.15463 32.8831 8.66634 33.8831 11.1468 46.4031C11.1468 46.5946 11.225 46.7742 11.2562 46.9617C11.2679 47.032 11.2992 47.0985 11.3461 47.1531C11.4398 47.286 11.5921 47.3593 11.7561 47.3515Z" fill="black"/>
<path d="M28.3455 18.999C27.1541 18.4795 25.7987 18.4795 24.6034 18.999C21.2596 20.3779 18.7439 23.2295 17.7947 26.7217C16.5447 31.1123 16.2244 37.1317 19.0447 40.8627C19.8299 41.8939 20.8611 42.7104 22.0447 43.2416C23.4392 42.6166 24.9784 42.3822 26.494 42.5697C28.0096 42.3822 29.5487 42.6166 30.9432 43.2416C32.1268 42.7104 33.162 41.8939 33.9432 40.8627C36.7635 37.1322 36.4315 31.1127 35.1932 26.7217C34.2361 23.2217 31.7049 20.3701 28.3455 18.999Z" fill="black"/>
<path d="M32.5451 22.0115C32.6428 22.117 32.7834 22.1755 32.924 22.1716C33.0451 22.1716 33.1623 22.1287 33.256 22.0506L33.6154 21.7107C41.8537 13.9412 41.7248 1.05072 41.717 0.511717C41.7053 0.238277 41.4787 0.0234375 41.2053 0.0234375C41.0725 0.0234375 40.9475 0.0781244 40.8537 0.175777C40.7639 0.269527 40.7131 0.398438 40.717 0.531248C40.717 0.660158 40.8459 13.5312 32.9553 20.9802L32.6037 21.3084V21.3123C32.4006 21.492 32.3771 21.8005 32.5451 22.0115Z" fill="black"/>
<path d="M32.5449 52.7931C32.4629 53.3751 32.2129 53.922 31.8262 54.3634C32.2051 54.4923 32.7363 54.6446 33.166 54.7618C34.3222 55.0157 35.4355 55.4415 36.4668 56.0313C38.4668 57.4727 38.998 57.5196 39.1582 57.4219C39.1582 57.4219 39.3301 57.2813 39.1582 56.5118C38.916 54.9102 35.3144 53.5119 32.5449 52.7931Z" fill="black"/>
<path d="M39.3262 57.0242C39.2324 57.114 39.1777 57.239 39.1777 57.3718C39.1777 57.5046 39.2324 57.6296 39.3262 57.7234C39.3262 57.7234 39.4981 57.9148 39.7481 58.2234C40.7481 59.4539 43.459 62.7937 44.17 65.3015H44.166C44.1817 65.3523 44.2051 65.3991 44.2364 65.4421C45.6505 67.3562 47.8575 68.528 50.2364 68.6335C51.0606 68.6257 51.877 68.4851 52.6544 68.2116C52.9161 68.1179 53.0528 67.8327 52.9669 67.571C52.877 67.3132 52.5958 67.1765 52.3341 67.2624C49.6818 68.1609 46.7481 67.2195 45.1152 64.9421C44.2168 61.9421 41.0058 58.1218 40.2441 57.2429C40.1543 57.1531 40.0957 57.071 40.084 57.0632C39.9941 56.946 39.8613 56.8757 39.7129 56.8679C39.5684 56.8601 39.4238 56.9148 39.3262 57.0242Z" fill="black"/>
<path d="M40.6231 66.9024L40.7832 66.7617C40.4043 63.6133 35.3418 60.4609 33.3613 59.3398H33.3652C33.2246 60.0469 32.877 60.6914 32.3652 61.1914C32.9707 61.5625 33.4746 62.0782 33.834 62.6914C36.7051 63.6914 38.9121 65.1719 39.5723 66.6914C39.6505 66.8711 39.7833 67.0899 39.9512 67.1329H39.9552C39.9512 67.1719 39.9512 67.211 39.9552 67.25C39.9552 67.25 39.9551 67.5899 39.8653 68.129V68.1329C39.5489 71.129 38.7091 74.0509 37.3848 76.7618C37.3028 76.9063 37.3028 77.086 37.3848 77.2305C37.5059 77.461 40.3145 82.8399 44.3848 85.0703C44.4551 85.1133 44.5332 85.1328 44.6153 85.1328C44.8457 85.1328 45.045 84.9766 45.1036 84.7539C45.1582 84.5312 45.0567 84.3008 44.8536 84.1914C41.4747 82.3516 38.9239 78.043 38.3419 77H38.3458C39.7013 74.1328 40.5528 71.0508 40.8653 67.8906V67.3203C40.8653 67.1484 40.7715 66.9883 40.6231 66.9024Z" fill="black"/>
<path d="M40.7832 46.3394C40.705 46.187 40.58 46.0659 40.4238 45.9917C39.2129 45.2534 35.3027 45.8706 32.8926 46.3823V46.6323H32.8965C32.9121 47.3003 32.6543 47.9448 32.1855 48.4214C33.3496 48.5113 34.5214 48.4644 35.6738 48.2808C36.4082 48.1714 37.1465 48.1167 37.8847 48.1206C38.9863 48.0621 40.0097 47.5269 40.6933 46.6597C40.7012 46.6949 40.7012 46.7301 40.6933 46.7613C40.6465 47.0308 40.8262 47.2926 41.0957 47.3394H41.1855C41.3418 47.3394 41.4902 47.2652 41.584 47.1402C41.6191 47.0894 41.6465 47.0308 41.666 46.9722L41.7871 46.4136C44.2676 33.9256 49.7871 32.9016 49.7871 32.8936L49.7832 32.8897C50.0605 32.8507 50.2519 32.5968 50.2168 32.3194C50.1777 32.046 49.9199 31.8507 49.6465 31.8897C49.3965 31.8897 43.6465 32.8897 40.9668 45.2097C40.9355 45.5613 40.8535 45.9409 40.7832 46.3394Z" fill="black"/>
<path d="M26.485 48.1201C27.5514 48.1162 28.6178 48.2842 29.6334 48.6123C30.2936 48.4951 30.9146 48.2138 31.4342 47.792C31.7584 47.499 31.9342 47.0771 31.9147 46.6397C31.9459 45.8311 31.61 45.0499 31.0045 44.5108C29.5436 43.1905 26.5436 43.5694 26.5436 43.5694H26.403C26.071 43.5381 25.7389 43.5186 25.403 43.5225C24.1647 43.4522 22.9382 43.8037 21.9225 44.5225C21.317 45.0616 20.9889 45.8467 21.024 46.6592C21.0201 47.0967 21.2115 47.5108 21.5436 47.792C22.067 48.21 22.6842 48.4912 23.3444 48.6123C24.36 48.2881 25.4186 48.1201 26.485 48.1201Z" fill="black"/>
<path d="M22.0753 53.9027C22.251 54.0629 22.4464 54.1996 22.6534 54.3129C25.0792 53.2231 27.8565 53.2231 30.2823 54.3129C30.4932 54.1996 30.6885 54.0629 30.8643 53.9027C31.3253 53.4652 31.5753 52.848 31.544 52.2113C31.5674 51.5434 31.3018 50.8949 30.8135 50.434C29.4151 49.0629 26.5049 49.1254 26.4619 49.1254H26.4033C25.9619 49.1254 23.4033 49.1254 22.083 50.434C21.5987 50.895 21.333 51.5434 21.3526 52.2113C21.333 52.852 21.5987 53.473 22.0753 53.9027Z" fill="black"/>
<path d="M26.4757 54.5118C25.2999 54.5157 24.1398 54.7657 23.0655 55.2422C21.4444 55.9727 20.585 57.0117 20.4952 58.3438V58.3399C20.4053 59.1407 20.6827 59.9376 21.2452 60.5118C21.3389 60.6017 21.4366 60.6837 21.5342 60.7618C23.1319 60.1603 24.8311 59.8751 26.5342 59.922C28.2139 59.8751 29.8858 60.1603 31.4561 60.7618L31.7374 60.5118C32.2999 59.9376 32.5772 59.1407 32.4874 58.3399C32.3975 57.0118 31.5381 55.9688 29.9288 55.2383L29.9249 55.2422C28.839 54.7579 27.6632 54.5079 26.4757 54.5118Z" fill="black"/>
<path d="M26.5441 60.903H26.3058C25.1574 60.903 20.1769 61.0827 19.6847 64.2233C19.6183 64.7155 19.8605 65.1999 20.2941 65.4421L20.4738 65.532C22.3371 64.6296 24.4191 64.282 26.4738 64.532C28.5285 64.2859 30.6105 64.6335 32.4738 65.532L32.6535 65.4538C33.091 65.2116 33.3292 64.7273 33.2628 64.2311C32.755 60.6842 26.5441 60.903 26.5441 60.903Z" fill="black"/>
<path d="M26.5449 65.5119H26.4043C25.9628 65.4885 25.5175 65.4885 25.0762 65.5119C23.2871 65.4221 21.5254 65.9416 20.0762 66.9924C18.1895 68.9533 17.92 71.9572 19.4238 74.2229C21.8457 72.3518 26.2754 72.6331 26.4824 72.6448C26.6934 72.6565 31.0332 72.3557 33.4824 74.2229H33.4863C34.9785 71.9534 34.7051 68.9534 32.8262 66.9924C30.545 64.9924 26.5956 65.5119 26.5449 65.5119Z" fill="black"/>
<path d="M33.3077 75.3703C31.4054 73.3 26.546 73.6125 26.546 73.6125C26.546 73.6125 21.546 73.3039 19.6671 75.3742V75.3703C18.5499 76.7258 18.714 78.718 20.0343 79.8703C20.1046 79.7609 20.1788 79.6594 20.2647 79.5617C22.003 77.8312 25.8155 78.4601 26.503 78.5617C27.1945 78.4328 30.9913 77.8 32.7335 79.5617C32.8234 79.6633 32.8937 79.7805 32.9718 79.882H32.9757C33.5421 79.4094 33.9171 78.7492 34.0265 78.0226C34.2297 77.0734 33.96 76.0851 33.3077 75.3703Z" fill="black"/>
<path d="M31.9939 80.2621C30.7634 79.0433 27.6658 79.3715 26.5837 79.5902C26.5173 79.6136 26.4431 79.6136 26.3727 79.5902C25.6345 79.4496 24.8805 79.3793 24.1227 79.3832C22.9899 79.2777 21.861 79.5941 20.943 80.2738C20.3883 80.9066 20.2087 81.7894 20.4743 82.5902C21.5329 87.7308 25.2438 90.0121 26.4743 90.0121C27.7048 90.0121 31.404 87.7309 32.4743 82.5902C32.736 81.7855 32.5525 80.8988 31.9939 80.2621Z" fill="black"/>
</svg>
